<svg width="1341" height="563" viewBox="0 0 1341 563" fill="none" xmlns="http://www.w3.org/2000/svg">
<path d="M332.494 20.6138C338.17 20.6138 342.771 15.9993 342.771 10.3069C342.771 4.61456 338.17 0 332.494 0C326.819 0 322.218 4.61456 322.218 10.3069C322.218 15.9993 326.819 20.6138 332.494 20.6138Z" fill="#F50057"/>
<path d="M330.281 18.7341C331.284 17.9201 330.649 15.4669 328.864 13.2547C327.078 11.0425 324.818 9.90911 323.815 10.7231C322.813 11.5371 323.447 13.9903 325.233 16.2025C327.019 18.4147 329.279 19.5481 330.281 18.7341Z" fill="white"/>
<path d="M10.358 192.614C16.0337 192.614 20.6347 187.999 20.6347 182.307C20.6347 176.615 16.0337 172 10.358 172C4.68242 172 0.0814209 176.615 0.0814209 182.307C0.0814209 187.999 4.68242 192.614 10.358 192.614Z" fill="#3F3D56"/>
<path d="M5.84781 181.087C6.5866 178.339 6.17589 175.839 4.93045 175.502C3.68502 175.165 2.07648 177.12 1.33769 179.868C0.598906 182.616 1.00963 185.116 2.25507 185.453C3.5005 185.79 5.10903 183.835 5.84781 181.087Z" fill="white"/>
<path d="M30.455 33.8464C33.992 33.8464 36.8594 30.9707 36.8594 27.4232C36.8594 23.8758 33.992 21 30.455 21C26.918 21 24.0507 23.8758 24.0507 27.4232C24.0507 30.9707 26.918 33.8464 30.455 33.8464Z" fill="#3F3D56"/>
<path d="M27.6443 26.6631C28.1047 24.9506 27.8488 23.3921 27.0726 23.1822C26.2965 22.9723 25.2941 24.1905 24.8336 25.903C24.3732 27.6156 24.6292 29.1741 25.4053 29.384C26.1815 29.5938 27.1839 28.3757 27.6443 26.6631Z" fill="white"/>
<path d="M223.454 118.846C226.991 118.846 229.858 115.971 229.858 112.423C229.858 108.876 226.991 106 223.454 106C219.917 106 217.05 108.876 217.05 112.423C217.05 115.971 219.917 118.846 223.454 118.846Z" fill="#3F3D56"/>
<path d="M220.644 111.664C221.105 109.951 220.849 108.392 220.073 108.183C219.296 107.973 218.294 109.191 217.834 110.903C217.373 112.616 217.629 114.174 218.405 114.384C219.181 114.594 220.184 113.376 220.644 111.664Z" fill="white"/>
<path d="M332.494 20.6138C338.17 20.6138 342.771 15.9993 342.771 10.3069C342.771 4.61456 338.17 0 332.494 0C326.819 0 322.218 4.61456 322.218 10.3069C322.218 15.9993 326.819 20.6138 332.494 20.6138Z" fill="#FF0B63"/>
<path d="M330.281 18.7341C331.284 17.9201 330.649 15.4669 328.864 13.2547C327.078 11.0425 324.818 9.90911 323.815 10.7231C322.813 11.5371 323.447 13.9903 325.233 16.2025C327.019 18.4147 329.279 19.5481 330.281 18.7341Z" fill="white"/>
<path d="M10.358 192.614C16.0337 192.614 20.6347 187.999 20.6347 182.307C20.6347 176.615 16.0337 172 10.358 172C4.68242 172 0.0814209 176.615 0.0814209 182.307C0.0814209 187.999 4.68242 192.614 10.358 192.614Z" fill="#4B5265"/>
<path d="M5.84781 181.087C6.5866 178.339 6.17589 175.839 4.93045 175.502C3.68502 175.165 2.07648 177.12 1.33769 179.868C0.598906 182.616 1.00963 185.116 2.25507 185.453C3.5005 185.79 5.10903 183.835 5.84781 181.087Z" fill="white"/>
<path d="M30.455 33.8464C33.992 33.8464 36.8594 30.9707 36.8594 27.4232C36.8594 23.8758 33.992 21 30.455 21C26.918 21 24.0507 23.8758 24.0507 27.4232C24.0507 30.9707 26.918 33.8464 30.455 33.8464Z" fill="#4B5265"/>
<path d="M27.6443 26.6631C28.1047 24.9506 27.8488 23.3921 27.0726 23.1822C26.2965 22.9723 25.2941 24.1905 24.8336 25.903C24.3732 27.6156 24.6292 29.1741 25.4053 29.384C26.1815 29.5938 27.1839 28.3757 27.6443 26.6631Z" fill="white"/>
<path d="M223.454 118.846C226.991 118.846 229.858 115.971 229.858 112.423C229.858 108.876 226.991 106 223.454 106C219.917 106 217.05 108.876 217.05 112.423C217.05 115.971 219.917 118.846 223.454 118.846Z" fill="#4B5265"/>
<path d="M220.644 111.664C221.105 109.951 220.849 108.392 220.073 108.183C219.296 107.973 218.294 109.191 217.834 110.903C217.373 112.616 217.629 114.174 218.405 114.384C219.181 114.594 220.184 113.376 220.644 111.664Z" fill="white"/>
<path d="M934.906 356.712C940.582 356.712 945.183 352.097 945.183 346.405C945.183 340.712 940.582 336.098 934.906 336.098C929.231 336.098 924.63 340.712 924.63 346.405C924.63 352.097 929.231 356.712 934.906 356.712Z" fill="#F50057"/>
<path d="M932.693 354.832C933.696 354.018 933.061 351.565 931.276 349.352C929.49 347.14 927.23 346.007 926.227 346.821C925.225 347.635 925.859 350.088 927.645 352.3C929.43 354.512 931.691 355.646 932.693 354.832Z" fill="white"/>
<path d="M784.358 234.614C790.034 234.614 794.635 229.999 794.635 224.307C794.635 218.615 790.034 214 784.358 214C778.682 214 774.081 218.615 774.081 224.307C774.081 229.999 778.682 234.614 784.358 234.614Z" fill="#3F3D56"/>
<path d="M779.848 223.087C780.587 220.339 780.176 217.839 778.93 217.502C777.685 217.165 776.076 219.12 775.338 221.868C774.599 224.616 775.01 227.116 776.255 227.453C777.501 227.79 779.109 225.835 779.848 223.087Z" fill="white"/>
<path d="M951.455 155.846C954.992 155.846 957.859 152.971 957.859 149.423C957.859 145.876 954.992 143 951.455 143C947.918 143 945.051 145.876 945.051 149.423C945.051 152.971 947.918 155.846 951.455 155.846Z" fill="#3F3D56"/>
<path d="M948.644 148.663C949.105 146.951 948.849 145.392 948.073 145.182C947.296 144.972 946.294 146.19 945.834 147.903C945.373 149.616 945.629 151.174 946.405 151.384C947.181 151.594 948.184 150.376 948.644 148.663Z" fill="white"/>
<path d="M918.811 420.748C922.348 420.748 925.215 417.872 925.215 414.325C925.215 410.777 922.348 407.902 918.811 407.902C915.274 407.902 912.406 410.777 912.406 414.325C912.406 417.872 915.274 420.748 918.811 420.748Z" fill="#3F3D56"/>
<path d="M916.001 413.565C916.461 411.853 916.205 410.294 915.429 410.084C914.653 409.874 913.651 411.093 913.19 412.805C912.73 414.518 912.986 416.076 913.762 416.286C914.538 416.496 915.541 415.278 916.001 413.565Z" fill="white"/>
<path d="M934.906 356.712C940.582 356.712 945.183 352.097 945.183 346.405C945.183 340.712 940.582 336.098 934.906 336.098C929.231 336.098 924.63 340.712 924.63 346.405C924.63 352.097 929.231 356.712 934.906 356.712Z" fill="#FF0B63"/>
<path d="M932.693 354.832C933.696 354.018 933.061 351.565 931.276 349.352C929.49 347.14 927.23 346.007 926.227 346.821C925.225 347.635 925.859 350.088 927.645 352.3C929.43 354.512 931.691 355.646 932.693 354.832Z" fill="white"/>
<path d="M784.358 234.614C790.034 234.614 794.635 229.999 794.635 224.307C794.635 218.615 790.034 214 784.358 214C778.682 214 774.081 218.615 774.081 224.307C774.081 229.999 778.682 234.614 784.358 234.614Z" fill="#4B5265"/>
<path d="M779.848 223.087C780.587 220.339 780.176 217.839 778.93 217.502C777.685 217.165 776.076 219.12 775.338 221.868C774.599 224.616 775.01 227.116 776.255 227.453C777.501 227.79 779.109 225.835 779.848 223.087Z" fill="white"/>
<path d="M951.455 155.846C954.992 155.846 957.859 152.971 957.859 149.423C957.859 145.876 954.992 143 951.455 143C947.918 143 945.051 145.876 945.051 149.423C945.051 152.971 947.918 155.846 951.455 155.846Z" fill="#4B5265"/>
<path d="M948.644 148.663C949.105 146.951 948.849 145.392 948.073 145.182C947.296 144.972 946.294 146.19 945.834 147.903C945.373 149.616 945.629 151.174 946.405 151.384C947.181 151.594 948.184 150.376 948.644 148.663Z" fill="white"/>
<path d="M918.811 420.748C922.348 420.748 925.215 417.872 925.215 414.325C925.215 410.777 922.348 407.902 918.811 407.902C915.274 407.902 912.406 410.777 912.406 414.325C912.406 417.872 915.274 420.748 918.811 420.748Z" fill="#4B5265"/>
<path d="M916.001 413.565C916.461 411.853 916.205 410.294 915.429 410.084C914.653 409.874 913.651 411.093 913.19 412.805C912.73 414.518 912.986 416.076 913.762 416.286C914.538 416.496 915.541 415.278 916.001 413.565Z" fill="white"/>
<path d="M1042.8 490.246C1042.36 495.904 1046.6 500.85 1052.28 501.292C1057.95 501.734 1062.91 497.506 1063.35 491.847C1063.79 486.189 1059.55 481.243 1053.87 480.801C1048.2 480.359 1043.24 484.587 1042.8 490.246Z" fill="#F50057"/>
<path d="M1044.84 488.185C1045.58 489.248 1048.07 488.806 1050.42 487.198C1052.76 485.589 1054.07 483.424 1053.33 482.361C1052.6 481.298 1050.1 481.741 1047.76 483.349C1045.42 484.957 1044.11 487.123 1044.84 488.185Z" fill="white"/>
<path d="M1243.69 519.298C1249.36 519.298 1253.96 514.683 1253.96 508.991C1253.96 503.299 1249.36 498.684 1243.69 498.684C1238.01 498.684 1233.41 503.299 1233.41 508.991C1233.41 514.683 1238.01 519.298 1243.69 519.298Z" fill="#4B5265"/>
<path d="M1239.18 507.772C1239.92 505.023 1239.5 502.523 1238.26 502.186C1237.01 501.849 1235.41 503.804 1234.67 506.552C1233.93 509.3 1234.34 511.801 1235.58 512.137C1236.83 512.474 1238.44 510.52 1239.18 507.772Z" fill="white"/>
<path d="M1304.46 352.846C1307.99 352.846 1310.86 349.971 1310.86 346.423C1310.86 342.876 1307.99 340 1304.46 340C1300.92 340 1298.05 342.876 1298.05 346.423C1298.05 349.971 1300.92 352.846 1304.46 352.846Z" fill="#3F3D56"/>
<path d="M1301.64 345.663C1302.1 343.951 1301.85 342.392 1301.07 342.182C1300.3 341.972 1299.29 343.19 1298.83 344.903C1298.37 346.616 1298.63 348.174 1299.41 348.384C1300.18 348.594 1301.18 347.376 1301.64 345.663Z" fill="white"/>
<path d="M1045.8 490.246C1045.36 495.904 1049.6 500.85 1055.28 501.292C1060.95 501.734 1065.91 497.506 1066.35 491.847C1066.79 486.189 1062.55 481.243 1056.87 480.801C1051.2 480.359 1046.24 484.587 1045.8 490.246Z" fill="#FF0B63"/>
<path d="M1044.84 488.185C1045.58 489.248 1048.07 488.806 1050.42 487.198C1052.76 485.589 1054.07 483.424 1053.33 482.361C1052.6 481.298 1050.1 481.741 1047.76 483.349C1045.42 484.957 1044.11 487.123 1044.84 488.185Z" fill="white"/>
<path d="M1304.46 352.846C1307.99 352.846 1310.86 349.971 1310.86 346.423C1310.86 342.876 1307.99 340 1304.46 340C1300.92 340 1298.05 342.876 1298.05 346.423C1298.05 349.971 1300.92 352.846 1304.46 352.846Z" fill="#4B5265"/>
<path d="M1301.64 345.663C1302.1 343.951 1301.85 342.392 1301.07 342.182C1300.3 341.972 1299.29 343.19 1298.83 344.903C1298.37 346.616 1298.63 348.174 1299.41 348.384C1300.18 348.594 1301.18 347.376 1301.64 345.663Z" fill="white"/>
<path d="M1206.13 191.214C1205.51 196.856 1209.59 201.936 1215.24 202.562C1220.9 203.187 1225.99 199.121 1226.62 193.48C1227.24 187.839 1223.16 182.758 1217.5 182.133C1211.85 181.507 1206.75 185.573 1206.13 191.214Z" fill="#4B5265"/>
<path d="M1212.02 184.816C1211.88 186.098 1214.06 187.391 1216.89 187.704C1219.72 188.017 1222.12 187.231 1222.27 185.949C1222.41 184.667 1220.23 183.374 1217.4 183.061C1214.57 182.749 1212.16 183.534 1212.02 184.816Z" fill="white"/>
<path d="M1266.58 24.2604C1266.26 29.9271 1270.61 34.7798 1276.29 35.0992C1281.97 35.4186 1286.84 31.0838 1287.16 25.4171C1287.48 19.7504 1283.13 14.8977 1277.44 14.5783C1271.76 14.2589 1266.9 18.5937 1266.58 24.2604Z" fill="#FF0B63"/>
<path d="M1280.94 22.5321C1282.35 24.9999 1284.4 26.4841 1285.52 25.8471C1286.65 25.2101 1286.42 22.6932 1285.01 20.2254C1283.6 17.7576 1281.55 16.2735 1280.43 16.9104C1279.3 17.5474 1279.53 20.0643 1280.94 22.5321Z" fill="white"/>
<path d="M1327.28 92.3638C1326.89 95.8794 1329.43 99.0454 1332.96 99.4353C1336.48 99.8252 1339.66 97.2913 1340.05 93.7757C1340.43 90.2601 1337.89 87.0941 1334.37 86.7042C1330.84 86.3143 1327.67 88.8482 1327.28 92.3638Z" fill="#F50057"/>
<path d="M1336.2 91.6322C1337.08 93.1702 1338.35 94.0951 1339.06 93.6981C1339.76 93.3012 1339.61 91.7326 1338.74 90.1947C1337.86 88.6568 1336.58 87.7319 1335.88 88.1288C1335.18 88.5258 1335.32 90.0943 1336.2 91.6322Z" fill="white"/>
<path d="M400.13 337.214C399.506 342.856 403.587 347.936 409.245 348.562C414.902 349.187 419.995 345.121 420.618 339.48C421.242 333.839 417.161 328.758 411.503 328.133C405.846 327.507 400.753 331.573 400.13 337.214Z" fill="#4B5265"/>
<path d="M406.022 330.816C405.88 332.099 408.058 333.391 410.887 333.704C413.716 334.017 416.124 333.231 416.266 331.949C416.408 330.667 414.23 329.374 411.401 329.061C408.572 328.749 406.164 329.534 406.022 330.816Z" fill="white"/>
<path d="M550.129 437.214C549.506 442.856 553.587 447.936 559.244 448.562C564.902 449.187 569.995 445.121 570.618 439.48C571.242 433.839 567.161 428.758 561.503 428.133C555.846 427.507 550.753 431.573 550.129 437.214Z" fill="#FF0B63"/>
<path d="M564.446 436.041C565.853 438.508 567.905 439.992 569.03 439.355C570.155 438.719 569.926 436.202 568.519 433.734C567.112 431.266 565.059 429.782 563.935 430.419C562.81 431.056 563.039 433.573 564.446 436.041Z" fill="white"/>
<path d="M579.277 260.364C578.888 263.879 581.431 267.045 584.957 267.435C588.483 267.825 591.657 265.291 592.046 261.776C592.434 258.26 589.891 255.094 586.365 254.704C582.839 254.314 579.666 256.848 579.277 260.364Z" fill="#F50057"/>
<path d="M588.199 259.632C589.076 261.17 590.355 262.095 591.055 261.698C591.756 261.301 591.614 259.733 590.737 258.195C589.86 256.657 588.581 255.732 587.88 256.129C587.179 256.526 587.322 258.094 588.199 259.632Z" fill="white"/>
<path d="M444.188 194.366C443.799 197.881 446.342 201.047 449.868 201.437C453.394 201.827 456.568 199.293 456.956 195.777C457.345 192.262 454.802 189.096 451.276 188.706C447.75 188.316 444.576 190.85 444.188 194.366Z" fill="#4B5265"/>
<path d="M453.11 193.634C453.987 195.172 455.266 196.097 455.966 195.7C456.667 195.303 456.524 193.734 455.648 192.197C454.771 190.659 453.492 189.734 452.791 190.131C452.09 190.528 452.233 192.096 453.11 193.634Z" fill="white"/>
<path d="M333.13 511.214C332.506 516.856 336.587 521.936 342.245 522.562C347.902 523.187 352.995 519.121 353.618 513.48C354.242 507.839 350.161 502.758 344.503 502.133C338.846 501.507 333.753 505.573 333.13 511.214Z" fill="#4B5265"/>
<path d="M339.022 504.816C338.88 506.099 341.058 507.391 343.887 507.704C346.716 508.017 349.124 507.231 349.266 505.949C349.408 504.667 347.23 503.374 344.401 503.061C341.572 502.749 339.164 503.534 339.022 504.816Z" fill="white"/>
<path d="M157.947 549.706C157.323 555.348 161.404 560.428 167.062 561.053C172.72 561.679 177.812 557.613 178.436 551.972C179.06 546.331 174.979 541.25 169.321 540.625C163.663 539.999 158.571 544.065 157.947 549.706Z" fill="#FF0B63"/>
<path d="M172.264 548.532C173.671 551 175.723 552.484 176.848 551.847C177.972 551.21 177.743 548.694 176.336 546.226C174.929 543.758 172.877 542.274 171.753 542.911C170.628 543.548 170.857 546.065 172.264 548.532Z" fill="white"/>
<path d="M10.7039 402.366C10.3151 405.881 12.8583 409.047 16.3843 409.437C19.9103 409.827 23.0838 407.293 23.4725 403.777C23.8613 400.262 21.318 397.096 17.7921 396.706C14.2661 396.316 11.0926 398.85 10.7039 402.366Z" fill="#F50057"/>
<path d="M19.6261 401.634C20.5029 403.172 21.7818 404.097 22.4826 403.7C23.1834 403.303 23.0407 401.734 22.1639 400.197C21.2871 398.659 20.0082 397.734 19.3074 398.131C18.6066 398.528 18.7492 400.096 19.6261 401.634Z" fill="white"/>
<path d="M177.704 444.366C177.315 447.881 179.858 451.047 183.384 451.437C186.91 451.827 190.084 449.293 190.473 445.777C190.861 442.262 188.318 439.096 184.792 438.706C181.266 438.316 178.093 440.85 177.704 444.366Z" fill="#4B5265"/>
<path d="M186.626 443.634C187.503 445.172 188.782 446.097 189.483 445.7C190.183 445.303 190.041 443.734 189.164 442.197C188.287 440.659 187.008 439.734 186.307 440.131C185.607 440.528 185.749 442.096 186.626 443.634Z" fill="white"/>
</svg>
