<svg width="1371" height="1208" viewBox="0 0 1371 1208" fill="none" xmlns="http://www.w3.org/2000/svg">
<g clip-path="url(#clip0_378:45)">
<path d="M1368.95 1004.43C1368.46 1116.21 1278.08 1206.75 1167.43 1206.27C1141.08 1206.17 1115 1200.83 1090.7 1190.54C1066.39 1180.25 1044.33 1165.22 1025.78 1146.31C1007.23 1127.4 992.549 1104.98 982.581 1080.34C972.612 1055.69 967.551 1029.3 967.686 1002.67C967.698 1000.44 968.585 998.313 970.15 996.745C971.715 995.178 973.832 994.301 976.036 994.308L1360.68 995.998C1362.88 996.01 1364.99 996.906 1366.54 998.487C1368.09 1000.07 1368.96 1002.21 1368.95 1004.43V1004.43ZM984.462 1011.14C984.965 1023.75 986.735 1036.28 989.745 1048.52L1346.47 1050.09C1349.61 1037.87 1351.49 1025.36 1352.1 1012.76L984.462 1011.14ZM1344.57 1057L991.592 1055.45C1002.67 1093.98 1025.79 1127.85 1057.5 1152C1089.2 1176.16 1127.79 1189.3 1167.5 1189.47C1250.87 1189.84 1321.7 1133.84 1344.57 1057Z" fill="#4B5265" fill-opacity="0.05"/>
<path d="M1109.83 1151.96C1091.1 1143.71 1074.48 1131.26 1061.21 1115.56C1060.62 1114.86 1059.78 1114.43 1058.87 1114.36C1057.97 1114.28 1057.07 1114.58 1056.38 1115.17C1055.69 1115.77 1055.26 1116.62 1055.19 1117.53C1055.12 1118.45 1055.41 1119.35 1056 1120.05C1069.96 1136.55 1087.44 1149.63 1107.14 1158.31C1107.56 1158.5 1108.02 1158.59 1108.49 1158.6C1109.28 1158.6 1110.04 1158.33 1110.66 1157.83C1111.27 1157.33 1111.7 1156.63 1111.86 1155.85C1112.02 1155.07 1111.91 1154.25 1111.55 1153.55C1111.18 1152.84 1110.59 1152.28 1109.86 1151.96L1109.83 1151.96Z" fill="#4B5265" fill-opacity="0.05"/>
<path d="M999.681 812.8C983.667 795.565 987.896 770.256 988.086 769.268C988.344 767.807 988.98 766.44 989.929 765.308C990.879 764.175 992.109 763.318 993.494 762.822C994.879 762.326 996.369 762.209 997.812 762.484C999.256 762.759 1000.6 763.416 1001.71 764.387L1038.07 796.179L1027.26 740.713C1026.97 739.234 1027.08 737.703 1027.58 736.282C1028.08 734.86 1028.94 733.601 1030.09 732.635C1031.24 731.67 1032.62 731.034 1034.09 730.795C1035.57 730.556 1037.08 730.722 1038.47 731.276C1039.56 731.706 1065.44 742.265 1072.54 767.288C1075.8 778.706 1074.61 790.954 1069.03 803.836C1076.16 802.739 1083.44 803.309 1090.32 805.5C1102.3 809.506 1111.46 818.677 1117.52 832.726C1119.36 837.125 1120.92 841.637 1122.2 846.236C1122.2 846.335 1122.26 846.444 1122.29 846.543C1131.29 878.145 1136.32 931.095 1135.2 958.918C1135.04 963.493 1133.59 967.928 1131.03 971.707C1128.48 975.486 1124.91 978.455 1120.75 980.269C1117.67 981.637 1114.33 982.339 1110.96 982.331C1105.26 982.3 1099.76 980.219 1095.45 976.462C1082.87 965.596 1065.62 947.347 1050.41 928.831C1038.63 914.47 1028.96 901.067 1022.44 890.069C1020.02 886.052 1017.85 881.884 1015.94 877.589C1009.87 863.55 1009.45 850.543 1014.69 838.935C1016.9 834.113 1019.94 829.724 1023.66 825.97C1013.8 823.752 1005.78 819.369 999.681 812.8ZM1055 825.89L1054.75 826.017L1054.45 826.164L1054.19 826.291L1054.11 826.291L1053.92 826.36L1053.59 826.487L1053.41 826.555C1053.08 826.662 1035.78 832.466 1029.77 845.968C1026.57 853.138 1027.02 861.283 1031.16 870.867C1032.36 873.578 1033.71 876.223 1035.19 878.79L1049.06 871.39C1049.46 871.162 1049.9 871.017 1050.35 870.964C1050.81 870.91 1051.27 870.949 1051.71 871.079C1052.15 871.209 1052.56 871.426 1052.91 871.719C1053.27 872.011 1053.56 872.372 1053.77 872.781C1053.99 873.19 1054.12 873.638 1054.16 874.099C1054.2 874.56 1054.14 875.024 1054 875.464C1053.86 875.904 1053.64 876.312 1053.34 876.661C1053.04 877.011 1052.67 877.297 1052.26 877.502L1038.72 884.725C1045.95 895.983 1053.85 906.783 1062.38 917.064L1089.05 904.799C1089.88 904.419 1090.82 904.386 1091.67 904.707C1092.52 905.029 1093.21 905.679 1093.59 906.514C1093.96 907.349 1094 908.301 1093.68 909.16C1093.36 910.02 1092.72 910.716 1091.89 911.097L1066.94 922.628C1080.56 938.865 1095.34 954.316 1106.23 963.722C1107.3 964.649 1108.61 965.253 1110 965.465C1111.39 965.676 1112.82 965.486 1114.11 964.917C1115.4 964.348 1116.5 963.423 1117.3 962.248C1118.09 961.072 1118.54 959.694 1118.6 958.272C1119.62 932.989 1115.33 885.991 1107.5 855.609L1080.89 867.538C1080.45 867.738 1079.97 867.84 1079.49 867.838C1078.71 867.835 1077.95 867.56 1077.34 867.061C1076.74 866.561 1076.32 865.866 1076.16 865.092C1076 864.319 1076.1 863.512 1076.46 862.808C1076.81 862.103 1077.4 861.543 1078.11 861.221L1105.63 848.881C1104.69 845.7 1103.58 842.574 1102.3 839.518C1098.15 829.934 1092.58 824.059 1085.18 821.556C1071.22 816.781 1055.17 825.733 1055 825.84L1055 825.89ZM1047.4 757.167L1054.76 794.889C1057.91 786.582 1058.54 778.956 1056.62 772.08C1054.9 766.362 1051.72 761.202 1047.4 757.117L1047.4 757.167ZM1005.65 790.068C1006.81 794.285 1008.94 798.163 1011.88 801.381C1015.77 805.568 1021.21 808.362 1028.2 809.763L1005.65 790.068Z" fill="#4B5265" fill-opacity="0.05"/>
<path d="M1219.07 854.725C1231.49 824.145 1259.45 804.099 1287.86 804.224L1288.65 804.227C1288.74 803.991 1288.84 803.744 1288.94 803.507C1294.59 789.727 1311.47 783.635 1326.65 789.927C1333.64 792.747 1339.4 798.003 1342.88 804.742C1344.63 808.039 1345.63 811.681 1345.83 815.412C1346.03 819.144 1345.41 822.874 1344.03 826.34C1342.88 829.187 1341.21 831.791 1339.11 834.016C1351.23 854.337 1352.86 881.678 1342.98 906.103C1330.55 936.682 1302.97 956.691 1274.41 956.615C1269.94 963.977 1261.57 968.219 1252.56 968.179C1248.73 968.157 1244.95 967.385 1241.42 965.907C1227.48 960.134 1220.33 945.062 1225.5 932.396C1225.64 932.051 1225.79 931.706 1225.95 931.361C1211.06 910.672 1208.25 881.349 1219.07 854.725ZM1242.48 925.307C1243.9 926.898 1244.66 928.979 1244.61 931.122C1244.56 933.265 1243.7 935.307 1242.2 936.828C1241.64 937.391 1241.2 938.061 1240.9 938.798C1239.25 942.853 1242.39 948.163 1247.7 950.39C1253.01 952.617 1258.99 951.062 1260.64 946.998C1260.75 946.692 1260.84 946.379 1260.91 946.061C1261.36 944.059 1262.53 942.294 1264.18 941.101C1265.84 939.908 1267.87 939.37 1269.89 939.588C1293.35 942.092 1317.02 925.703 1327.56 899.75C1336.46 877.89 1333.91 853.411 1321.1 837.396C1320.3 836.401 1319.74 835.236 1319.46 833.989C1319.17 832.742 1319.18 831.446 1319.47 830.201C1319.75 828.955 1320.32 827.792 1321.12 826.802C1321.92 825.811 1322.94 825.018 1324.09 824.483C1326.11 823.617 1327.72 822.005 1328.61 819.977C1329.05 818.744 1329.23 817.43 1329.13 816.122C1329.02 814.815 1328.65 813.544 1328.02 812.395C1326.35 809.214 1323.61 806.747 1320.29 805.443C1313.71 802.707 1306.38 804.73 1304.3 809.85C1303.9 810.861 1303.71 811.943 1303.74 813.029C1303.77 814.256 1303.53 815.474 1303.04 816.597C1302.55 817.72 1301.83 818.72 1300.91 819.529C1300 820.337 1298.92 820.933 1297.75 821.274C1296.59 821.616 1295.36 821.695 1294.16 821.506C1292 821.164 1289.82 820.989 1287.63 820.983C1265.9 820.887 1244.24 836.841 1234.4 861.068C1225.1 884.111 1228.26 909.314 1242.48 925.307Z" fill="#4B5265" fill-opacity="0.05"/>
<path d="M1252.96 914.384C1253.43 914.622 1253.94 914.746 1254.46 914.746C1255.24 914.746 1255.99 914.482 1256.59 913.998C1257.19 913.514 1257.62 912.838 1257.8 912.079C1257.97 911.32 1257.89 910.523 1257.56 909.817C1257.23 909.112 1256.68 908.539 1255.99 908.191C1251.37 905.862 1247.86 901.778 1246.22 896.834C1244.57 891.889 1244.94 886.489 1247.23 881.817C1247.62 880.997 1247.67 880.056 1247.38 879.198C1247.08 878.34 1246.46 877.634 1245.66 877.232C1244.85 876.83 1243.92 876.764 1243.07 877.05C1242.21 877.335 1241.51 877.948 1241.1 878.756C1239.56 881.888 1238.66 885.294 1238.43 888.78C1238.2 892.265 1238.65 895.762 1239.76 899.071C1240.87 902.379 1242.61 905.435 1244.89 908.062C1247.17 910.69 1249.94 912.838 1253.04 914.384L1252.96 914.384Z" fill="#4B5265" fill-opacity="0.05"/>
<path d="M1176.32 966.323C1176.3 969.481 1175.37 972.564 1173.62 975.182C1171.87 977.8 1169.4 979.837 1166.51 981.033C1163.61 982.23 1160.44 982.533 1157.37 981.904C1154.31 981.275 1151.5 979.742 1149.3 977.5C1147.1 975.258 1145.61 972.406 1145.02 969.307C1144.42 966.207 1144.75 962.999 1145.96 960.088C1147.17 957.176 1149.2 954.693 1151.81 952.951C1154.42 951.21 1157.48 950.288 1160.6 950.304C1164.79 950.33 1168.79 952.031 1171.73 955.033C1174.68 958.036 1176.33 962.096 1176.32 966.323ZM1169.47 966.293C1169.48 964.504 1168.96 962.754 1167.98 961.262C1167.01 959.771 1165.61 958.605 1163.98 957.914C1162.35 957.223 1160.55 957.036 1158.81 957.379C1157.07 957.721 1155.47 958.576 1154.22 959.836C1152.96 961.096 1152.1 962.704 1151.75 964.457C1151.4 966.21 1151.57 968.03 1152.24 969.685C1152.91 971.34 1154.05 972.756 1155.52 973.755C1156.99 974.754 1158.72 975.29 1160.49 975.296C1162.86 975.304 1165.14 974.36 1166.82 972.672C1168.51 970.984 1169.46 968.69 1169.47 966.293Z" fill="#4B5265" fill-opacity="0.05"/>
<path d="M1241.03 763.305C1241.04 759.619 1242.14 756.022 1244.18 752.966C1246.22 749.911 1249.11 747.534 1252.48 746.138C1255.86 744.742 1259.57 744.388 1263.14 745.121C1266.72 745.854 1270 747.642 1272.57 750.258C1275.14 752.873 1276.88 756.2 1277.58 759.817C1278.27 763.434 1277.9 767.179 1276.49 770.579C1275.08 773.979 1272.71 776.88 1269.67 778.917C1266.63 780.954 1263.06 782.035 1259.41 782.023C1254.52 782.001 1249.83 780.018 1246.38 776.508C1242.94 772.998 1241.01 768.249 1241.03 763.305ZM1247.87 763.335C1247.86 765.652 1248.53 767.921 1249.79 769.855C1251.06 771.789 1252.86 773.301 1254.97 774.199C1257.09 775.097 1259.42 775.342 1261.67 774.903C1263.92 774.463 1266 773.359 1267.63 771.729C1269.26 770.1 1270.37 768.018 1270.84 765.748C1271.3 763.477 1271.08 761.12 1270.21 758.974C1269.35 756.827 1267.87 754.989 1265.97 753.69C1264.07 752.391 1261.84 751.69 1259.54 751.676C1256.47 751.66 1253.51 752.879 1251.32 755.065C1249.13 757.251 1247.89 760.226 1247.87 763.335Z" fill="#4B5265" fill-opacity="0.05"/>
<path d="M973.904 916.349C973.92 912.372 975.103 908.489 977.303 905.191C979.504 901.894 982.623 899.33 986.266 897.824C989.91 896.318 993.913 895.938 997.77 896.731C1001.63 897.525 1005.16 899.457 1007.93 902.283C1010.7 905.109 1012.58 908.701 1013.33 912.606C1014.08 916.51 1013.66 920.551 1012.13 924.218C1010.61 927.884 1008.04 931.01 1004.76 933.201C1001.47 935.392 997.616 936.549 993.68 936.526C988.412 936.49 983.374 934.346 979.667 930.565C975.961 926.783 973.889 921.672 973.904 916.349ZM980.751 916.379C980.739 918.988 981.494 921.541 982.919 923.716C984.345 925.891 986.377 927.589 988.758 928.596C991.139 929.604 993.763 929.875 996.297 929.375C998.831 928.875 1001.16 927.627 1002.99 925.788C1004.82 923.949 1006.07 921.603 1006.59 919.046C1007.1 916.49 1006.85 913.837 1005.87 911.424C1004.88 909.012 1003.22 906.948 1001.07 905.493C998.93 904.039 996.408 903.26 993.826 903.254C990.372 903.249 987.056 904.628 984.605 907.088C982.155 909.548 980.768 912.889 980.751 916.379Z" fill="#4B5265" fill-opacity="0.05"/>
<path d="M1344.25 960.193C1344.24 962.408 1343.58 964.571 1342.35 966.408C1341.13 968.245 1339.39 969.674 1337.37 970.514C1335.34 971.354 1333.11 971.568 1330.96 971.127C1328.81 970.687 1326.84 969.613 1325.3 968.04C1323.75 966.468 1322.71 964.468 1322.29 962.294C1321.87 960.12 1322.1 957.87 1322.94 955.827C1323.79 953.784 1325.22 952.041 1327.05 950.818C1328.88 949.596 1331.02 948.948 1333.21 948.958C1336.15 948.973 1338.96 950.165 1341.03 952.271C1343.1 954.377 1344.25 957.226 1344.25 960.193ZM1337.4 960.163C1337.4 959.317 1337.16 958.488 1336.7 957.782C1336.23 957.077 1335.57 956.525 1334.8 956.198C1334.03 955.871 1333.18 955.782 1332.36 955.944C1331.53 956.105 1330.78 956.51 1330.18 957.105C1329.59 957.701 1329.18 958.462 1329.01 959.291C1328.85 960.121 1328.93 960.981 1329.24 961.765C1329.56 962.548 1330.1 963.218 1330.8 963.692C1331.49 964.165 1332.31 964.42 1333.14 964.423C1334.27 964.428 1335.35 963.982 1336.14 963.183C1336.94 962.384 1337.39 961.298 1337.4 960.163Z" fill="#4B5265" fill-opacity="0.05"/>
<path d="M1092.97 736.763C1092.98 734.548 1093.64 732.386 1094.86 730.55C1096.09 728.714 1097.83 727.286 1099.86 726.448C1101.89 725.61 1104.11 725.398 1106.26 725.841C1108.41 726.283 1110.38 727.359 1111.92 728.933C1113.47 730.506 1114.51 732.507 1114.93 734.681C1115.35 736.856 1115.11 739.106 1114.27 741.148C1113.42 743.19 1111.99 744.932 1110.16 746.153C1108.33 747.374 1106.18 748.02 1103.99 748.008C1101.05 747.99 1098.24 746.796 1096.18 744.688C1094.11 742.58 1092.96 739.73 1092.97 736.763ZM1099.81 736.793C1099.81 737.64 1100.06 738.469 1100.52 739.175C1100.98 739.881 1101.64 740.432 1102.41 740.759C1103.19 741.086 1104.04 741.174 1104.86 741.011C1105.68 740.849 1106.44 740.444 1107.03 739.847C1107.63 739.25 1108.03 738.489 1108.2 737.659C1108.37 736.829 1108.28 735.968 1107.97 735.185C1107.65 734.402 1107.11 733.732 1106.41 733.259C1105.71 732.787 1104.9 732.535 1104.06 732.533C1102.94 732.531 1101.86 732.978 1101.06 733.776C1100.27 734.575 1099.82 735.66 1099.81 736.793Z" fill="#4B5265" fill-opacity="0.05"/>
<path d="M1158.7 859.006C1143.75 838.84 1127.46 807.887 1135.23 775.014C1141.67 747.531 1163.69 724.217 1200.65 705.712C1201.65 705.217 1202.73 704.927 1203.84 704.86C1204.94 704.793 1206.05 704.951 1207.1 705.324C1208.15 705.697 1209.11 706.277 1209.93 707.031C1210.75 707.785 1211.41 708.698 1211.88 709.714C1222.54 732.885 1231.92 755.784 1229.17 781.119C1226.05 810.139 1207.14 836.737 1171.34 862.441C1170.66 862.929 1169.91 863.309 1169.12 863.568C1170.23 881.933 1173.75 897.661 1179.43 909.446C1179.63 909.854 1179.75 910.298 1179.77 910.751C1179.8 911.205 1179.74 911.66 1179.59 912.089C1179.45 912.519 1179.22 912.916 1178.92 913.256C1178.62 913.596 1178.26 913.874 1177.86 914.073C1177.38 914.303 1176.86 914.422 1176.34 914.422C1175.7 914.419 1175.08 914.235 1174.53 913.893C1173.99 913.55 1173.56 913.061 1173.28 912.482C1167.08 899.608 1163.3 882.565 1162.2 862.756C1161.33 862.223 1160.56 861.529 1159.94 860.711C1159.53 860.175 1159.1 859.61 1158.67 859.025L1158.7 859.006ZM1162.47 834.396C1164.11 810.4 1169.26 786.706 1176.83 769.495C1177.01 769.072 1177.26 768.688 1177.59 768.367C1177.92 768.046 1178.3 767.793 1178.72 767.624C1179.15 767.455 1179.6 767.373 1180.05 767.382C1180.51 767.392 1180.96 767.492 1181.37 767.679C1181.79 767.865 1182.16 768.133 1182.47 768.467C1182.79 768.802 1183.03 769.195 1183.19 769.625C1183.35 770.056 1183.42 770.514 1183.4 770.973C1183.39 771.432 1183.28 771.883 1183.09 772.299C1174.93 790.881 1169.69 817.362 1168.87 843.387C1195.94 822.398 1210.29 801.393 1212.67 779.287C1214.64 760.935 1208.44 742.962 1200.42 724.774C1172.7 740.137 1156.21 758.317 1151.38 778.909C1146.69 798.791 1153.41 818.496 1162.47 834.396Z" fill="#4B5265" fill-opacity="0.05"/>
</g>
<g clip-path="url(#clip1_378:45)">
<path d="M402.975 301.434C402.484 413.208 312.106 503.755 201.452 503.269C175.099 503.171 149.025 497.825 124.719 487.537C100.414 477.249 78.355 462.221 59.8037 443.312C41.2523 424.402 26.5727 401.983 16.6045 377.336C6.63618 352.689 1.57484 326.297 1.70983 299.671C1.72218 297.444 2.60826 295.313 4.17366 293.745C5.73904 292.178 7.85595 291.301 10.06 291.308L394.699 292.998C396.903 293.01 399.012 293.906 400.564 295.487C402.115 297.069 402.983 299.207 402.975 301.434V301.434ZM18.4852 308.145C18.9888 320.752 20.7591 333.276 23.7687 345.522L380.495 347.089C383.63 334.873 385.517 322.365 386.126 309.76L18.4852 308.145ZM378.596 353.998L25.6161 352.447C36.6969 390.975 59.8164 424.846 91.5214 449.002C123.227 473.157 161.816 486.301 201.526 486.469C284.893 486.836 355.725 430.839 378.596 353.998Z" fill="#4B5265" fill-opacity="0.05"/>
<path d="M143.849 448.962C125.124 440.705 108.5 428.258 95.2337 412.56C94.6441 411.862 93.804 411.428 92.8982 411.356C91.9924 411.283 91.0952 411.577 90.4039 412.173C89.7126 412.769 89.2838 413.618 89.2119 414.533C89.14 415.448 89.4309 416.355 90.0206 417.053C103.983 433.551 121.469 446.633 141.161 455.314C141.587 455.498 142.046 455.594 142.509 455.596C143.299 455.602 144.066 455.331 144.681 454.83C145.296 454.329 145.72 453.629 145.883 452.848C146.045 452.067 145.935 451.254 145.571 450.545C145.208 449.837 144.613 449.278 143.888 448.962L143.849 448.962Z" fill="#4B5265" fill-opacity="0.05"/>
<path d="M33.7044 109.8C17.6913 92.5648 21.9201 67.2558 22.1102 66.2684C22.3674 64.8069 23.0034 63.4404 23.9533 62.3079C24.9032 61.1755 26.1331 60.3176 27.5178 59.8215C28.9025 59.3255 30.3926 59.2091 31.8362 59.4841C33.2799 59.7591 34.6256 60.4158 35.7363 61.3873L72.0974 93.1794L61.2794 37.7135C60.9907 36.2339 61.1017 34.703 61.6006 33.2816C62.0995 31.8602 62.9679 30.6007 64.1147 29.6353C65.2614 28.67 66.6443 28.0343 68.118 27.7951C69.5917 27.5559 71.1019 27.722 72.4901 28.276C73.5837 28.7057 99.4653 39.2647 106.564 64.2875C109.819 75.7057 108.631 87.9542 103.058 100.836C110.186 99.7394 117.467 100.309 124.343 102.5C136.326 106.506 145.479 115.677 151.54 129.726C153.382 134.125 154.946 138.637 156.224 143.236C156.224 143.335 156.282 143.444 156.311 143.543C165.317 175.145 170.346 228.095 169.226 255.918C169.062 260.493 167.617 264.928 165.059 268.707C162.501 272.486 158.935 275.455 154.775 277.269C151.689 278.637 148.355 279.339 144.985 279.331C139.287 279.3 133.787 277.219 129.47 273.462C116.891 262.596 99.6401 244.347 84.4346 225.831C72.6535 211.47 62.9808 198.067 56.4664 187.069C54.0413 183.052 51.8709 178.884 49.9683 174.589C43.8977 160.55 43.4756 147.543 48.7102 135.935C50.9234 131.113 53.9623 126.724 57.687 122.97C47.8282 120.752 39.8079 116.369 33.7044 109.8ZM89.024 122.89L88.7691 123.017L88.4751 123.164L88.2104 123.291L88.1322 123.291L87.9461 123.36L87.613 123.487L87.4366 123.555C87.1036 123.662 69.8058 129.466 63.7902 142.968C60.5898 150.138 61.043 158.283 65.187 167.867C66.3885 170.578 67.7317 173.223 69.211 175.79L83.0829 168.39C83.4813 168.162 83.9209 168.017 84.3757 167.964C84.8305 167.91 85.2913 167.949 85.7308 168.079C86.1703 168.209 86.5796 168.426 86.9344 168.719C87.2893 169.011 87.5824 169.372 87.7966 169.781C88.0107 170.19 88.1415 170.638 88.1812 171.099C88.2208 171.56 88.1686 172.024 88.0276 172.464C87.8865 172.904 87.6595 173.312 87.3599 173.661C87.0604 174.011 86.6944 174.297 86.2836 174.502L72.7451 181.725C79.9722 192.983 87.8748 203.783 96.4087 214.064L123.075 201.799C123.902 201.419 124.844 201.386 125.695 201.707C126.545 202.029 127.234 202.679 127.611 203.514C127.987 204.349 128.02 205.301 127.701 206.16C127.383 207.02 126.74 207.716 125.913 208.097L100.961 219.628C114.583 235.865 129.362 251.316 140.255 260.722C141.324 261.649 142.629 262.253 144.022 262.465C145.415 262.676 146.839 262.486 148.13 261.917C149.421 261.348 150.528 260.423 151.322 259.248C152.117 258.072 152.567 256.694 152.622 255.272C153.643 229.989 149.35 182.991 141.522 152.609L114.916 164.538C114.476 164.738 113.998 164.84 113.516 164.838C112.733 164.835 111.975 164.56 111.368 164.061C110.762 163.561 110.343 162.866 110.181 162.092C110.02 161.319 110.126 160.512 110.482 159.808C110.838 159.103 111.422 158.543 112.136 158.221L139.654 145.881C138.715 142.7 137.603 139.574 136.321 136.518C132.177 126.934 126.609 121.059 119.206 118.556C105.241 113.781 89.191 122.733 89.0242 122.84L89.024 122.89ZM81.4233 54.1666L88.7885 91.889C91.9352 83.5821 92.5653 75.956 90.6394 69.0795C88.9194 63.3616 85.7411 58.2016 81.4235 54.1172L81.4233 54.1666ZM39.6726 87.0682C40.8312 91.2851 42.9665 95.1628 45.902 98.3808C49.7958 102.568 55.2377 105.362 62.2279 106.763L39.6726 87.0682Z" fill="#4B5265" fill-opacity="0.05"/>
<path d="M253.092 151.725C265.511 121.145 293.473 101.099 321.885 101.224L322.677 101.227C322.766 100.991 322.865 100.744 322.964 100.507C328.609 86.7268 345.497 80.6347 360.678 86.927C367.667 89.7468 373.424 95.0027 376.907 101.742C378.649 105.039 379.655 108.681 379.853 112.412C380.051 116.144 379.437 119.874 378.055 123.34C376.904 126.187 375.233 128.791 373.131 131.016C385.257 151.337 386.888 178.678 377 203.103C364.572 233.682 336.991 253.691 308.432 253.615C303.959 260.977 295.598 265.219 286.581 265.179C282.757 265.157 278.974 264.385 275.441 262.907C261.5 257.134 254.358 242.062 259.519 229.396C259.667 229.051 259.815 228.706 259.973 228.361C245.08 207.672 242.275 178.349 253.092 151.725ZM276.5 222.307C277.921 223.898 278.684 225.979 278.633 228.122C278.582 230.265 277.72 232.307 276.224 233.828C275.666 234.391 275.224 235.061 274.924 235.798C273.273 239.853 276.409 245.163 281.72 247.39C287.03 249.617 293.013 248.062 294.664 243.998C294.775 243.692 294.865 243.379 294.933 243.061C295.386 241.059 296.55 239.294 298.204 238.101C299.859 236.908 301.889 236.37 303.91 236.588C327.372 239.092 351.045 222.703 361.585 196.75C370.483 174.89 367.93 150.411 355.12 134.396C354.324 133.401 353.763 132.236 353.481 130.989C353.198 129.742 353.201 128.446 353.49 127.201C353.778 125.955 354.345 124.792 355.145 123.802C355.946 122.811 356.96 122.018 358.111 121.483C360.13 120.617 361.746 119.005 362.629 116.977C363.072 115.744 363.249 114.43 363.149 113.122C363.048 111.815 362.672 110.544 362.047 109.395C360.378 106.214 357.632 103.747 354.311 102.443C347.731 99.7069 340.407 101.73 338.321 106.85C337.924 107.861 337.736 108.943 337.769 110.029C337.796 111.256 337.556 112.474 337.067 113.597C336.577 114.72 335.85 115.72 334.936 116.529C334.023 117.337 332.945 117.933 331.778 118.274C330.612 118.616 329.385 118.695 328.186 118.506C326.025 118.164 323.842 117.989 321.655 117.983C299.923 117.887 278.267 133.841 268.419 158.068C259.125 181.111 262.28 206.314 276.5 222.307Z" fill="#4B5265" fill-opacity="0.05"/>
<path d="M286.984 211.384C287.45 211.622 287.966 211.746 288.488 211.746C289.26 211.746 290.009 211.483 290.614 210.998C291.218 210.514 291.644 209.838 291.82 209.079C291.997 208.32 291.914 207.523 291.587 206.817C291.259 206.112 290.704 205.539 290.014 205.191C285.396 202.863 281.88 198.778 280.239 193.834C278.598 188.89 278.964 183.489 281.259 178.817C281.644 177.997 281.695 177.056 281.4 176.198C281.105 175.34 280.488 174.634 279.682 174.232C278.876 173.83 277.945 173.765 277.092 174.05C276.238 174.335 275.53 174.948 275.12 175.757C273.588 178.888 272.681 182.294 272.452 185.78C272.223 189.265 272.676 192.762 273.785 196.071C274.894 199.38 276.638 202.435 278.916 205.062C281.194 207.69 283.962 209.838 287.062 211.384L286.984 211.384Z" fill="#4B5265" fill-opacity="0.05"/>
<path d="M210.341 263.323C210.329 266.481 209.39 269.564 207.644 272.182C205.897 274.8 203.421 276.837 200.529 278.033C197.638 279.23 194.459 279.533 191.397 278.904C188.335 278.275 185.526 276.742 183.326 274.5C181.126 272.258 179.634 269.406 179.039 266.307C178.443 263.207 178.771 259.999 179.981 257.088C181.19 254.176 183.227 251.693 185.834 249.951C188.441 248.21 191.5 247.288 194.625 247.304C198.809 247.33 202.812 249.031 205.758 252.033C208.704 255.036 210.352 259.096 210.341 263.323ZM203.494 263.293C203.502 261.504 202.985 259.754 202.007 258.262C201.03 256.771 199.637 255.605 198.004 254.914C196.371 254.223 194.572 254.036 192.835 254.379C191.097 254.721 189.498 255.576 188.242 256.836C186.985 258.096 186.126 259.704 185.774 261.457C185.422 263.21 185.593 265.03 186.265 266.685C186.936 268.34 188.079 269.756 189.547 270.755C191.016 271.754 192.745 272.29 194.515 272.296C196.887 272.304 199.165 271.36 200.849 269.672C202.532 267.984 203.484 265.69 203.494 263.293Z" fill="#4B5265" fill-opacity="0.05"/>
<path d="M275.05 60.3046C275.066 56.6194 276.164 53.0216 278.203 49.9661C280.242 46.9106 283.133 44.5345 286.508 43.1381C289.884 41.7417 293.593 41.3878 297.167 42.121C300.742 42.8542 304.021 44.6417 306.59 47.2575C309.159 49.8733 310.903 53.2 311.601 56.8171C312.299 60.4342 311.92 64.1793 310.512 67.579C309.104 70.9787 306.73 73.8804 303.69 75.9174C300.65 77.9543 297.081 79.035 293.433 79.0229C288.54 79.0014 283.854 77.0178 280.408 73.5081C276.961 69.9983 275.034 65.2493 275.05 60.3046ZM281.896 60.3347C281.884 62.6522 282.552 64.9213 283.817 66.8551C285.081 68.7889 286.884 70.3005 288.998 71.199C291.112 72.0974 293.443 72.3423 295.695 71.9027C297.947 71.4631 300.02 70.3587 301.651 68.7292C303.282 67.0996 304.399 65.0181 304.859 62.7477C305.32 60.4773 305.104 58.1199 304.238 55.9736C303.373 53.8274 301.898 51.9885 299.998 50.6895C298.099 49.3906 295.861 48.6898 293.567 48.6758C290.49 48.6596 287.532 49.8786 285.343 52.0648C283.155 54.251 281.915 57.2255 281.896 60.3347Z" fill="#4B5265" fill-opacity="0.05"/>
<path d="M7.92818 213.349C7.94372 209.372 9.12662 205.489 11.3272 202.192C13.5277 198.894 16.647 196.33 20.2902 194.824C23.9334 193.318 27.9368 192.938 31.7937 193.732C35.6506 194.525 39.1876 196.457 41.9572 199.283C44.7267 202.109 46.6043 205.702 47.3522 209.606C48.1001 213.511 47.6848 217.552 46.1588 221.218C44.6328 224.884 42.0647 228.01 38.7795 230.201C35.4943 232.393 31.6398 233.55 27.7037 233.527C22.4361 233.49 17.3976 231.347 13.6912 227.565C9.98478 223.783 7.91254 218.672 7.92818 213.349ZM14.7744 213.38C14.7629 215.988 15.5177 218.541 16.943 220.716C18.3684 222.891 20.4004 224.589 22.7817 225.597C25.163 226.604 27.7867 226.875 30.3206 226.375C32.8545 225.875 35.1847 224.627 37.0163 222.788C38.8479 220.95 40.0985 218.604 40.6098 216.047C41.1212 213.49 40.8703 210.837 39.8888 208.425C38.9074 206.012 37.2397 203.948 35.0966 202.493C32.9535 201.039 30.4316 200.26 27.8499 200.254C24.3954 200.25 21.0798 201.628 18.6291 204.088C16.1784 206.548 14.7923 209.889 14.7744 213.38Z" fill="#4B5265" fill-opacity="0.05"/>
<path d="M378.269 257.193C378.261 259.408 377.603 261.571 376.379 263.408C375.154 265.245 373.418 266.674 371.389 267.514C369.361 268.354 367.132 268.568 364.983 268.127C362.835 267.687 360.864 266.613 359.32 265.04C357.776 263.468 356.729 261.468 356.31 259.294C355.891 257.12 356.12 254.87 356.967 252.827C357.815 250.784 359.243 249.041 361.071 247.818C362.899 246.596 365.044 245.948 367.237 245.958C370.173 245.973 372.983 247.165 375.052 249.271C377.12 251.377 378.277 254.226 378.269 257.193ZM371.422 257.163C371.426 256.317 371.181 255.488 370.719 254.782C370.257 254.077 369.598 253.525 368.825 253.198C368.053 252.871 367.202 252.782 366.38 252.944C365.557 253.105 364.801 253.51 364.206 254.105C363.611 254.701 363.205 255.462 363.038 256.291C362.87 257.121 362.951 257.981 363.268 258.765C363.585 259.548 364.125 260.218 364.819 260.692C365.513 261.165 366.331 261.42 367.169 261.423C368.292 261.428 369.371 260.982 370.169 260.183C370.966 259.384 371.417 258.298 371.422 257.163Z" fill="#4B5265" fill-opacity="0.05"/>
<path d="M126.991 33.7631C127.001 31.5483 127.661 29.386 128.887 27.5499C130.113 25.7138 131.851 24.2863 133.88 23.4481C135.909 22.6098 138.139 22.3985 140.287 22.8408C142.434 23.283 144.404 24.359 145.947 25.9327C147.489 27.5063 148.535 29.5069 148.952 31.6813C149.369 33.8557 149.138 36.1063 148.289 38.1483C147.44 40.1903 146.01 41.9321 144.181 43.1531C142.352 44.3742 140.206 45.0198 138.014 45.0082C135.077 44.9901 132.268 43.7961 130.202 41.6881C128.135 39.5801 126.981 36.7301 126.991 33.7631ZM133.838 33.7932C133.834 34.6399 134.079 35.4687 134.542 36.1746C135.004 36.8806 135.664 37.4319 136.437 37.7589C137.21 38.0858 138.062 38.1738 138.884 38.0115C139.707 37.8492 140.463 37.444 141.058 36.8471C141.652 36.2503 142.058 35.4887 142.224 34.6588C142.39 33.8288 142.308 32.9678 141.99 32.1846C141.671 31.4015 141.13 30.7315 140.434 30.2595C139.738 29.7874 138.92 29.5345 138.082 29.5328C136.96 29.5305 135.884 29.9778 135.088 30.7764C134.292 31.5751 133.843 32.6601 133.838 33.7932Z" fill="#4B5265" fill-opacity="0.05"/>
<path d="M192.728 156.006C177.774 135.84 161.489 104.887 169.252 72.014C175.691 44.5308 197.712 21.217 234.675 2.71228C235.67 2.21654 236.753 1.92681 237.861 1.86015C238.968 1.79349 240.078 1.95124 241.124 2.32412C242.171 2.69699 243.133 3.27748 243.954 4.03143C244.775 4.78539 245.438 5.6976 245.905 6.71443C256.562 29.8852 265.948 52.7836 263.196 78.1188C260.076 107.139 241.161 133.737 205.369 159.441C204.688 159.929 203.938 160.309 203.144 160.568C204.256 178.933 207.777 194.661 213.456 206.446C213.654 206.854 213.77 207.298 213.797 207.751C213.825 208.205 213.764 208.66 213.618 209.089C213.471 209.519 213.243 209.916 212.945 210.256C212.647 210.596 212.285 210.874 211.881 211.073C211.407 211.303 210.888 211.422 210.363 211.422C209.725 211.419 209.1 211.235 208.559 210.893C208.018 210.55 207.582 210.061 207.301 209.482C201.107 196.608 197.319 179.565 196.223 159.756C195.35 159.223 194.583 158.529 193.963 157.711C193.554 157.175 193.126 156.61 192.699 156.025L192.728 156.006ZM196.494 131.396C198.135 107.4 203.286 83.7058 210.853 66.4949C211.03 66.0717 211.289 65.6883 211.614 65.3671C211.939 65.0459 212.324 64.7934 212.747 64.6244C213.17 64.4553 213.622 64.373 214.076 64.3823C214.531 64.3917 214.979 64.4924 215.395 64.6787C215.811 64.865 216.185 65.1331 216.497 65.4673C216.809 65.8015 217.052 66.1952 217.212 66.6254C217.371 67.0555 217.445 67.5135 217.427 67.9726C217.41 68.4317 217.302 68.8827 217.11 69.2992C208.95 87.8811 203.718 114.362 202.89 140.387C229.967 119.398 244.319 98.3929 246.695 76.2873C248.663 57.9352 242.463 39.9622 234.445 21.7737C206.728 37.137 190.236 55.3167 185.402 75.9093C180.718 95.7912 187.429 115.496 196.494 131.396Z" fill="#4B5265" fill-opacity="0.05"/>
</g>
<defs>
<clipPath id="clip0_378:45">
<rect width="401.269" height="501.587" fill="white" transform="matrix(0.99998 0.00634563 0.00634563 -0.99998 966.308 1205)"/>
</clipPath>
<clipPath id="clip1_378:45">
<rect width="401.269" height="501.587" fill="white" transform="matrix(0.99998 0.00634563 0.00634563 -0.99998 0.331787 502)"/>
</clipPath>
</defs>
</svg>
