<svg width="984" height="358" viewBox="0 0 984 358" fill="none" xmlns="http://www.w3.org/2000/svg">
<path d="M954.084 46.8461C954.084 46.8461 948.209 44.7319 944.433 53.1886C940.657 61.6453 934.783 70.9477 934.783 70.9477L938.139 71.7934C938.139 71.7934 938.978 65.8737 941.076 65.028L940.237 72.639C940.237 72.639 965.412 81.5186 976.741 71.7934L976.322 68.8335C976.322 68.8335 978 69.2564 978 71.7934L979.259 70.5249C979.259 70.5249 978 67.9879 974.224 64.6052C971.745 62.3849 970.893 58.1609 970.601 55.52C970.381 53.3148 969.506 51.2279 968.089 49.533C965.579 46.6021 961.007 43.4869 954.084 46.8461Z" fill="#4B5265"/>
<path d="M947.888 80.0025L941.803 72.3385L937.24 56.6272L954.732 37.8502C954.732 37.8502 958.535 23.2885 955.113 24.055C951.69 24.8214 950.93 35.551 950.93 35.551L928.875 52.7951C928.875 52.7951 931.156 76.9369 937.621 85.3674L942.564 101.079L947.888 80.0025Z" fill="#CCA1A7"/>
<path d="M964.619 80.0025L970.703 72.3385L975.266 56.6272L957.774 37.8502C957.774 37.8502 953.972 23.2885 957.394 24.055C960.816 24.8214 961.577 35.551 961.577 35.551L983.632 52.7951C983.632 52.7951 981.35 76.9369 974.886 85.3674L969.942 101.079L964.619 80.0025Z" fill="#CCA1A7"/>
<path d="M956.253 73.4881C961.714 73.4881 966.14 69.0274 966.14 63.5248C966.14 58.0222 961.714 53.5615 956.253 53.5615C950.793 53.5615 946.367 58.0222 946.367 63.5248C946.367 69.0274 950.793 73.4881 956.253 73.4881Z" fill="#CCA1A7"/>
<path d="M951.69 68.8896C951.69 68.8896 952.07 76.9369 949.789 79.6193C947.507 82.3018 945.226 96.097 956.253 96.4802C967.281 96.8634 966.14 84.9842 966.14 84.9842L963.858 78.4697C963.858 78.4697 960.436 73.4881 961.577 68.8896H951.69Z" fill="#CCA1A7"/>
<path d="M941.423 158.176L949.599 160.667C949.599 160.667 956.253 156.643 956.253 160.475C956.253 164.307 953.972 169.289 954.732 172.737C955.493 176.186 957.014 184.617 954.732 184.617C952.451 184.617 947.888 169.672 947.888 169.672L940.282 165.457L941.423 158.176Z" fill="#CCA1A7"/>
<path d="M951.69 211.824L948.648 223.704C948.648 223.704 945.986 227.152 948.648 228.685C949.897 229.404 950.811 230.883 951.43 232.25C951.969 233.481 952.871 234.515 954.013 235.212C955.156 235.908 956.484 236.234 957.816 236.143C959.114 236.035 960.207 235.518 960.473 234.174C960.547 233.752 960.532 233.32 960.431 232.904C960.33 232.488 960.143 232.098 959.884 231.759C957.079 227.939 956.443 225.428 956.443 225.428L957.584 212.016L951.69 211.824Z" fill="#CCA1A7"/>
<path d="M944.327 65.2942C944.327 65.2942 947.684 60.643 950.621 59.7974C953.558 58.9517 953.977 54.7233 953.977 54.7233C953.977 54.7233 961.53 63.18 966.145 63.6029C970.761 64.0257 966.565 53.4548 966.565 53.4548L958.173 51.3406L950.201 52.1863L943.907 56.4147L944.327 65.2942Z" fill="#4B5265"/>
<path d="M938.001 129.052L936.48 132.118C936.48 132.118 899.595 143.997 902.637 155.11C905.679 166.223 922.79 163.157 922.79 163.157L941.803 166.606L943.705 158.176L930.396 154.727L953.211 146.296L953.972 185.383L950.93 213.357L958.535 214.123C958.535 214.123 966.9 188.449 965.76 177.719C965.76 177.719 979.829 134.034 971.844 127.52C963.858 121.005 938.001 129.052 938.001 129.052Z" fill="#4B5265"/>
<path d="M956.699 84.9893L950.766 77.763L946.747 79.6192L942.564 93.0313C942.564 93.0313 939.142 99.5457 943.325 106.443C943.325 106.443 944.085 111.042 942.944 112.191C941.803 113.341 941.423 120.622 941.423 120.622L936.48 130.202C936.48 130.202 964.619 135.184 972.985 128.286C972.985 128.286 968.595 111.976 971.257 106.995C973.919 102.013 974.299 94.3761 971.257 90.9273C968.215 87.4785 964.999 78.4696 964.999 78.4696L963.158 77.2827L956.699 84.9893Z" fill="#FF0B63"/>
<path d="M978.882 27.7763H975.235V24.101H974.904V27.7763H971.257V28.1102H974.904V31.7854H975.235V28.1102H978.882V27.7763Z" fill="#CFCCE0"/>
<path d="M944.221 20.0919H940.574V16.4167H940.243V20.0919H936.596V20.4259H940.243V24.1011H940.574V20.4259H944.221V20.0919Z" fill="#CFCCE0"/>
<path d="M960.858 3.67523H957.212V0H956.88V3.67523H953.233V4.00917H956.88V7.6844H957.212V4.00917H960.858V3.67523Z" fill="#CFCCE0"/>
<path d="M42.9921 186.746C42.9921 186.746 47.4691 179.401 53.217 183.743C58.9648 188.086 69.6095 195.414 69.6095 195.414C69.6095 195.414 71.7897 200.101 66.1468 198.34C60.5039 196.58 42.0828 193.747 42.0828 193.747L42.9921 186.746Z" fill="#CCA1A7"/>
<path d="M20.9985 195.875C16.1814 195.875 11.7714 195.413 8.26755 194.322C4.10276 193.025 1.48773 190.928 0.494209 188.084C0.0273498 186.877 -0.112058 185.567 0.0901161 184.289C0.29229 183.01 0.828864 181.808 1.64546 180.803C7.80664 172.775 29.187 170.511 32.0557 170.243L37.8757 159.223C38.248 156.593 36.4862 154.603 39.5302 154.553L75.5382 154.064C78.5276 154.001 77.6792 155.852 78.1911 158.416L83.6771 168.209L60.066 178.174L63.6359 186.873L63.4029 187.008C56.4926 191.017 36.6198 195.874 20.9985 195.875Z" fill="#4B5265"/>
<path d="M80.4084 168.627C80.4084 168.627 113.383 164.854 111.232 179.948C109.082 195.042 83.9926 205.734 46.0004 179.948L50.3014 172.401C50.3014 172.401 64.4589 171.697 73.0609 167.923L80.4084 168.627Z" fill="#4B5265"/>
<path d="M33.7252 100.245C33.7252 100.245 27.458 99.1056 25.7488 108.791C24.0395 118.477 21.3016 141.42 21.3016 141.42L12.8004 170.891C11.7977 171.423 10.9672 172.23 10.4058 173.217C9.84439 174.203 9.57532 175.329 9.62999 176.463C9.68465 177.597 10.0608 178.692 10.7145 179.62C11.3682 180.548 12.2725 181.271 13.3217 181.704C14.3709 182.138 15.5218 182.264 16.6399 182.067C17.758 181.871 18.7971 181.361 19.636 180.596C20.4748 179.831 21.0787 178.843 21.3772 177.748C21.6757 176.653 21.6563 175.495 21.3215 174.41L32.6965 143.131L34.8647 116.2V102.089C34.8647 101.706 34.7581 101.331 34.5568 101.005C34.3556 100.679 34.0676 100.416 33.7252 100.245Z" fill="#CCA1A7"/>
<path d="M77.8389 100.245C77.8389 100.245 84.1061 99.1056 85.8154 108.791C87.5246 118.477 90.2626 141.42 90.2626 141.42L98.7637 170.891C99.7664 171.423 100.597 172.23 101.158 173.217C101.72 174.203 101.989 175.329 101.934 176.463C101.879 177.597 101.503 178.692 100.85 179.62C100.196 180.548 99.2916 181.271 98.2424 181.704C97.1932 182.138 96.0423 182.264 94.9242 182.067C93.8062 181.871 92.767 181.361 91.9282 180.596C91.0893 179.831 90.4854 178.843 90.1869 177.748C89.8885 176.653 89.9078 175.495 90.2426 174.41L78.8677 143.131L76.6995 116.2V102.089C76.6995 101.706 76.8061 101.331 77.0073 101.005C77.2086 100.679 77.4965 100.416 77.8389 100.245Z" fill="#CCA1A7"/>
<path d="M77.3612 92.2391L65.5067 87.8053L42.5292 87.5088L32.6387 92.2391L35.4166 108.204C35.4166 108.204 29.8079 117.701 35.9832 127.199L37.3689 161.043C37.3689 161.043 59.5221 173.889 78.2213 158.463L73.995 126.996C73.995 126.996 81.064 112.397 75.5847 106.973L77.3612 92.2391Z" fill="#FF0B63"/>
<path d="M72.5328 97.2002L77.3612 92.239C77.3612 92.239 87.8988 97.7818 87.6818 116.32L74.3891 112.224L72.5328 97.2002Z" fill="#FF0B63"/>
<path d="M38.0026 97.2002L32.8728 92.0703C32.8728 92.0703 23.8211 99.0718 24.0381 117.61L36.1464 112.224L38.0026 97.2002Z" fill="#FF0B63"/>
<path d="M71.4427 183.078C71.4427 183.078 67.7503 175.309 61.5837 179.033C55.417 182.758 44.0709 188.944 44.0709 188.944C44.0709 188.944 41.417 193.38 47.2119 192.213C53.0068 191.046 71.6223 190.136 71.6223 190.136L71.4427 183.078Z" fill="#CCA1A7"/>
<path d="M61.1842 44.1981C61.2364 44.148 61.291 44.103 61.3424 44.0516C64.6421 40.7519 65.3109 36.0708 62.836 33.596C60.4973 31.2572 56.1896 31.7292 52.9381 34.5728C50.1501 31.9185 46.4119 31.1786 43.9922 33.0109C41.202 35.1237 41.2237 39.8523 44.041 43.5726C44.2339 43.8273 44.4364 44.0682 44.6442 44.2999C40.8952 45.6722 37.6583 48.163 35.3714 51.4354C33.0845 54.7078 31.8581 58.6037 31.8582 62.5959V81.1386C31.8582 81.6823 31.9652 82.2208 32.1733 82.7231C32.3814 83.2255 32.6864 83.6819 33.0709 84.0664C33.4554 84.4509 33.9118 84.7558 34.4142 84.9639C34.9165 85.172 35.455 85.2791 35.9987 85.2791H70.2697C71.331 85.2791 72.3488 84.8575 73.0992 84.107C73.8497 83.3566 74.2713 82.3388 74.2713 81.2775V62.5959C74.2707 58.55 73.0102 54.6046 70.665 51.3076C68.3198 48.0107 65.0061 45.5259 61.1842 44.1981Z" fill="#4B5265"/>
<path d="M65.1055 78.6659C71.4564 72.315 71.4564 62.018 65.1055 55.6671C58.7546 49.3161 48.4576 49.3162 42.1067 55.6671C35.7558 62.018 35.7558 72.315 42.1067 78.6659C48.4576 85.0168 58.7546 85.0168 65.1055 78.6659Z" fill="#CCA1A7"/>
<path d="M36.5179 56.9373C40.2342 59.4987 44.6451 60.8619 49.1584 60.8438C47.5485 61.9601 45.7156 62.7142 43.7862 63.054C49.7871 64.3412 55.989 64.3761 62.004 63.1564C63.341 62.942 64.6311 62.4989 65.8177 61.8465C66.409 61.5163 66.9242 61.0653 67.3298 60.5229C67.7354 59.9805 68.0222 59.3588 68.1718 58.6983C68.5714 56.4149 66.7922 54.3404 64.9432 52.9423C62.1122 50.8344 58.8481 49.3821 55.387 48.6905C51.9259 47.9988 48.3543 48.0852 44.9307 48.9432C42.6951 49.5211 40.4556 50.4974 39.0036 52.2927C37.5516 54.088 37.1214 56.8558 38.5049 58.7045L36.5179 56.9373Z" fill="#4B5265"/>
<path d="M498.132 151.232C498.132 151.232 500.182 160.692 493.211 164.394C493.211 164.394 494.851 185.371 505.514 185.782C516.176 186.193 516.176 174.677 516.176 174.677L514.536 168.507C514.536 168.507 506.744 163.983 511.665 155.345L498.132 151.232Z" fill="#CCA1A7"/>
<path d="M506.949 156.373C517.594 156.373 526.224 147.718 526.224 137.042C526.224 126.365 517.594 117.71 506.949 117.71C496.304 117.71 487.674 126.365 487.674 137.042C487.674 147.718 496.304 156.373 506.949 156.373Z" fill="#4B5265"/>
<path d="M486.649 195.242V218.275L520.687 217.041L518.226 194.419L486.649 195.242Z" fill="#CCA1A7"/>
<path d="M507.154 157.813C513.949 157.813 519.457 152.288 519.457 145.474C519.457 138.659 513.949 133.134 507.154 133.134C500.359 133.134 494.851 138.659 494.851 145.474C494.851 152.288 500.359 157.813 507.154 157.813Z" fill="#CCA1A7"/>
<path d="M491.98 164.394C491.98 164.394 485.009 163.16 482.548 164.394C480.087 165.628 477.217 165.216 474.346 177.144L469.015 201.823C469.015 201.823 468.194 209.227 474.346 208.404C480.497 207.581 480.087 196.887 480.087 196.887L484.188 187.427L491.57 179.201L491.98 164.394Z" fill="#CCA1A7"/>
<path d="M515.356 169.33C515.356 169.33 525.198 170.564 526.019 175.911C526.839 181.258 522.328 203.057 522.328 203.057L515.356 196.065L519.047 182.491L515.356 169.33Z" fill="#CCA1A7"/>
<path d="M490.135 164.188L490.34 171.797L484.598 184.137L485.829 199.355L518.736 199.455L518.637 192.363C518.637 192.363 523.148 186.605 520.687 181.669C518.227 176.733 516.381 169.124 516.381 169.124L513.1 167.067C513.1 167.067 518.637 180.024 507.154 177.967C495.671 175.911 495.056 162.954 495.056 162.954L490.135 164.188Z" fill="#D0CDE1"/>
<path d="M480.497 247.067L474.756 279.56L468.194 326.861L465.324 332.208L467.784 337.555L474.756 334.264L477.627 321.514C477.627 321.514 487.469 309.586 485.829 294.367L503.463 252.003L480.497 247.067Z" fill="#CCA1A7"/>
<path d="M508.794 250.357L512.895 290.666C512.895 290.666 512.075 301.771 514.536 311.642C516.996 321.514 518.637 338.789 518.637 338.789H526.839L525.198 288.198L530.53 247.067L508.794 250.357Z" fill="#CCA1A7"/>
<path d="M503.053 213.34C503.053 213.34 485.829 212.106 485.829 214.162V218.275C485.829 218.275 482.548 223.622 482.958 228.558C483.368 233.494 467.374 244.599 477.627 249.535C487.879 254.47 501.412 256.116 503.463 254.471C505.513 252.825 506.744 246.244 506.744 246.244C506.744 246.244 506.744 253.648 510.435 254.059C514.126 254.471 536.271 249.946 536.271 246.244C536.271 242.543 519.86 209.432 519.86 209.432C519.86 209.432 507.974 213.751 503.053 213.34Z" fill="#4B5265"/>
<path d="M467.374 332.619C467.374 332.619 465.734 329.74 464.093 331.797C462.453 333.853 456.302 338.789 456.302 338.789C456.302 338.789 441.128 342.902 451.38 349.072C451.38 349.072 460.403 349.072 464.093 346.192C467.784 343.313 471.475 344.547 471.475 344.547C471.475 344.547 477.217 344.136 477.627 341.668C478.037 339.2 475.478 331.056 475.478 331.056C475.478 331.056 472.706 334.676 467.374 332.619Z" fill="#4B5265"/>
<path d="M521.918 335.087C521.918 335.087 516.996 333.853 516.996 335.087C516.996 336.321 510.025 343.725 515.766 347.015C521.507 350.306 522.328 349.483 522.738 352.773C523.148 356.064 533.81 358.532 535.451 356.475C537.091 354.419 538.322 350.717 536.271 349.072C534.221 347.426 527.659 337.144 527.659 335.087C527.659 333.031 521.918 335.087 521.918 335.087Z" fill="#4B5265"/>
<path d="M511.977 175.428C512.772 175.428 513.417 175.105 513.417 174.706C513.417 174.307 512.772 173.984 511.977 173.984C511.182 173.984 510.537 174.307 510.537 174.706C510.537 175.105 511.182 175.428 511.977 175.428Z" fill="#4B5265"/>
<path d="M512.141 177.758C513.767 177.758 515.085 177.082 515.085 176.249C515.085 175.415 513.767 174.739 512.141 174.739C510.514 174.739 509.196 175.415 509.196 176.249C509.196 177.082 510.514 177.758 512.141 177.758Z" fill="#FF0B63"/>
<path d="M515.609 177.167H508.541V182.353H515.609V177.167Z" fill="#F50057"/>
<path d="M520.419 185.273H503.666V210.674H520.419V185.273Z" fill="#FF0B63"/>
<path d="M521.172 184.978C521.172 187.479 517.063 186.619 512.075 186.619C507.088 186.619 502.848 187.413 502.848 184.912C502.848 182.411 507.088 179.793 512.075 179.793C517.063 179.793 521.172 182.477 521.172 184.978Z" fill="#FF0B63"/>
<path d="M521.171 187.669H503.044V189.638H521.171V187.669Z" fill="#4B5265"/>
<path d="M521.302 206.703H503.175V208.672H521.302V206.703Z" fill="#4B5265"/>
<path d="M521.171 198.17H503.044V202.108H521.171V198.17Z" fill="#4B5265"/>
<path d="M521.041 209.788C521.041 210.621 521.305 213.004 512.271 213.004C502.063 213.004 502.913 210.49 502.913 209.656C502.913 208.823 507.428 209.985 512.271 209.985C517.115 209.985 521.041 208.954 521.041 209.788Z" fill="#FF0B63"/>
<path d="M516.198 176.249H507.821V179.071H516.198V176.249Z" fill="#4B5265"/>
<path opacity="0.1" d="M505.564 191.312H504.451V197.481H505.564V191.312Z" fill="white"/>
<path opacity="0.1" d="M505.564 203.06H504.451V205.357H505.564V203.06Z" fill="white"/>
<path d="M523.968 198.121C523.968 198.121 516.176 187.838 516.586 195.242C516.996 202.646 521.507 206.347 522.328 206.347C523.148 206.347 526.429 205.525 523.968 198.121Z" fill="#CCA1A7"/>
<path opacity="0.1" d="M486.649 206.042C487.264 206.142 497.106 202.44 497.106 202.44L503.258 201.617L486.649 208.584L486.649 206.042Z" fill="black"/>
<path d="M473.936 198.944C473.936 198.944 477.217 196.887 483.778 197.71L496.491 194.419C496.491 194.419 508.384 187.427 512.895 196.065C517.406 204.702 496.081 201.823 496.081 201.823C496.081 201.823 481.728 213.34 473.116 207.17L473.936 198.944Z" fill="#CCA1A7"/>
<path d="M489.315 128.816C492.485 128.816 495.056 126.238 495.056 123.057C495.056 119.877 492.485 117.299 489.315 117.299C486.144 117.299 483.573 119.877 483.573 123.057C483.573 126.238 486.144 128.816 489.315 128.816Z" fill="#4B5265"/>
<path d="M524.583 127.17C527.754 127.17 530.325 124.592 530.325 121.412C530.325 118.232 527.754 115.654 524.583 115.654C521.412 115.654 518.842 118.232 518.842 121.412C518.842 124.592 521.412 127.17 524.583 127.17Z" fill="#4B5265"/>
<path d="M518.432 118.944C518.432 117.524 518.955 116.154 519.902 115.097C520.848 114.041 522.15 113.372 523.558 113.22C522.756 113.132 521.945 113.215 521.177 113.462C520.409 113.71 519.702 114.117 519.101 114.657C518.501 115.197 518.021 115.858 517.692 116.597C517.363 117.335 517.193 118.135 517.193 118.944C517.193 119.753 517.363 120.553 517.692 121.292C518.021 122.03 518.501 122.691 519.101 123.231C519.702 123.771 520.409 124.179 521.177 124.426C521.945 124.674 522.756 124.756 523.558 124.669C522.15 124.516 520.848 123.848 519.902 122.791C518.955 121.735 518.432 120.364 518.432 118.944Z" fill="#4B5265"/>
<path d="M482.899 127.715C481.909 126.701 481.326 125.354 481.265 123.936C481.204 122.517 481.667 121.125 482.567 120.028C482.405 120.156 482.251 120.292 482.103 120.436C481.016 121.505 480.397 122.963 480.382 124.49C480.367 126.016 480.957 127.487 482.022 128.577C483.088 129.668 484.541 130.289 486.064 130.305C487.586 130.321 489.052 129.73 490.14 128.662C490.286 128.517 490.425 128.365 490.555 128.206C489.444 129.085 488.047 129.522 486.634 129.431C485.221 129.341 483.891 128.729 482.899 127.715Z" fill="#4B5265"/>
<path d="M506.949 127.993C500.154 127.993 494.646 131.216 494.646 135.191C494.646 136.97 495.753 138.595 497.581 139.851L499.949 138.13L499.305 140.826C499.572 140.951 499.845 141.071 500.13 141.182L503.668 137.042V142.128C504.753 142.302 505.85 142.39 506.949 142.389C513.744 142.389 519.252 139.166 519.252 135.191C519.252 131.216 513.744 127.993 506.949 127.993Z" fill="#4B5265"/>
<path d="M518.842 121.412C518.842 121.412 517.95 125.525 523.522 127.17L518.842 121.412Z" fill="#F50057"/>
<path d="M494.646 122.161C494.646 122.161 496.696 126.759 490.545 128.816L494.646 122.161Z" fill="#F50057"/>
</svg>
