<svg width="333" height="316" viewBox="0 0 333 316" fill="none" xmlns="http://www.w3.org/2000/svg">
<path d="M170.308 75.0461C170.308 75.0461 172.358 84.5062 165.387 88.208C165.387 88.208 167.027 109.185 177.69 109.596C188.352 110.007 188.352 98.4907 188.352 98.4907L186.712 92.3211C186.712 92.3211 178.92 87.7967 183.841 79.1592L170.308 75.0461Z" fill="#CCA1A7"/>
<path d="M179.125 80.1875C189.77 80.1875 198.4 71.5324 198.4 60.8559C198.4 50.1794 189.77 41.5244 179.125 41.5244C168.48 41.5244 159.85 50.1794 159.85 60.8559C159.85 71.5324 168.48 80.1875 179.125 80.1875Z" fill="#4B5265"/>
<path d="M158.825 119.056V142.089L192.864 140.855L190.403 118.234L158.825 119.056Z" fill="#CCA1A7"/>
<path d="M179.33 81.627C186.125 81.627 191.633 76.1025 191.633 69.2878C191.633 62.473 186.125 56.9485 179.33 56.9485C172.535 56.9485 167.027 62.473 167.027 69.2878C167.027 76.1025 172.535 81.627 179.33 81.627Z" fill="#CCA1A7"/>
<path d="M164.157 88.208C164.157 88.208 157.185 86.974 154.724 88.208C152.264 89.4419 149.393 89.0306 146.522 100.959L141.191 125.637C141.191 125.637 140.371 133.041 146.522 132.218C152.674 131.395 152.264 120.701 152.264 120.701L156.365 111.241L163.746 103.015L164.157 88.208Z" fill="#CCA1A7"/>
<path d="M187.532 93.1437C187.532 93.1437 197.375 94.3776 198.195 99.7246C199.015 105.072 194.504 126.871 194.504 126.871L187.532 119.879L191.223 106.306L187.532 93.1437Z" fill="#CCA1A7"/>
<path d="M162.311 88.0023L162.516 95.6115L156.775 107.951L158.005 123.169L190.912 123.269L190.813 116.177C190.813 116.177 195.324 110.419 192.864 105.483C190.403 100.547 188.557 92.938 188.557 92.938L185.277 90.8815C185.277 90.8815 190.813 103.838 179.33 101.781C167.847 99.7246 167.232 86.7684 167.232 86.7684L162.311 88.0023Z" fill="#D0CDE1"/>
<path d="M152.674 170.881L146.932 203.374L140.371 250.675L137.5 256.022L139.961 261.369L146.932 258.079L149.803 245.328C149.803 245.328 159.645 233.4 158.005 218.182L175.639 175.817L152.674 170.881Z" fill="#CCA1A7"/>
<path d="M180.971 174.172L185.072 214.48C185.072 214.48 184.251 225.585 186.712 235.457C189.173 245.328 190.813 262.603 190.813 262.603H199.015L197.375 212.012L202.706 170.881L180.971 174.172Z" fill="#CCA1A7"/>
<path d="M175.229 137.154C175.229 137.154 158.005 135.92 158.005 137.976V142.089C158.005 142.089 154.724 147.436 155.134 152.372C155.544 157.308 139.55 168.413 149.803 173.349C160.055 178.285 173.589 179.93 175.639 178.285C177.69 176.639 178.92 170.058 178.92 170.058C178.92 170.058 178.92 177.462 182.611 177.873C186.302 178.285 208.447 173.76 208.447 170.058C208.447 166.357 192.036 133.246 192.036 133.246C192.036 133.246 180.15 137.565 175.229 137.154Z" fill="#4B5265"/>
<path d="M139.551 256.433C139.551 256.433 137.91 253.554 136.27 255.611C134.629 257.667 128.478 262.603 128.478 262.603C128.478 262.603 113.304 266.716 123.557 272.886C123.557 272.886 132.579 272.886 136.27 270.007C139.961 267.127 143.652 268.361 143.652 268.361C143.652 268.361 149.393 267.95 149.803 265.482C150.213 263.014 147.655 254.87 147.655 254.87C147.655 254.87 144.882 258.49 139.551 256.433Z" fill="#4B5265"/>
<path d="M194.094 258.901C194.094 258.901 189.173 257.667 189.173 258.901C189.173 260.135 182.201 267.539 187.942 270.829C193.684 274.12 194.504 273.297 194.914 276.587C195.324 279.878 205.987 282.346 207.627 280.289C209.268 278.233 210.498 274.531 208.447 272.886C206.397 271.24 199.835 260.958 199.835 258.901C199.835 256.845 194.094 258.901 194.094 258.901Z" fill="#4B5265"/>
<path d="M184.153 99.2422C184.948 99.2422 185.593 98.9189 185.593 98.5202C185.593 98.1215 184.948 97.7982 184.153 97.7982C183.358 97.7982 182.714 98.1215 182.714 98.5202C182.714 98.9189 183.358 99.2422 184.153 99.2422Z" fill="#4B5265"/>
<path d="M184.317 101.572C185.943 101.572 187.262 100.896 187.262 100.063C187.262 99.2289 185.943 98.553 184.317 98.553C182.69 98.553 181.372 99.2289 181.372 100.063C181.372 100.896 182.69 101.572 184.317 101.572Z" fill="#FF0B63"/>
<path d="M187.785 100.982H180.718V106.167H187.785V100.982Z" fill="#F50057"/>
<path d="M192.595 109.087H175.842V134.488H192.595V109.087Z" fill="#FF0B63"/>
<path d="M193.348 108.792C193.348 111.293 189.239 110.433 184.251 110.433C179.264 110.433 175.024 111.228 175.024 108.726C175.024 106.225 179.264 103.607 184.251 103.607C189.239 103.607 193.348 106.291 193.348 108.792Z" fill="#FF0B63"/>
<path d="M193.348 111.483H175.22V113.452H193.348V111.483Z" fill="#4B5265"/>
<path d="M193.479 130.517H175.351V132.486H193.479V130.517Z" fill="#4B5265"/>
<path d="M193.348 121.984H175.22V125.923H193.348V121.984Z" fill="#4B5265"/>
<path d="M193.217 133.602C193.217 134.436 193.481 136.818 184.448 136.818C174.239 136.818 175.09 134.304 175.09 133.471C175.09 132.637 179.605 133.799 184.448 133.799C189.291 133.799 193.217 132.768 193.217 133.602Z" fill="#FF0B63"/>
<path d="M188.374 100.063H179.998V102.885H188.374V100.063Z" fill="#4B5265"/>
<path opacity="0.1" d="M177.74 115.126H176.627V121.295H177.74V115.126Z" fill="white"/>
<path opacity="0.1" d="M177.74 126.874H176.627V129.171H177.74V126.874Z" fill="white"/>
<path d="M196.144 121.935C196.144 121.935 188.352 111.653 188.762 119.056C189.173 126.46 193.684 130.161 194.504 130.161C195.324 130.161 198.605 129.339 196.144 121.935Z" fill="#CCA1A7"/>
<path opacity="0.1" d="M158.825 129.856C159.44 129.956 169.283 126.254 169.283 126.254L175.434 125.431L158.825 132.398L158.825 129.856Z" fill="black"/>
<path d="M146.112 122.758C146.112 122.758 149.393 120.701 155.954 121.524L168.668 118.233C168.668 118.233 180.56 111.241 185.072 119.879C189.583 128.516 168.257 125.637 168.257 125.637C168.257 125.637 153.904 137.154 145.292 130.984L146.112 122.758Z" fill="#CCA1A7"/>
<path d="M161.491 52.6297C164.662 52.6297 167.232 50.0516 167.232 46.8714C167.232 43.6911 164.662 41.113 161.491 41.113C158.32 41.113 155.749 43.6911 155.749 46.8714C155.749 50.0516 158.32 52.6297 161.491 52.6297Z" fill="#4B5265"/>
<path d="M196.759 50.9845C199.93 50.9845 202.501 48.4064 202.501 45.2262C202.501 42.0459 199.93 39.4678 196.759 39.4678C193.589 39.4678 191.018 42.0459 191.018 45.2262C191.018 48.4064 193.589 50.9845 196.759 50.9845Z" fill="#4B5265"/>
<path d="M190.608 42.7583C190.608 41.3381 191.132 39.968 192.078 38.9114C193.024 37.8548 194.326 37.1862 195.734 37.0341C194.932 36.9462 194.121 37.0288 193.353 37.2764C192.585 37.524 191.878 37.9311 191.278 38.4712C190.677 39.0113 190.197 39.6722 189.868 40.4108C189.539 41.1495 189.369 41.9494 189.369 42.7583C189.369 43.5673 189.539 44.3672 189.868 45.1058C190.197 45.8445 190.677 46.5054 191.278 47.0455C191.878 47.5855 192.585 47.9926 193.353 48.2403C194.121 48.4879 194.932 48.5705 195.734 48.4826C194.326 48.3305 193.024 47.6619 192.078 46.6052C191.132 45.5486 190.608 44.1786 190.608 42.7583V42.7583Z" fill="#4B5265"/>
<path d="M155.076 51.5292C154.085 50.5146 153.503 49.1686 153.441 47.7497C153.38 46.3308 153.843 44.9391 154.743 43.8422C154.581 43.9697 154.427 44.1057 154.28 44.2497C153.193 45.3187 152.573 46.7769 152.558 48.3036C152.543 49.8304 153.133 51.3008 154.198 52.3914C155.264 53.482 156.718 54.1035 158.24 54.1194C159.762 54.1352 161.228 53.544 162.316 52.4758C162.463 52.3313 162.601 52.179 162.732 52.0197C161.62 52.8993 160.223 53.3357 158.81 53.2452C157.397 53.1547 156.067 52.5435 155.076 51.5292V51.5292Z" fill="#4B5265"/>
<path d="M179.125 51.8071C172.33 51.8071 166.822 55.0297 166.822 59.005C166.822 60.7838 167.929 62.4094 169.757 63.6653L172.125 61.9441L171.481 64.6405C171.749 64.7647 172.022 64.885 172.306 64.9961L175.844 60.8559V65.9421C176.929 66.1164 178.026 66.2037 179.125 66.203C185.92 66.203 191.428 62.9803 191.428 59.005C191.428 55.0298 185.92 51.8071 179.125 51.8071Z" fill="#4B5265"/>
<path d="M191.018 45.2262C191.018 45.2262 190.126 49.3393 195.698 50.9845Z" fill="#F50057"/>
<path d="M166.822 45.9747C166.822 45.9747 168.873 50.5731 162.721 52.6297Z" fill="#F50057"/>
<path d="M186.792 11.5806C189.98 11.5806 192.565 8.98821 192.565 5.79031C192.565 2.59241 189.98 0 186.792 0C183.603 0 181.018 2.59241 181.018 5.79031C181.018 8.98821 183.603 11.5806 186.792 11.5806Z" fill="#F50057"/>
<path d="M185.548 10.5246C186.112 10.0673 185.755 8.68914 184.752 7.44637C183.749 6.2036 182.479 5.56685 181.916 6.02415C181.353 6.48146 181.709 7.85964 182.712 9.10241C183.715 10.3452 184.985 10.9819 185.548 10.5246Z" fill="white"/>
<path d="M5.81913 108.208C9.00763 108.208 11.5924 105.616 11.5924 102.418C11.5924 99.2201 9.00763 96.6277 5.81913 96.6277C2.63063 96.6277 0.0458374 99.2201 0.0458374 102.418C0.0458374 105.616 2.63063 108.208 5.81913 108.208Z" fill="#3F3D56"/>
<path d="M3.28524 101.733C3.70028 100.189 3.46954 98.7841 2.76987 98.5949C2.0702 98.4057 1.16654 99.5038 0.751501 101.048C0.336458 102.591 0.5672 103.996 1.26687 104.186C1.96654 104.375 2.87019 103.277 3.28524 101.733Z" fill="white"/>
<path d="M17.1092 19.0146C19.0962 19.0146 20.7071 17.399 20.7071 15.4061C20.7071 13.4132 19.0962 11.7976 17.1092 11.7976C15.1221 11.7976 13.5113 13.4132 13.5113 15.4061C13.5113 17.399 15.1221 19.0146 17.1092 19.0146Z" fill="#3F3D56"/>
<path d="M15.5303 14.979C15.789 14.0169 15.6452 13.1414 15.2091 13.0234C14.7731 12.9055 14.21 13.5899 13.9513 14.552C13.6927 15.5141 13.8364 16.3896 14.2725 16.5075C14.7085 16.6254 15.2717 15.9411 15.5303 14.979Z" fill="white"/>
<path d="M125.534 66.7667C127.521 66.7667 129.132 65.1511 129.132 63.1582C129.132 61.1653 127.521 59.5497 125.534 59.5497C123.547 59.5497 121.936 61.1653 121.936 63.1582C121.936 65.1511 123.547 66.7667 125.534 66.7667Z" fill="#3F3D56"/>
<path d="M123.955 62.7313C124.214 61.7692 124.07 60.8937 123.634 60.7758C123.198 60.6579 122.635 61.3422 122.376 62.3043C122.118 63.2664 122.262 64.1419 122.698 64.2599C123.134 64.3778 123.697 63.6934 123.955 62.7313Z" fill="white"/>
<path d="M186.792 11.5806C189.98 11.5806 192.565 8.98821 192.565 5.79031C192.565 2.59241 189.98 0 186.792 0C183.603 0 181.018 2.59241 181.018 5.79031C181.018 8.98821 183.603 11.5806 186.792 11.5806Z" fill="#FF0B63"/>
<path d="M185.548 10.5246C186.112 10.0673 185.755 8.68914 184.752 7.44637C183.749 6.2036 182.479 5.56685 181.916 6.02415C181.353 6.48146 181.709 7.85964 182.712 9.10241C183.715 10.3452 184.985 10.9819 185.548 10.5246Z" fill="white"/>
<path d="M5.81913 108.208C9.00763 108.208 11.5924 105.616 11.5924 102.418C11.5924 99.2201 9.00763 96.6277 5.81913 96.6277C2.63063 96.6277 0.0458374 99.2201 0.0458374 102.418C0.0458374 105.616 2.63063 108.208 5.81913 108.208Z" fill="#4B5265"/>
<path d="M3.28524 101.733C3.70028 100.189 3.46954 98.7841 2.76987 98.5949C2.0702 98.4057 1.16654 99.5038 0.751501 101.048C0.336458 102.591 0.5672 103.996 1.26687 104.186C1.96654 104.375 2.87019 103.277 3.28524 101.733Z" fill="white"/>
<path d="M17.1092 19.0146C19.0962 19.0146 20.7071 17.399 20.7071 15.4061C20.7071 13.4132 19.0962 11.7976 17.1092 11.7976C15.1221 11.7976 13.5113 13.4132 13.5113 15.4061C13.5113 17.399 15.1221 19.0146 17.1092 19.0146Z" fill="#4B5265"/>
<path d="M15.5303 14.979C15.789 14.0169 15.6452 13.1414 15.2091 13.0234C14.7731 12.9055 14.21 13.5899 13.9513 14.552C13.6927 15.5141 13.8364 16.3896 14.2725 16.5075C14.7085 16.6254 15.2717 15.9411 15.5303 14.979Z" fill="white"/>
<path d="M125.534 66.7667C127.521 66.7667 129.132 65.1511 129.132 63.1582C129.132 61.1653 127.521 59.5497 125.534 59.5497C123.547 59.5497 121.936 61.1653 121.936 63.1582C121.936 65.1511 123.547 66.7667 125.534 66.7667Z" fill="#4B5265"/>
<path d="M123.955 62.7313C124.214 61.7692 124.07 60.8937 123.634 60.7758C123.198 60.6579 122.635 61.3422 122.376 62.3043C122.118 63.2664 122.262 64.1419 122.698 64.2599C123.134 64.3778 123.697 63.6934 123.955 62.7313Z" fill="white"/>
<path d="M224.788 189.443C224.438 192.612 226.73 195.467 229.909 195.818C233.087 196.169 235.948 193.885 236.299 190.716C236.649 187.547 234.356 184.693 231.178 184.341C227.999 183.99 225.139 186.274 224.788 189.443Z" fill="#4B5265"/>
<path d="M228.098 185.849C228.019 186.569 229.243 187.296 230.832 187.471C232.421 187.647 233.774 187.206 233.854 186.485C233.933 185.765 232.71 185.039 231.12 184.863C229.531 184.687 228.178 185.129 228.098 185.849Z" fill="white"/>
<path d="M309.057 245.622C308.706 248.791 310.999 251.645 314.177 251.997C317.356 252.348 320.217 250.064 320.567 246.895C320.918 243.726 318.625 240.872 315.446 240.52C312.268 240.169 309.407 242.453 309.057 245.622Z" fill="#FF0B63"/>
<path d="M317.1 244.963C317.89 246.349 319.043 247.183 319.675 246.825C320.307 246.467 320.178 245.053 319.387 243.667C318.597 242.28 317.444 241.447 316.812 241.804C316.181 242.162 316.309 243.576 317.1 244.963Z" fill="white"/>
<path d="M325.431 146.269C325.213 148.244 326.642 150.023 328.622 150.242C330.603 150.461 332.386 149.038 332.605 147.063C332.823 145.088 331.394 143.309 329.413 143.09C327.433 142.871 325.65 144.294 325.431 146.269Z" fill="#F50057"/>
<path d="M330.444 145.859C330.936 146.723 331.655 147.242 332.048 147.019C332.442 146.796 332.362 145.915 331.869 145.051C331.377 144.187 330.658 143.667 330.265 143.89C329.871 144.113 329.951 144.995 330.444 145.859Z" fill="white"/>
<path d="M249.54 109.192C249.321 111.167 250.75 112.946 252.731 113.165C254.712 113.384 256.495 111.961 256.713 109.986C256.931 108.011 255.503 106.232 253.522 106.013C251.541 105.794 249.758 107.217 249.54 109.192Z" fill="#4B5265"/>
<path d="M254.552 108.781C255.045 109.645 255.763 110.165 256.157 109.942C256.551 109.719 256.47 108.838 255.978 107.974C255.485 107.11 254.767 106.59 254.373 106.813C253.979 107.036 254.06 107.917 254.552 108.781Z" fill="white"/>
<path d="M187.149 287.194C186.798 290.364 189.091 293.218 192.269 293.569C195.448 293.921 198.309 291.636 198.659 288.467C199.009 285.298 196.717 282.444 193.538 282.093C190.36 281.741 187.499 284.025 187.149 287.194Z" fill="#4B5265"/>
<path d="M190.459 283.6C190.379 284.321 191.603 285.047 193.192 285.223C194.781 285.398 196.134 284.957 196.214 284.237C196.294 283.516 195.07 282.79 193.48 282.614C191.891 282.439 190.538 282.88 190.459 283.6Z" fill="white"/>
<path d="M88.733 308.819C88.3826 311.988 90.6752 314.842 93.8537 315.193C97.0322 315.545 99.893 313.261 100.243 310.091C100.594 306.922 98.3013 304.068 95.1228 303.717C91.9442 303.365 89.0834 305.649 88.733 308.819Z" fill="#FF0B63"/>
<path d="M96.7758 308.159C97.5663 309.546 98.7191 310.379 99.3509 310.022C99.9827 309.664 99.854 308.25 99.0636 306.863C98.2732 305.477 97.1203 304.643 96.4886 305.001C95.8568 305.359 95.9854 306.773 96.7758 308.159Z" fill="white"/>
<path d="M6.01339 226.044C5.79499 228.019 7.22374 229.798 9.20459 230.017C11.1854 230.236 12.9683 228.813 13.1867 226.838C13.4051 224.863 11.9763 223.084 9.99546 222.865C8.01461 222.646 6.23178 224.069 6.01339 226.044Z" fill="#F50057"/>
<path d="M11.0258 225.633C11.5184 226.497 12.2369 227.017 12.6306 226.794C13.0243 226.571 12.9441 225.69 12.4515 224.826C11.959 223.962 11.2405 223.442 10.8468 223.665C10.4531 223.888 10.5332 224.77 11.0258 225.633Z" fill="white"/>
<path d="M99.832 249.639C99.6136 251.614 101.042 253.393 103.023 253.612C105.004 253.831 106.787 252.408 107.005 250.433C107.224 248.458 105.795 246.679 103.814 246.46C101.833 246.241 100.05 247.664 99.832 249.639Z" fill="#4B5265"/>
<path d="M104.844 249.229C105.337 250.093 106.056 250.612 106.449 250.389C106.843 250.166 106.763 249.285 106.27 248.421C105.778 247.557 105.059 247.037 104.665 247.26C104.272 247.483 104.352 248.365 104.844 249.229Z" fill="white"/>
</svg>
