<svg width="1397" height="4015" viewBox="0 0 1397 4015" fill="none" xmlns="http://www.w3.org/2000/svg">
<g clip-path="url(#clip0_410:43)">
<path d="M994.575 1721.06C994.357 1832.83 1084.16 1923.95 1194.81 1924.17C1221.17 1924.24 1247.27 1919.06 1271.64 1908.92C1296.01 1898.79 1318.17 1883.9 1336.84 1865.11C1355.51 1846.32 1370.33 1823.99 1380.46 1799.41C1390.58 1774.83 1395.81 1748.47 1395.84 1721.84C1395.85 1719.61 1394.97 1717.48 1393.42 1715.9C1391.86 1714.32 1389.75 1713.43 1387.55 1713.42L1002.9 1712.67C1000.7 1712.67 998.586 1713.55 997.024 1715.13C995.463 1716.7 994.582 1718.83 994.575 1721.06V1721.06ZM1379.01 1730.21C1378.43 1742.81 1376.58 1755.32 1373.49 1767.55L1016.77 1766.85C1013.71 1754.62 1011.9 1742.1 1011.37 1729.49L1379.01 1730.21ZM1018.62 1773.77L1371.6 1774.46C1360.28 1812.92 1336.94 1846.64 1305.09 1870.6C1273.23 1894.55 1234.56 1907.45 1194.85 1907.37C1111.48 1907.2 1041 1850.76 1018.62 1773.77V1773.77Z" fill="#4B5265" fill-opacity="0.05"/>
<path d="M1252.76 1870.23C1271.54 1862.09 1288.24 1849.75 1301.61 1834.13C1302.2 1833.44 1303.04 1833.01 1303.95 1832.94C1304.85 1832.88 1305.75 1833.18 1306.44 1833.78C1307.12 1834.38 1307.55 1835.23 1307.61 1836.14C1307.68 1837.06 1307.38 1837.96 1306.79 1838.66C1292.72 1855.07 1275.15 1868.04 1255.41 1876.59C1254.98 1876.78 1254.52 1876.87 1254.06 1876.87C1253.27 1876.87 1252.5 1876.59 1251.89 1876.09C1251.28 1875.58 1250.86 1874.88 1250.7 1874.1C1250.54 1873.32 1250.66 1872.5 1251.03 1871.8C1251.4 1871.09 1251.99 1870.54 1252.72 1870.23L1252.76 1870.23Z" fill="#4B5265" fill-opacity="0.05"/>
<path d="M1365.05 1531.77C1381.18 1514.64 1377.11 1489.3 1376.92 1488.31C1376.68 1486.85 1376.05 1485.48 1375.11 1484.34C1374.16 1483.2 1372.94 1482.34 1371.56 1481.83C1370.18 1481.33 1368.69 1481.2 1367.24 1481.47C1365.8 1481.73 1364.45 1482.38 1363.33 1483.35L1326.77 1514.91L1337.94 1459.51C1338.24 1458.03 1338.13 1456.5 1337.64 1455.08C1337.15 1453.65 1336.29 1452.39 1335.15 1451.41C1334.01 1450.44 1332.63 1449.8 1331.16 1449.55C1329.69 1449.3 1328.18 1449.46 1326.79 1450C1325.69 1450.42 1299.74 1460.82 1292.49 1485.8C1289.16 1497.19 1290.27 1509.45 1295.76 1522.37C1288.64 1521.22 1281.35 1521.75 1274.46 1523.9C1262.46 1527.82 1253.24 1536.94 1247.09 1550.95C1245.23 1555.34 1243.63 1559.84 1242.32 1564.43C1242.32 1564.53 1242.27 1564.64 1242.24 1564.73C1233.03 1596.28 1227.66 1649.2 1228.61 1677.03C1228.74 1681.6 1230.16 1686.05 1232.69 1689.84C1235.23 1693.64 1238.78 1696.63 1242.92 1698.47C1246 1699.86 1249.33 1700.58 1252.7 1700.59C1258.4 1700.6 1263.91 1698.55 1268.25 1694.82C1280.9 1684.04 1298.27 1665.9 1313.59 1647.48C1325.46 1633.19 1335.22 1619.85 1341.8 1608.89C1344.25 1604.89 1346.45 1600.74 1348.38 1596.45C1354.54 1582.45 1355.04 1569.45 1349.88 1557.81C1347.7 1552.97 1344.69 1548.56 1340.99 1544.79C1350.86 1542.63 1358.91 1538.3 1365.05 1531.77ZM1309.65 1544.51L1309.91 1544.64L1310.2 1544.79L1310.46 1544.92L1310.54 1544.92L1310.73 1544.99L1311.06 1545.11L1311.24 1545.18C1311.57 1545.29 1328.83 1551.21 1334.76 1564.75C1337.91 1571.94 1337.41 1580.08 1333.2 1589.64C1331.99 1592.34 1330.63 1594.98 1329.13 1597.53L1315.31 1590.05C1314.91 1589.82 1314.47 1589.67 1314.02 1589.61C1313.56 1589.55 1313.1 1589.59 1312.66 1589.72C1312.22 1589.84 1311.81 1590.06 1311.45 1590.35C1311.1 1590.64 1310.8 1591 1310.58 1591.41C1310.37 1591.81 1310.23 1592.26 1310.19 1592.72C1310.15 1593.18 1310.2 1593.65 1310.33 1594.09C1310.47 1594.53 1310.7 1594.94 1310.99 1595.29C1311.29 1595.64 1311.66 1595.93 1312.07 1596.14L1325.56 1603.45C1318.26 1614.66 1310.29 1625.41 1301.69 1635.63L1275.1 1623.2C1274.28 1622.81 1273.34 1622.78 1272.48 1623.09C1271.63 1623.41 1270.94 1624.05 1270.56 1624.89C1270.17 1625.72 1270.14 1626.67 1270.45 1627.53C1270.76 1628.39 1271.4 1629.09 1272.22 1629.48L1297.1 1641.17C1283.38 1657.32 1268.5 1672.68 1257.55 1682.01C1256.47 1682.93 1255.16 1683.53 1253.77 1683.73C1252.38 1683.93 1250.95 1683.74 1249.67 1683.16C1248.38 1682.58 1247.28 1681.65 1246.49 1680.47C1245.7 1679.29 1245.26 1677.91 1245.22 1676.48C1244.36 1651.2 1248.95 1604.23 1256.97 1573.89L1283.5 1585.99C1283.94 1586.19 1284.41 1586.3 1284.9 1586.3C1285.68 1586.3 1286.44 1586.03 1287.05 1585.54C1287.66 1585.04 1288.08 1584.35 1288.25 1583.58C1288.41 1582.8 1288.31 1582 1287.96 1581.29C1287.61 1580.58 1287.03 1580.02 1286.32 1579.69L1258.88 1567.18C1259.84 1564 1260.97 1560.88 1262.27 1557.84C1266.47 1548.28 1272.08 1542.44 1279.5 1539.98C1293.49 1535.3 1309.49 1544.35 1309.65 1544.46L1309.65 1544.51ZM1317.69 1475.84L1310.09 1513.51C1306.99 1505.18 1306.41 1497.55 1308.38 1490.69C1310.14 1484.98 1313.35 1479.84 1317.69 1475.79L1317.69 1475.84ZM1359.23 1509C1358.05 1513.21 1355.89 1517.07 1352.93 1520.27C1349.01 1524.44 1343.55 1527.2 1336.55 1528.55L1359.23 1509Z" fill="#4B5265" fill-opacity="0.05"/>
<path d="M1145.41 1572.3C1133.18 1541.64 1105.35 1521.42 1076.93 1521.37L1076.14 1521.36C1076.05 1521.13 1075.96 1520.88 1075.86 1520.64C1070.3 1506.83 1053.45 1500.63 1038.23 1506.82C1031.23 1509.6 1025.44 1514.82 1021.91 1521.53C1020.15 1524.82 1019.12 1528.46 1018.9 1532.19C1018.67 1535.92 1019.26 1539.65 1020.63 1543.12C1021.76 1545.98 1023.41 1548.59 1025.5 1550.83C1013.25 1571.08 1011.44 1598.41 1021.17 1622.89C1033.41 1653.55 1060.86 1673.73 1089.42 1673.84C1093.85 1681.23 1102.18 1685.52 1111.2 1685.54C1115.02 1685.54 1118.81 1684.8 1122.35 1683.34C1136.33 1677.66 1143.57 1662.63 1138.49 1649.93C1138.34 1649.59 1138.19 1649.24 1138.04 1648.89C1153.06 1628.3 1156.05 1598.99 1145.41 1572.3ZM1121.55 1642.73C1120.12 1644.32 1119.34 1646.39 1119.38 1648.54C1119.42 1650.68 1120.27 1652.73 1121.75 1654.26C1122.31 1654.82 1122.75 1655.5 1123.04 1656.24C1124.67 1660.3 1121.5 1665.59 1116.17 1667.78C1110.85 1669.98 1104.87 1668.38 1103.25 1664.31C1103.14 1664 1103.05 1663.69 1102.99 1663.37C1102.55 1661.37 1101.39 1659.59 1099.75 1658.39C1098.1 1657.19 1096.07 1656.64 1094.05 1656.84C1070.57 1659.2 1047 1642.66 1036.63 1616.64C1027.87 1594.72 1030.58 1570.26 1043.49 1554.33C1044.29 1553.34 1044.86 1552.17 1045.15 1550.93C1045.44 1549.68 1045.45 1548.39 1045.17 1547.14C1044.88 1545.89 1044.33 1544.73 1043.53 1543.73C1042.74 1542.74 1041.73 1541.94 1040.58 1541.39C1038.57 1540.52 1036.96 1538.89 1036.09 1536.86C1035.66 1535.62 1035.49 1534.31 1035.6 1533C1035.7 1531.69 1036.09 1530.43 1036.72 1529.28C1038.41 1526.11 1041.17 1523.66 1044.5 1522.38C1051.1 1519.68 1058.41 1521.75 1060.46 1526.89C1060.85 1527.9 1061.03 1528.98 1060.99 1530.07C1060.96 1531.3 1061.19 1532.52 1061.67 1533.64C1062.16 1534.77 1062.88 1535.77 1063.79 1536.59C1064.69 1537.4 1065.77 1538 1066.93 1538.35C1068.1 1538.7 1069.32 1538.79 1070.52 1538.61C1072.69 1538.28 1074.87 1538.12 1077.06 1538.13C1098.79 1538.17 1120.34 1554.26 1130.04 1578.55C1139.19 1601.65 1135.87 1626.83 1121.55 1642.73Z" fill="#4B5265" fill-opacity="0.05"/>
<path d="M1111.14 1631.74C1110.67 1631.98 1110.15 1632.1 1109.63 1632.1C1108.86 1632.09 1108.11 1631.82 1107.51 1631.34C1106.91 1630.85 1106.49 1630.17 1106.31 1629.41C1106.14 1628.65 1106.23 1627.85 1106.56 1627.15C1106.89 1626.45 1107.45 1625.88 1108.15 1625.53C1112.78 1623.23 1116.32 1619.17 1117.99 1614.24C1119.66 1609.3 1119.33 1603.9 1117.07 1599.21C1116.69 1598.39 1116.64 1597.45 1116.94 1596.59C1117.24 1595.74 1117.86 1595.04 1118.67 1594.64C1119.48 1594.24 1120.41 1594.18 1121.26 1594.47C1122.12 1594.76 1122.82 1595.38 1123.23 1596.19C1124.74 1599.33 1125.62 1602.75 1125.83 1606.23C1126.04 1609.72 1125.56 1613.21 1124.43 1616.52C1123.3 1619.82 1121.54 1622.86 1119.24 1625.47C1116.95 1628.09 1114.17 1630.22 1111.06 1631.74L1111.14 1631.74Z" fill="#4B5265" fill-opacity="0.05"/>
<path d="M1187.45 1684.17C1187.44 1687.33 1188.36 1690.42 1190.09 1693.05C1191.82 1695.67 1194.28 1697.73 1197.17 1698.94C1200.05 1700.16 1203.23 1700.48 1206.29 1699.87C1209.36 1699.26 1212.18 1697.75 1214.39 1695.52C1216.6 1693.29 1218.11 1690.45 1218.73 1687.35C1219.35 1684.26 1219.04 1681.05 1217.85 1678.13C1216.66 1675.21 1214.63 1672.71 1212.04 1670.95C1209.44 1669.2 1206.39 1668.25 1203.26 1668.25C1199.08 1668.25 1195.07 1669.93 1192.1 1672.91C1189.14 1675.89 1187.46 1679.94 1187.45 1684.17V1684.17ZM1194.29 1684.18C1194.3 1682.39 1194.83 1680.65 1195.81 1679.16C1196.8 1677.68 1198.2 1676.52 1199.84 1675.84C1201.47 1675.16 1203.27 1674.98 1205.01 1675.34C1206.75 1675.69 1208.34 1676.55 1209.59 1677.82C1210.84 1679.09 1211.68 1680.7 1212.03 1682.46C1212.37 1684.21 1212.18 1686.03 1211.5 1687.68C1210.82 1689.33 1209.67 1690.74 1208.19 1691.73C1206.72 1692.72 1204.99 1693.25 1203.22 1693.24C1200.84 1693.24 1198.57 1692.28 1196.9 1690.58C1195.23 1688.88 1194.29 1686.58 1194.29 1684.18V1684.18Z" fill="#4B5265" fill-opacity="0.05"/>
<path d="M1124.03 1480.74C1124.03 1477.06 1122.96 1473.45 1120.94 1470.39C1118.92 1467.32 1116.05 1464.92 1112.68 1463.51C1109.31 1462.09 1105.61 1461.71 1102.03 1462.42C1098.45 1463.13 1095.16 1464.9 1092.57 1467.5C1089.99 1470.1 1088.22 1473.41 1087.5 1477.02C1086.78 1480.64 1087.13 1484.38 1088.52 1487.79C1089.91 1491.2 1092.26 1494.12 1095.29 1496.17C1098.32 1498.23 1101.88 1499.33 1105.53 1499.35C1110.42 1499.35 1115.12 1497.4 1118.59 1493.91C1122.06 1490.43 1124.01 1485.69 1124.03 1480.74V1480.74ZM1117.18 1480.73C1117.18 1483.05 1116.5 1485.31 1115.22 1487.24C1113.94 1489.16 1112.13 1490.66 1110.01 1491.55C1107.89 1492.43 1105.56 1492.66 1103.31 1492.21C1101.06 1491.76 1098.99 1490.64 1097.37 1489C1095.75 1487.36 1094.65 1485.27 1094.2 1483C1093.76 1480.72 1093.99 1478.37 1094.87 1476.23C1095.75 1474.09 1097.23 1472.26 1099.14 1470.97C1101.05 1469.68 1103.29 1469 1105.59 1469C1108.66 1469 1111.61 1470.24 1113.79 1472.44C1115.96 1474.64 1117.18 1477.62 1117.18 1480.73V1480.73Z" fill="#4B5265" fill-opacity="0.05"/>
<path d="M1390.17 1635.48C1390.18 1631.5 1389.02 1627.61 1386.85 1624.3C1384.67 1620.99 1381.56 1618.41 1377.93 1616.88C1374.3 1615.35 1370.29 1614.94 1366.43 1615.71C1362.57 1616.48 1359.02 1618.39 1356.23 1621.2C1353.45 1624.01 1351.55 1627.59 1350.77 1631.49C1350 1635.39 1350.39 1639.43 1351.89 1643.11C1353.4 1646.78 1355.94 1649.93 1359.22 1652.14C1362.49 1654.35 1366.33 1655.53 1370.27 1655.53C1375.54 1655.53 1380.59 1653.42 1384.32 1649.66C1388.05 1645.9 1390.15 1640.8 1390.17 1635.48V1635.48ZM1383.33 1635.47C1383.32 1638.08 1382.55 1640.62 1381.11 1642.79C1379.67 1644.96 1377.63 1646.64 1375.24 1647.63C1372.85 1648.63 1370.23 1648.88 1367.7 1648.36C1365.17 1647.85 1362.85 1646.59 1361.03 1644.74C1359.21 1642.88 1357.97 1640.53 1357.48 1637.97C1356.98 1635.41 1357.25 1632.76 1358.24 1630.35C1359.24 1627.95 1360.92 1625.89 1363.07 1624.45C1365.23 1623.01 1367.75 1622.25 1370.33 1622.26C1373.79 1622.28 1377.1 1623.68 1379.53 1626.15C1381.97 1628.63 1383.33 1631.98 1383.33 1635.47Z" fill="#4B5265" fill-opacity="0.05"/>
<path d="M1019.56 1676.97C1019.56 1679.19 1020.2 1681.36 1021.41 1683.2C1022.63 1685.05 1024.35 1686.49 1026.38 1687.34C1028.4 1688.19 1030.63 1688.42 1032.78 1687.99C1034.93 1687.57 1036.91 1686.5 1038.46 1684.94C1040.01 1683.38 1041.07 1681.39 1041.51 1679.21C1041.94 1677.04 1041.72 1674.79 1040.89 1672.74C1040.06 1670.69 1038.64 1668.94 1036.82 1667.71C1035 1666.47 1032.86 1665.81 1030.66 1665.81C1027.73 1665.81 1024.91 1666.98 1022.83 1669.07C1020.75 1671.17 1019.57 1674.01 1019.56 1676.97V1676.97ZM1026.41 1676.99C1026.41 1676.14 1026.66 1675.31 1027.13 1674.61C1027.59 1673.91 1028.26 1673.36 1029.03 1673.04C1029.8 1672.72 1030.66 1672.63 1031.48 1672.8C1032.3 1672.97 1033.05 1673.38 1033.64 1673.98C1034.23 1674.57 1034.64 1675.34 1034.8 1676.17C1034.96 1677 1034.87 1677.86 1034.55 1678.64C1034.23 1679.42 1033.69 1680.09 1032.99 1680.56C1032.29 1681.03 1031.47 1681.28 1030.63 1681.27C1029.51 1681.27 1028.44 1680.82 1027.64 1680.02C1026.85 1679.21 1026.41 1678.12 1026.41 1676.99Z" fill="#4B5265" fill-opacity="0.05"/>
<path d="M1272.25 1455.14C1272.26 1452.93 1271.61 1450.76 1270.4 1448.92C1269.18 1447.07 1267.45 1445.64 1265.43 1444.78C1263.41 1443.93 1261.18 1443.71 1259.03 1444.14C1256.88 1444.56 1254.9 1445.63 1253.35 1447.19C1251.79 1448.76 1250.74 1450.75 1250.3 1452.92C1249.87 1455.09 1250.09 1457.35 1250.93 1459.39C1251.76 1461.44 1253.18 1463.19 1255 1464.42C1256.82 1465.66 1258.97 1466.32 1261.16 1466.32C1264.09 1466.32 1266.91 1465.14 1268.99 1463.05C1271.07 1460.95 1272.24 1458.11 1272.25 1455.14ZM1265.41 1455.13C1265.4 1455.98 1265.15 1456.8 1264.69 1457.51C1264.22 1458.21 1263.56 1458.76 1262.78 1459.08C1262.01 1459.4 1261.15 1459.48 1260.33 1459.32C1259.51 1459.15 1258.76 1458.74 1258.17 1458.14C1257.58 1457.54 1257.17 1456.77 1257.01 1455.94C1256.85 1455.11 1256.94 1454.25 1257.26 1453.47C1257.59 1452.69 1258.13 1452.02 1258.83 1451.55C1259.53 1451.09 1260.35 1450.84 1261.19 1450.84C1262.31 1450.85 1263.38 1451.3 1264.17 1452.1C1264.96 1452.91 1265.41 1454 1265.41 1455.13Z" fill="#4B5265" fill-opacity="0.05"/>
<path d="M1205.74 1576.97C1220.82 1556.9 1237.3 1526.05 1229.75 1493.12C1223.48 1465.6 1201.61 1442.15 1164.77 1423.41C1163.78 1422.91 1162.69 1422.61 1161.59 1422.54C1160.48 1422.46 1159.37 1422.61 1158.32 1422.98C1157.27 1423.35 1156.31 1423.92 1155.48 1424.67C1154.66 1425.42 1153.99 1426.33 1153.51 1427.34C1142.71 1450.44 1133.18 1473.28 1135.77 1498.63C1138.7 1527.67 1157.45 1554.39 1193.08 1580.32C1193.76 1580.81 1194.5 1581.2 1195.3 1581.46C1194.07 1599.82 1190.45 1615.52 1184.69 1627.27C1184.49 1627.68 1184.37 1628.12 1184.34 1628.58C1184.31 1629.03 1184.37 1629.49 1184.51 1629.92C1184.66 1630.35 1184.88 1630.74 1185.18 1631.09C1185.48 1631.43 1185.84 1631.71 1186.24 1631.91C1186.71 1632.14 1187.23 1632.27 1187.75 1632.27C1188.39 1632.27 1189.02 1632.09 1189.56 1631.75C1190.11 1631.41 1190.54 1630.93 1190.83 1630.35C1197.1 1617.51 1201 1600.5 1202.22 1580.69C1203.1 1580.17 1203.87 1579.48 1204.5 1578.66C1204.91 1578.13 1205.34 1577.57 1205.77 1576.99L1205.74 1576.97ZM1202.13 1552.33C1200.64 1528.33 1195.64 1504.6 1188.18 1487.34C1188.01 1486.92 1187.75 1486.53 1187.43 1486.21C1187.11 1485.89 1186.72 1485.63 1186.3 1485.46C1185.88 1485.29 1185.43 1485.2 1184.97 1485.21C1184.52 1485.22 1184.07 1485.31 1183.65 1485.5C1183.24 1485.68 1182.86 1485.95 1182.55 1486.28C1182.23 1486.61 1181.99 1487 1181.82 1487.43C1181.66 1487.86 1181.59 1488.32 1181.6 1488.78C1181.62 1489.24 1181.72 1489.69 1181.91 1490.11C1189.95 1508.74 1195.02 1535.25 1195.68 1561.28C1168.74 1540.12 1154.52 1519.03 1152.28 1496.91C1150.43 1478.54 1156.74 1460.61 1164.88 1442.47C1192.5 1458.01 1208.87 1476.29 1213.57 1496.92C1218.13 1516.83 1211.3 1536.49 1202.13 1552.33V1552.33Z" fill="#4B5265" fill-opacity="0.05"/>
</g>
<g clip-path="url(#clip1_410:43)">
<path d="M1387.95 3126.18C1387.46 3237.96 1297.08 3328.51 1186.43 3328.02C1160.08 3327.92 1134 3322.58 1109.7 3312.29C1085.39 3302 1063.33 3286.97 1044.78 3268.06C1026.23 3249.15 1011.55 3226.73 1001.58 3202.09C991.612 3177.44 986.551 3151.05 986.686 3124.42C986.698 3122.19 987.585 3120.06 989.15 3118.5C990.715 3116.93 992.832 3116.05 995.036 3116.06L1379.68 3117.75C1381.88 3117.76 1383.99 3118.66 1385.54 3120.24C1387.09 3121.82 1387.96 3123.96 1387.95 3126.18V3126.18ZM1003.46 3132.9C1003.97 3145.5 1005.74 3158.03 1008.75 3170.27L1365.47 3171.84C1368.61 3159.62 1370.49 3147.12 1371.1 3134.51L1003.46 3132.9ZM1363.57 3178.75L1010.59 3177.2C1021.67 3215.73 1044.79 3249.6 1076.5 3273.75C1108.2 3297.91 1146.79 3311.05 1186.5 3311.22C1269.87 3311.59 1340.7 3255.59 1363.57 3178.75V3178.75Z" fill="#4B5265" fill-opacity="0.05"/>
<path d="M1128.83 3273.71C1110.1 3265.46 1093.48 3253.01 1080.21 3237.31C1079.62 3236.61 1078.78 3236.18 1077.87 3236.11C1076.97 3236.03 1076.07 3236.33 1075.38 3236.92C1074.69 3237.52 1074.26 3238.37 1074.19 3239.28C1074.12 3240.2 1074.41 3241.11 1075 3241.8C1088.96 3258.3 1106.44 3271.38 1126.14 3280.06C1126.56 3280.25 1127.02 3280.34 1127.49 3280.35C1128.28 3280.35 1129.04 3280.08 1129.66 3279.58C1130.27 3279.08 1130.7 3278.38 1130.86 3277.6C1131.02 3276.82 1130.91 3276 1130.55 3275.3C1130.18 3274.59 1129.59 3274.03 1128.86 3273.71L1128.83 3273.71Z" fill="#4B5265" fill-opacity="0.05"/>
<path d="M1018.68 2934.55C1002.67 2917.32 1006.9 2892.01 1007.09 2891.02C1007.34 2889.56 1007.98 2888.19 1008.93 2887.06C1009.88 2885.93 1011.11 2885.07 1012.49 2884.57C1013.88 2884.08 1015.37 2883.96 1016.81 2884.23C1018.26 2884.51 1019.6 2885.17 1020.71 2886.14L1057.07 2917.93L1046.26 2862.46C1045.97 2860.98 1046.08 2859.45 1046.58 2858.03C1047.08 2856.61 1047.94 2855.35 1049.09 2854.39C1050.24 2853.42 1051.62 2852.78 1053.09 2852.55C1054.57 2852.31 1056.08 2852.47 1057.47 2853.03C1058.56 2853.46 1084.44 2864.02 1091.54 2889.04C1094.8 2900.46 1093.61 2912.7 1088.03 2925.59C1095.16 2924.49 1102.44 2925.06 1109.32 2927.25C1121.3 2931.26 1130.46 2940.43 1136.52 2954.48C1138.36 2958.88 1139.92 2963.39 1141.2 2967.99C1141.2 2968.09 1141.26 2968.19 1141.29 2968.29C1150.29 2999.9 1155.32 3052.85 1154.2 3080.67C1154.04 3085.24 1152.59 3089.68 1150.03 3093.46C1147.48 3097.24 1143.91 3100.21 1139.75 3102.02C1136.67 3103.39 1133.33 3104.09 1129.96 3104.08C1124.26 3104.05 1118.76 3101.97 1114.45 3098.21C1101.87 3087.35 1084.62 3069.1 1069.41 3050.58C1057.63 3036.22 1047.96 3022.82 1041.44 3011.82C1039.02 3007.8 1036.85 3003.63 1034.94 2999.34C1028.87 2985.3 1028.45 2972.29 1033.69 2960.69C1035.9 2955.86 1038.94 2951.47 1042.66 2947.72C1032.8 2945.5 1024.78 2941.12 1018.68 2934.55ZM1074 2947.64L1073.75 2947.77L1073.45 2947.91L1073.19 2948.04L1073.11 2948.04L1072.92 2948.11L1072.59 2948.24L1072.41 2948.31C1072.08 2948.41 1054.78 2954.22 1048.77 2967.72C1045.57 2974.89 1046.02 2983.03 1050.16 2992.62C1051.36 2995.33 1052.71 2997.97 1054.19 3000.54L1068.06 2993.14C1068.46 2992.91 1068.9 2992.77 1069.35 2992.71C1069.81 2992.66 1070.27 2992.7 1070.71 2992.83C1071.15 2992.96 1071.56 2993.18 1071.91 2993.47C1072.27 2993.76 1072.56 2994.12 1072.77 2994.53C1072.99 2994.94 1073.12 2995.39 1073.16 2995.85C1073.2 2996.31 1073.14 2996.77 1073 2997.21C1072.86 2997.65 1072.64 2998.06 1072.34 2998.41C1072.04 2998.76 1071.67 2999.05 1071.26 2999.25L1057.72 3006.48C1064.95 3017.73 1072.85 3028.53 1081.38 3038.81L1108.05 3026.55C1108.88 3026.17 1109.82 3026.14 1110.67 3026.46C1111.52 3026.78 1112.21 3027.43 1112.59 3028.26C1112.96 3029.1 1113 3030.05 1112.68 3030.91C1112.36 3031.77 1111.72 3032.47 1110.89 3032.85L1085.94 3044.38C1099.56 3060.62 1114.34 3076.07 1125.23 3085.47C1126.3 3086.4 1127.61 3087 1129 3087.22C1130.39 3087.43 1131.82 3087.24 1133.11 3086.67C1134.4 3086.1 1135.5 3085.17 1136.3 3084C1137.09 3082.82 1137.54 3081.44 1137.6 3080.02C1138.62 3054.74 1134.33 3007.74 1126.5 2977.36L1099.89 2989.29C1099.45 2989.49 1098.97 2989.59 1098.49 2989.59C1097.71 2989.59 1096.95 2989.31 1096.34 2988.81C1095.74 2988.31 1095.32 2987.62 1095.16 2986.84C1095 2986.07 1095.1 2985.26 1095.46 2984.56C1095.81 2983.85 1096.4 2983.29 1097.11 2982.97L1124.63 2970.63C1123.69 2967.45 1122.58 2964.32 1121.3 2961.27C1117.15 2951.68 1111.58 2945.81 1104.18 2943.31C1090.22 2938.53 1074.17 2947.48 1074 2947.59L1074 2947.64ZM1066.4 2878.92L1073.76 2916.64C1076.91 2908.33 1077.54 2900.71 1075.62 2893.83C1073.9 2888.11 1070.72 2882.95 1066.4 2878.87L1066.4 2878.92ZM1024.65 2911.82C1025.81 2916.04 1027.94 2919.91 1030.88 2923.13C1034.77 2927.32 1040.21 2930.11 1047.2 2931.51L1024.65 2911.82Z" fill="#4B5265" fill-opacity="0.05"/>
<path d="M1238.07 2976.48C1250.49 2945.9 1278.45 2925.85 1306.86 2925.97L1307.65 2925.98C1307.74 2925.74 1307.84 2925.49 1307.94 2925.26C1313.59 2911.48 1330.47 2905.39 1345.65 2911.68C1352.64 2914.5 1358.4 2919.75 1361.88 2926.49C1363.63 2929.79 1364.63 2933.43 1364.83 2937.16C1365.03 2940.89 1364.41 2944.62 1363.03 2948.09C1361.88 2950.94 1360.21 2953.54 1358.11 2955.77C1370.23 2976.09 1371.86 3003.43 1361.98 3027.85C1349.55 3058.43 1321.97 3078.44 1293.41 3078.37C1288.94 3085.73 1280.57 3089.97 1271.56 3089.93C1267.73 3089.91 1263.95 3089.14 1260.42 3087.66C1246.48 3081.88 1239.33 3066.81 1244.5 3054.15C1244.64 3053.8 1244.79 3053.46 1244.95 3053.11C1230.06 3032.42 1227.25 3003.1 1238.07 2976.48ZM1261.48 3047.06C1262.9 3048.65 1263.66 3050.73 1263.61 3052.87C1263.56 3055.02 1262.7 3057.06 1261.2 3058.58C1260.64 3059.14 1260.2 3059.81 1259.9 3060.55C1258.25 3064.6 1261.39 3069.91 1266.7 3072.14C1272.01 3074.37 1277.99 3072.81 1279.64 3068.75C1279.75 3068.44 1279.84 3068.13 1279.91 3067.81C1280.36 3065.81 1281.53 3064.04 1283.18 3062.85C1284.84 3061.66 1286.87 3061.12 1288.89 3061.34C1312.35 3063.84 1336.02 3047.45 1346.56 3021.5C1355.46 2999.64 1352.91 2975.16 1340.1 2959.15C1339.3 2958.15 1338.74 2956.99 1338.46 2955.74C1338.17 2954.49 1338.18 2953.2 1338.47 2951.95C1338.75 2950.71 1339.32 2949.54 1340.12 2948.55C1340.92 2947.56 1341.94 2946.77 1343.09 2946.23C1345.11 2945.37 1346.72 2943.76 1347.61 2941.73C1348.05 2940.49 1348.23 2939.18 1348.13 2937.87C1348.02 2936.57 1347.65 2935.29 1347.02 2934.15C1345.35 2930.96 1342.61 2928.5 1339.29 2927.19C1332.71 2924.46 1325.38 2926.48 1323.3 2931.6C1322.9 2932.61 1322.71 2933.69 1322.74 2934.78C1322.77 2936.01 1322.53 2937.22 1322.04 2938.35C1321.55 2939.47 1320.83 2940.47 1319.91 2941.28C1319 2942.09 1317.92 2942.68 1316.75 2943.02C1315.59 2943.37 1314.36 2943.45 1313.16 2943.26C1311 2942.91 1308.82 2942.74 1306.63 2942.73C1284.9 2942.64 1263.24 2958.59 1253.4 2982.82C1244.1 3005.86 1247.26 3031.06 1261.48 3047.06Z" fill="#4B5265" fill-opacity="0.05"/>
<path d="M1271.96 3036.13C1272.43 3036.37 1272.94 3036.5 1273.46 3036.5C1274.24 3036.5 1274.99 3036.23 1275.59 3035.75C1276.19 3035.26 1276.62 3034.59 1276.8 3033.83C1276.97 3033.07 1276.89 3032.27 1276.56 3031.57C1276.23 3030.86 1275.68 3030.29 1274.99 3029.94C1270.37 3027.61 1266.86 3023.53 1265.22 3018.58C1263.57 3013.64 1263.94 3008.24 1266.23 3003.57C1266.62 3002.75 1266.67 3001.81 1266.38 3000.95C1266.08 3000.09 1265.46 2999.38 1264.66 2998.98C1263.85 2998.58 1262.92 2998.51 1262.07 2998.8C1261.21 2999.09 1260.51 2999.7 1260.1 3000.51C1258.56 3003.64 1257.66 3007.04 1257.43 3010.53C1257.2 3014.02 1257.65 3017.51 1258.76 3020.82C1259.87 3024.13 1261.61 3027.19 1263.89 3029.81C1266.17 3032.44 1268.94 3034.59 1272.04 3036.13L1271.96 3036.13Z" fill="#4B5265" fill-opacity="0.05"/>
<path d="M1195.32 3088.07C1195.3 3091.23 1194.37 3094.31 1192.62 3096.93C1190.87 3099.55 1188.4 3101.59 1185.51 3102.78C1182.61 3103.98 1179.44 3104.28 1176.37 3103.65C1173.31 3103.03 1170.5 3101.49 1168.3 3099.25C1166.1 3097.01 1164.61 3094.16 1164.02 3091.06C1163.42 3087.96 1163.75 3084.75 1164.96 3081.84C1166.17 3078.93 1168.2 3076.44 1170.81 3074.7C1173.42 3072.96 1176.48 3072.04 1179.6 3072.05C1183.79 3072.08 1187.79 3073.78 1190.73 3076.78C1193.68 3079.79 1195.33 3083.85 1195.32 3088.07V3088.07ZM1188.47 3088.04C1188.48 3086.25 1187.96 3084.5 1186.98 3083.01C1186.01 3081.52 1184.61 3080.36 1182.98 3079.66C1181.35 3078.97 1179.55 3078.79 1177.81 3079.13C1176.07 3079.47 1174.47 3080.33 1173.22 3081.59C1171.96 3082.85 1171.1 3084.45 1170.75 3086.21C1170.4 3087.96 1170.57 3089.78 1171.24 3091.44C1171.91 3093.09 1173.05 3094.51 1174.52 3095.51C1175.99 3096.5 1177.72 3097.04 1179.49 3097.05C1181.86 3097.05 1184.14 3096.11 1185.82 3094.42C1187.51 3092.73 1188.46 3090.44 1188.47 3088.04V3088.04Z" fill="#4B5265" fill-opacity="0.05"/>
<path d="M1260.03 2885.06C1260.04 2881.37 1261.14 2877.77 1263.18 2874.72C1265.22 2871.66 1268.11 2869.28 1271.48 2867.89C1274.86 2866.49 1278.57 2866.14 1282.14 2866.87C1285.72 2867.6 1289 2869.39 1291.57 2872.01C1294.14 2874.62 1295.88 2877.95 1296.58 2881.57C1297.27 2885.18 1296.9 2888.93 1295.49 2892.33C1294.08 2895.73 1291.71 2898.63 1288.67 2900.67C1285.63 2902.7 1282.06 2903.79 1278.41 2903.77C1273.52 2903.75 1268.83 2901.77 1265.38 2898.26C1261.94 2894.75 1260.01 2890 1260.03 2885.06V2885.06ZM1266.87 2885.09C1266.86 2887.4 1267.53 2889.67 1268.79 2891.61C1270.06 2893.54 1271.86 2895.05 1273.97 2895.95C1276.09 2896.85 1278.42 2897.09 1280.67 2896.65C1282.92 2896.21 1285 2895.11 1286.63 2893.48C1288.26 2891.85 1289.37 2889.77 1289.84 2887.5C1290.3 2885.23 1290.08 2882.87 1289.21 2880.72C1288.35 2878.58 1286.87 2876.74 1284.97 2875.44C1283.07 2874.14 1280.84 2873.44 1278.54 2873.43C1275.47 2873.41 1272.51 2874.63 1270.32 2876.82C1268.13 2879 1266.89 2881.98 1266.87 2885.09V2885.09Z" fill="#4B5265" fill-opacity="0.05"/>
<path d="M992.904 3038.1C992.92 3034.12 994.103 3030.24 996.303 3026.94C998.504 3023.64 1001.62 3021.08 1005.27 3019.57C1008.91 3018.07 1012.91 3017.69 1016.77 3018.48C1020.63 3019.28 1024.16 3021.21 1026.93 3024.03C1029.7 3026.86 1031.58 3030.45 1032.33 3034.36C1033.08 3038.26 1032.66 3042.3 1031.13 3045.97C1029.61 3049.63 1027.04 3052.76 1023.76 3054.95C1020.47 3057.14 1016.62 3058.3 1012.68 3058.28C1007.41 3058.24 1002.37 3056.1 998.667 3052.32C994.961 3048.53 992.889 3043.42 992.904 3038.1V3038.1ZM999.751 3038.13C999.739 3040.74 1000.49 3043.29 1001.92 3045.47C1003.34 3047.64 1005.38 3049.34 1007.76 3050.35C1010.14 3051.35 1012.76 3051.63 1015.3 3051.13C1017.83 3050.63 1020.16 3049.38 1021.99 3047.54C1023.82 3045.7 1025.07 3043.35 1025.59 3040.8C1026.1 3038.24 1025.85 3035.59 1024.87 3033.17C1023.88 3030.76 1022.22 3028.7 1020.07 3027.24C1017.93 3025.79 1015.41 3025.01 1012.83 3025C1009.37 3025 1006.06 3026.38 1003.61 3028.84C1001.15 3031.3 999.768 3034.64 999.751 3038.13Z" fill="#4B5265" fill-opacity="0.05"/>
<path d="M1363.25 3081.94C1363.24 3084.16 1362.58 3086.32 1361.35 3088.16C1360.13 3090 1358.39 3091.42 1356.37 3092.26C1354.34 3093.1 1352.11 3093.32 1349.96 3092.88C1347.81 3092.44 1345.84 3091.36 1344.3 3089.79C1342.75 3088.22 1341.71 3086.22 1341.29 3084.04C1340.87 3081.87 1341.1 3079.62 1341.94 3077.58C1342.79 3075.53 1344.22 3073.79 1346.05 3072.57C1347.88 3071.35 1350.02 3070.7 1352.21 3070.71C1355.15 3070.72 1357.96 3071.92 1360.03 3074.02C1362.1 3076.13 1363.25 3078.98 1363.25 3081.94V3081.94ZM1356.4 3081.91C1356.4 3081.07 1356.16 3080.24 1355.7 3079.53C1355.23 3078.83 1354.57 3078.28 1353.8 3077.95C1353.03 3077.62 1352.18 3077.53 1351.36 3077.69C1350.53 3077.86 1349.78 3078.26 1349.18 3078.86C1348.59 3079.45 1348.18 3080.21 1348.01 3081.04C1347.85 3081.87 1347.93 3082.73 1348.24 3083.52C1348.56 3084.3 1349.1 3084.97 1349.8 3085.44C1350.49 3085.92 1351.31 3086.17 1352.14 3086.17C1353.27 3086.18 1354.35 3085.73 1355.14 3084.93C1355.94 3084.13 1356.39 3083.05 1356.4 3081.91Z" fill="#4B5265" fill-opacity="0.05"/>
<path d="M1111.97 2858.51C1111.98 2856.3 1112.64 2854.14 1113.86 2852.3C1115.09 2850.46 1116.83 2849.04 1118.86 2848.2C1120.89 2847.36 1123.11 2847.15 1125.26 2847.59C1127.41 2848.03 1129.38 2849.11 1130.92 2850.68C1132.47 2852.26 1133.51 2854.26 1133.93 2856.43C1134.35 2858.61 1134.11 2860.86 1133.27 2862.9C1132.42 2864.94 1130.99 2866.68 1129.16 2867.9C1127.33 2869.12 1125.18 2869.77 1122.99 2869.76C1120.05 2869.74 1117.24 2868.55 1115.18 2866.44C1113.11 2864.33 1111.96 2861.48 1111.97 2858.51ZM1118.81 2858.54C1118.81 2859.39 1119.06 2860.22 1119.52 2860.93C1119.98 2861.63 1120.64 2862.18 1121.41 2862.51C1122.19 2862.84 1123.04 2862.92 1123.86 2862.76C1124.68 2862.6 1125.44 2862.19 1126.03 2861.6C1126.63 2861 1127.03 2860.24 1127.2 2859.41C1127.37 2858.58 1127.28 2857.72 1126.97 2856.94C1126.65 2856.15 1126.11 2855.48 1125.41 2855.01C1124.71 2854.54 1123.9 2854.29 1123.06 2854.28C1121.94 2854.28 1120.86 2854.73 1120.06 2855.53C1119.27 2856.33 1118.82 2857.41 1118.81 2858.54Z" fill="#4B5265" fill-opacity="0.05"/>
<path d="M1177.7 2980.76C1162.75 2960.59 1146.46 2929.64 1154.23 2896.76C1160.67 2869.28 1182.69 2845.97 1219.65 2827.46C1220.65 2826.97 1221.73 2826.68 1222.84 2826.61C1223.94 2826.54 1225.05 2826.7 1226.1 2827.07C1227.15 2827.45 1228.11 2828.03 1228.93 2828.78C1229.75 2829.54 1230.41 2830.45 1230.88 2831.46C1241.54 2854.64 1250.92 2877.53 1248.17 2902.87C1245.05 2931.89 1226.14 2958.49 1190.34 2984.19C1189.66 2984.68 1188.91 2985.06 1188.12 2985.32C1189.23 3003.68 1192.75 3019.41 1198.43 3031.2C1198.63 3031.6 1198.75 3032.05 1198.77 3032.5C1198.8 3032.96 1198.74 3033.41 1198.59 3033.84C1198.45 3034.27 1198.22 3034.67 1197.92 3035.01C1197.62 3035.35 1197.26 3035.62 1196.86 3035.82C1196.38 3036.05 1195.86 3036.17 1195.34 3036.17C1194.7 3036.17 1194.08 3035.99 1193.53 3035.64C1192.99 3035.3 1192.56 3034.81 1192.28 3034.23C1186.08 3021.36 1182.3 3004.32 1181.2 2984.51C1180.33 2983.97 1179.56 2983.28 1178.94 2982.46C1178.53 2981.93 1178.1 2981.36 1177.67 2980.78L1177.7 2980.76ZM1181.47 2956.15C1183.11 2932.15 1188.26 2908.46 1195.83 2891.25C1196.01 2890.82 1196.26 2890.44 1196.59 2890.12C1196.92 2889.8 1197.3 2889.54 1197.72 2889.37C1198.15 2889.21 1198.6 2889.12 1199.05 2889.13C1199.51 2889.14 1199.96 2889.24 1200.37 2889.43C1200.79 2889.62 1201.16 2889.88 1201.47 2890.22C1201.79 2890.55 1202.03 2890.95 1202.19 2891.38C1202.35 2891.81 1202.42 2892.26 1202.4 2892.72C1202.39 2893.18 1202.28 2893.63 1202.09 2894.05C1193.93 2912.63 1188.69 2939.11 1187.87 2965.14C1214.94 2944.15 1229.29 2923.14 1231.67 2901.04C1233.64 2882.69 1227.44 2864.71 1219.42 2846.52C1191.7 2861.89 1175.21 2880.07 1170.38 2900.66C1165.69 2920.54 1172.41 2940.25 1181.47 2956.15V2956.15Z" fill="#4B5265" fill-opacity="0.05"/>
</g>
<g clip-path="url(#clip2_410:43)">
<path d="M420.644 2423.61C420.153 2535.38 329.774 2625.93 219.12 2625.44C192.768 2625.34 166.693 2620 142.388 2609.71C118.082 2599.42 96.0232 2584.39 77.4719 2565.49C58.9205 2546.58 44.2409 2524.16 34.2727 2499.51C24.3044 2474.86 19.243 2448.47 19.378 2421.85C19.3904 2419.62 20.2765 2417.49 21.8419 2415.92C23.4073 2414.35 25.5242 2413.47 27.7282 2413.48L412.367 2415.17C414.571 2415.18 416.68 2416.08 418.232 2417.66C419.784 2419.24 420.651 2421.38 420.644 2423.61V2423.61ZM36.1534 2430.32C36.657 2442.93 38.4273 2455.45 41.4369 2467.7L398.163 2469.26C401.298 2457.05 403.185 2444.54 403.794 2431.93L36.1534 2430.32ZM396.265 2476.17L43.2844 2474.62C54.3651 2513.15 77.4846 2547.02 109.19 2571.18C140.895 2595.33 179.484 2608.47 219.194 2608.64C302.561 2609.01 373.393 2553.01 396.265 2476.17V2476.17Z" fill="#4B5265" fill-opacity="0.05"/>
<path d="M161.517 2571.14C142.792 2562.88 126.169 2550.43 112.902 2534.73C112.312 2534.04 111.472 2533.6 110.566 2533.53C109.661 2533.46 108.763 2533.75 108.072 2534.35C107.381 2534.94 106.952 2535.79 106.88 2536.71C106.808 2537.62 107.099 2538.53 107.689 2539.23C121.651 2555.73 139.137 2568.81 158.829 2577.49C159.255 2577.67 159.714 2577.77 160.177 2577.77C160.967 2577.78 161.734 2577.5 162.349 2577C162.964 2576.5 163.389 2575.8 163.551 2575.02C163.713 2574.24 163.603 2573.43 163.24 2572.72C162.876 2572.01 162.281 2571.45 161.556 2571.14L161.517 2571.14Z" fill="#4B5265" fill-opacity="0.05"/>
<path d="M51.3726 2231.97C35.3595 2214.74 39.5883 2189.43 39.7784 2188.44C40.0357 2186.98 40.6716 2185.61 41.6215 2184.48C42.5714 2183.35 43.8013 2182.49 45.186 2182C46.5707 2181.5 48.0608 2181.38 49.5044 2181.66C50.9481 2181.93 52.2938 2182.59 53.4045 2183.56L89.7656 2215.35L78.9476 2159.89C78.659 2158.41 78.7699 2156.88 79.2688 2155.46C79.7677 2154.03 80.6361 2152.77 81.7829 2151.81C82.9297 2150.84 84.3125 2150.21 85.7862 2149.97C87.2599 2149.73 88.7701 2149.9 90.1583 2150.45C91.2519 2150.88 117.134 2161.44 124.232 2186.46C127.487 2197.88 126.299 2210.13 120.726 2223.01C127.854 2221.91 135.135 2222.48 142.011 2224.67C153.994 2228.68 163.147 2237.85 169.208 2251.9C171.05 2256.3 172.615 2260.81 173.892 2265.41C173.892 2265.51 173.95 2265.62 173.979 2265.72C182.985 2297.32 188.014 2350.27 186.894 2378.09C186.73 2382.67 185.285 2387.1 182.727 2390.88C180.169 2394.66 176.603 2397.63 172.443 2399.44C169.357 2400.81 166.023 2401.51 162.653 2401.5C156.955 2401.47 151.455 2399.39 147.138 2395.64C134.559 2384.77 117.308 2366.52 102.103 2348C90.3217 2333.64 80.649 2320.24 74.1347 2309.24C71.7095 2305.23 69.5391 2301.06 67.6366 2296.76C61.5659 2282.72 61.1438 2269.72 66.3785 2258.11C68.5916 2253.29 71.6306 2248.9 75.3552 2245.14C65.4964 2242.93 57.4761 2238.54 51.3726 2231.97ZM106.692 2245.06L106.437 2245.19L106.143 2245.34L105.879 2245.47L105.8 2245.46L105.614 2245.53L105.281 2245.66L105.105 2245.73C104.772 2245.84 87.474 2251.64 81.4584 2265.14C78.258 2272.31 78.7112 2280.46 82.8552 2290.04C84.0567 2292.75 85.4 2295.4 86.8793 2297.96L100.751 2290.56C101.149 2290.34 101.589 2290.19 102.044 2290.14C102.499 2290.08 102.959 2290.12 103.399 2290.25C103.839 2290.38 104.248 2290.6 104.603 2290.89C104.957 2291.18 105.251 2291.55 105.465 2291.95C105.679 2292.36 105.81 2292.81 105.849 2293.27C105.889 2293.73 105.837 2294.2 105.696 2294.64C105.555 2295.08 105.328 2295.49 105.028 2295.84C104.729 2296.19 104.363 2296.47 103.952 2296.68L90.4133 2303.9C97.6404 2315.16 105.543 2325.96 114.077 2336.24L140.743 2323.97C141.57 2323.59 142.512 2323.56 143.363 2323.88C144.213 2324.2 144.903 2324.85 145.279 2325.69C145.655 2326.52 145.688 2327.47 145.37 2328.33C145.051 2329.19 144.408 2329.89 143.581 2330.27L118.63 2341.8C132.251 2358.04 147.03 2373.49 157.923 2382.9C158.992 2383.82 160.298 2384.43 161.691 2384.64C163.084 2384.85 164.507 2384.66 165.799 2384.09C167.09 2383.52 168.196 2382.6 168.99 2381.42C169.785 2380.25 170.235 2378.87 170.29 2377.45C171.311 2352.16 167.018 2305.16 159.19 2274.78L132.584 2286.71C132.144 2286.91 131.667 2287.01 131.184 2287.01C130.401 2287.01 129.643 2286.73 129.037 2286.23C128.43 2285.73 128.011 2285.04 127.85 2284.27C127.688 2283.49 127.794 2282.69 128.15 2281.98C128.506 2281.28 129.09 2280.72 129.805 2280.39L157.323 2268.05C156.384 2264.87 155.271 2261.75 153.989 2258.69C149.845 2249.11 144.277 2243.23 136.874 2240.73C122.909 2235.95 106.859 2244.91 106.692 2245.01L106.692 2245.06ZM99.0915 2176.34L106.457 2214.06C109.603 2205.76 110.234 2198.13 108.308 2191.25C106.588 2185.54 103.409 2180.38 99.0917 2176.29L99.0915 2176.34ZM57.3408 2209.24C58.4995 2213.46 60.6348 2217.34 63.5702 2220.55C67.464 2224.74 72.906 2227.54 79.8961 2228.94L57.3408 2209.24Z" fill="#4B5265" fill-opacity="0.05"/>
<path d="M270.76 2273.9C283.179 2243.32 311.141 2223.27 339.553 2223.4L340.345 2223.4C340.434 2223.16 340.533 2222.92 340.632 2222.68C346.277 2208.9 363.165 2202.81 378.346 2209.1C385.335 2211.92 391.092 2217.18 394.576 2223.92C396.318 2227.21 397.323 2230.85 397.521 2234.59C397.719 2238.32 397.106 2242.05 395.723 2245.51C394.572 2248.36 392.902 2250.97 390.799 2253.19C402.925 2273.51 404.556 2300.85 394.668 2325.28C382.24 2355.86 354.659 2375.86 326.1 2375.79C321.628 2383.15 313.266 2387.39 304.249 2387.35C300.425 2387.33 296.642 2386.56 293.109 2385.08C279.168 2379.31 272.026 2364.24 277.187 2351.57C277.335 2351.22 277.483 2350.88 277.641 2350.53C262.749 2329.85 259.943 2300.52 270.76 2273.9ZM294.168 2344.48C295.589 2346.07 296.353 2348.15 296.301 2350.3C296.25 2352.44 295.388 2354.48 293.892 2356C293.334 2356.56 292.892 2357.23 292.592 2357.97C290.941 2362.03 294.077 2367.34 299.388 2369.56C304.699 2371.79 310.681 2370.24 312.333 2366.17C312.443 2365.87 312.533 2365.55 312.601 2365.23C313.054 2363.23 314.218 2361.47 315.873 2360.27C317.527 2359.08 319.557 2358.54 321.578 2358.76C345.04 2361.27 368.713 2344.88 379.253 2318.92C388.151 2297.06 385.599 2272.59 372.788 2256.57C371.992 2255.57 371.431 2254.41 371.149 2253.16C370.866 2251.92 370.87 2250.62 371.158 2249.37C371.447 2248.13 372.013 2246.97 372.814 2245.98C373.614 2244.98 374.629 2244.19 375.779 2243.66C377.798 2242.79 379.414 2241.18 380.298 2239.15C380.74 2237.92 380.918 2236.6 380.817 2235.3C380.716 2233.99 380.341 2232.72 379.715 2231.57C378.046 2228.39 375.301 2225.92 371.98 2224.62C365.4 2221.88 358.075 2223.9 355.989 2229.02C355.593 2230.03 355.405 2231.12 355.437 2232.2C355.464 2233.43 355.224 2234.65 354.735 2235.77C354.245 2236.89 353.518 2237.89 352.604 2238.7C351.691 2239.51 350.613 2240.11 349.446 2240.45C348.28 2240.79 347.054 2240.87 345.854 2240.68C343.693 2240.34 341.51 2240.16 339.323 2240.16C317.591 2240.06 295.935 2256.01 286.088 2280.24C276.793 2303.28 279.949 2328.49 294.168 2344.48Z" fill="#4B5265" fill-opacity="0.05"/>
<path d="M304.652 2333.56C305.118 2333.8 305.634 2333.92 306.157 2333.92C306.928 2333.92 307.677 2333.66 308.282 2333.17C308.887 2332.69 309.312 2332.01 309.488 2331.25C309.665 2330.49 309.583 2329.7 309.255 2328.99C308.927 2328.29 308.373 2327.71 307.682 2327.37C303.064 2325.04 299.549 2320.95 297.907 2316.01C296.266 2311.06 296.633 2305.66 298.927 2300.99C299.313 2300.17 299.363 2299.23 299.068 2298.37C298.773 2297.51 298.156 2296.81 297.35 2296.41C296.544 2296 295.614 2295.94 294.76 2296.22C293.906 2296.51 293.198 2297.12 292.788 2297.93C291.256 2301.06 290.35 2304.47 290.121 2307.95C289.892 2311.44 290.345 2314.94 291.454 2318.24C292.563 2321.55 294.306 2324.61 296.584 2327.24C298.862 2329.86 301.63 2332.01 304.73 2333.56L304.652 2333.56Z" fill="#4B5265" fill-opacity="0.05"/>
<path d="M228.009 2385.5C227.997 2388.65 227.058 2391.74 225.312 2394.36C223.566 2396.97 221.09 2399.01 218.198 2400.21C215.306 2401.4 212.128 2401.71 209.065 2401.08C206.003 2400.45 203.194 2398.92 200.994 2396.67C198.795 2394.43 197.303 2391.58 196.707 2388.48C196.111 2385.38 196.439 2382.17 197.649 2379.26C198.858 2376.35 200.895 2373.87 203.502 2372.13C206.109 2370.38 209.168 2369.46 212.293 2369.48C216.477 2369.5 220.481 2371.2 223.426 2374.21C226.372 2377.21 228.02 2381.27 228.009 2385.5V2385.5ZM221.163 2385.47C221.17 2383.68 220.653 2381.93 219.676 2380.44C218.698 2378.94 217.305 2377.78 215.672 2377.09C214.04 2376.4 212.241 2376.21 210.503 2376.55C208.765 2376.89 207.167 2377.75 205.91 2379.01C204.653 2380.27 203.794 2381.88 203.443 2383.63C203.091 2385.38 203.261 2387.2 203.933 2388.86C204.604 2390.51 205.747 2391.93 207.215 2392.93C208.684 2393.93 210.413 2394.46 212.183 2394.47C214.555 2394.48 216.833 2393.53 218.517 2391.85C220.2 2390.16 221.152 2387.86 221.163 2385.47V2385.47Z" fill="#4B5265" fill-opacity="0.05"/>
<path d="M292.718 2182.48C292.735 2178.79 293.832 2175.2 295.871 2172.14C297.911 2169.08 300.801 2166.71 304.176 2165.31C307.552 2163.92 311.261 2163.56 314.836 2164.29C318.41 2165.03 321.689 2166.82 324.258 2169.43C326.827 2172.05 328.571 2175.37 329.269 2178.99C329.967 2182.61 329.588 2186.35 328.18 2189.75C326.772 2193.15 324.398 2196.05 321.358 2198.09C318.318 2200.13 314.749 2201.21 311.102 2201.2C306.208 2201.18 301.523 2199.19 298.076 2195.68C294.629 2192.17 292.702 2187.42 292.718 2182.48V2182.48ZM299.565 2182.51C299.552 2184.83 300.221 2187.1 301.485 2189.03C302.749 2190.96 304.552 2192.47 306.666 2193.37C308.781 2194.27 311.111 2194.52 313.363 2194.08C315.615 2193.64 317.688 2192.53 319.319 2190.9C320.95 2189.27 322.067 2187.19 322.527 2184.92C322.988 2182.65 322.772 2180.29 321.907 2178.15C321.041 2176 319.566 2174.16 317.666 2172.86C315.767 2171.56 313.529 2170.86 311.235 2170.85C308.158 2170.83 305.2 2172.05 303.012 2174.24C300.823 2176.42 299.583 2179.4 299.565 2182.51V2182.51Z" fill="#4B5265" fill-opacity="0.05"/>
<path d="M25.5964 2335.52C25.6119 2331.55 26.7948 2327.66 28.9954 2324.37C31.1959 2321.07 34.3152 2318.5 37.9584 2317C41.6016 2315.49 45.605 2315.11 49.4619 2315.91C53.3188 2316.7 56.8559 2318.63 59.6254 2321.46C62.3949 2324.28 64.2725 2327.88 65.0204 2331.78C65.7683 2335.68 65.353 2339.73 63.827 2343.39C62.301 2347.06 59.7329 2350.18 56.4477 2352.38C53.1626 2354.57 49.308 2355.72 45.3719 2355.7C40.1043 2355.66 35.0658 2353.52 31.3594 2349.74C27.653 2345.96 25.5808 2340.85 25.5964 2335.52V2335.52ZM32.4426 2335.55C32.4311 2338.16 33.1859 2340.72 34.6113 2342.89C36.0366 2345.06 38.0686 2346.76 40.4499 2347.77C42.8313 2348.78 45.4549 2349.05 47.9888 2348.55C50.5227 2348.05 52.8529 2346.8 54.6845 2344.96C56.5161 2343.12 57.7667 2340.78 58.278 2338.22C58.7894 2335.66 58.5385 2333.01 57.5571 2330.6C56.5757 2328.19 54.9079 2326.12 52.7648 2324.67C50.6218 2323.21 48.0998 2322.43 45.5181 2322.43C42.0637 2322.42 38.748 2323.8 36.2973 2326.26C33.8466 2328.72 32.4605 2332.06 32.4426 2335.55Z" fill="#4B5265" fill-opacity="0.05"/>
<path d="M395.937 2379.37C395.929 2381.58 395.271 2383.74 394.047 2385.58C392.822 2387.42 391.086 2388.85 389.058 2389.69C387.029 2390.53 384.8 2390.74 382.651 2390.3C380.503 2389.86 378.532 2388.79 376.989 2387.21C375.445 2385.64 374.397 2383.64 373.978 2381.47C373.559 2379.29 373.788 2377.04 374.636 2375C375.483 2372.96 376.911 2371.21 378.739 2369.99C380.567 2368.77 382.713 2368.12 384.905 2368.13C387.841 2368.15 390.652 2369.34 392.72 2371.44C394.788 2373.55 395.945 2376.4 395.937 2379.37V2379.37ZM389.091 2379.34C389.094 2378.49 388.85 2377.66 388.387 2376.96C387.925 2376.25 387.266 2375.7 386.494 2375.37C385.721 2375.04 384.87 2374.96 384.048 2375.12C383.226 2375.28 382.469 2375.68 381.874 2376.28C381.279 2376.88 380.873 2377.64 380.706 2378.47C380.539 2379.29 380.619 2380.16 380.936 2380.94C381.253 2381.72 381.793 2382.39 382.487 2382.87C383.182 2383.34 383.999 2383.59 384.837 2383.6C385.96 2383.6 387.039 2383.16 387.837 2382.36C388.635 2381.56 389.086 2380.47 389.091 2379.34Z" fill="#4B5265" fill-opacity="0.05"/>
<path d="M144.66 2155.94C144.669 2153.72 145.329 2151.56 146.555 2149.72C147.781 2147.89 149.519 2146.46 151.548 2145.62C153.577 2144.78 155.807 2144.57 157.955 2145.01C160.103 2145.46 162.072 2146.53 163.615 2148.11C165.157 2149.68 166.203 2151.68 166.62 2153.86C167.037 2156.03 166.806 2158.28 165.957 2160.32C165.108 2162.36 163.678 2164.11 161.849 2165.33C160.02 2166.55 157.874 2167.19 155.682 2167.18C152.746 2167.16 149.936 2165.97 147.87 2163.86C145.804 2161.75 144.649 2158.9 144.66 2155.94ZM151.506 2155.97C151.502 2156.81 151.747 2157.64 152.21 2158.35C152.673 2159.05 153.332 2159.61 154.105 2159.93C154.878 2160.26 155.73 2160.35 156.552 2160.19C157.375 2160.02 158.131 2159.62 158.726 2159.02C159.32 2158.42 159.726 2157.66 159.892 2156.83C160.058 2156 159.977 2155.14 159.658 2154.36C159.339 2153.58 158.798 2152.91 158.102 2152.43C157.407 2151.96 156.588 2151.71 155.75 2151.71C154.629 2151.7 153.552 2152.15 152.756 2152.95C151.961 2153.75 151.511 2154.83 151.506 2155.97Z" fill="#4B5265" fill-opacity="0.05"/>
<path d="M210.396 2278.18C195.442 2258.01 179.157 2227.06 186.92 2194.19C193.359 2166.7 215.38 2143.39 252.343 2124.89C253.338 2124.39 254.422 2124.1 255.529 2124.03C256.637 2123.97 257.746 2124.13 258.793 2124.5C259.839 2124.87 260.801 2125.45 261.622 2126.21C262.443 2126.96 263.106 2127.87 263.573 2128.89C274.23 2152.06 283.616 2174.96 280.864 2200.29C277.744 2229.31 258.829 2255.91 223.037 2281.61C222.356 2282.1 221.606 2282.48 220.812 2282.74C221.924 2301.11 225.445 2316.83 231.124 2328.62C231.322 2329.03 231.438 2329.47 231.465 2329.93C231.493 2330.38 231.432 2330.83 231.286 2331.26C231.139 2331.69 230.911 2332.09 230.613 2332.43C230.315 2332.77 229.953 2333.05 229.549 2333.25C229.075 2333.48 228.557 2333.6 228.031 2333.6C227.393 2333.59 226.768 2333.41 226.227 2333.07C225.686 2332.72 225.25 2332.24 224.969 2331.66C218.776 2318.78 214.987 2301.74 213.891 2281.93C213.018 2281.4 212.252 2280.7 211.631 2279.88C211.222 2279.35 210.794 2278.78 210.367 2278.2L210.396 2278.18ZM214.162 2253.57C215.803 2229.57 220.954 2205.88 228.521 2188.67C228.698 2188.25 228.957 2187.86 229.282 2187.54C229.607 2187.22 229.993 2186.97 230.415 2186.8C230.838 2186.63 231.29 2186.55 231.745 2186.56C232.199 2186.57 232.647 2186.67 233.063 2186.85C233.479 2187.04 233.853 2187.31 234.165 2187.64C234.477 2187.98 234.72 2188.37 234.88 2188.8C235.04 2189.23 235.113 2189.69 235.095 2190.15C235.078 2190.61 234.97 2191.06 234.778 2191.47C226.618 2210.05 221.387 2236.54 220.558 2262.56C247.635 2241.57 261.987 2220.57 264.363 2198.46C266.331 2180.11 260.131 2162.14 252.113 2143.95C224.396 2159.31 207.904 2177.49 203.07 2198.08C198.386 2217.96 205.097 2237.67 214.162 2253.57V2253.57Z" fill="#4B5265" fill-opacity="0.05"/>
</g>
<g clip-path="url(#clip3_410:43)">
<path d="M402.644 3811.76C402.153 3923.53 311.774 4014.08 201.12 4013.6C174.768 4013.5 148.693 4008.15 124.388 3997.86C100.082 3987.58 78.0232 3972.55 59.4719 3953.64C40.9205 3934.73 26.2409 3912.31 16.2727 3887.66C6.3044 3863.02 1.24304 3836.62 1.37803 3810C1.3904 3807.77 2.27648 3805.64 3.84187 3804.07C5.40726 3802.5 7.52415 3801.63 9.72818 3801.64L394.367 3803.33C396.571 3803.34 398.68 3804.23 400.232 3805.81C401.784 3807.4 402.651 3809.53 402.644 3811.76V3811.76ZM18.1534 3818.47C18.657 3831.08 20.4273 3843.6 23.4369 3855.85L380.163 3857.42C383.298 3845.2 385.185 3832.69 385.794 3820.09L18.1534 3818.47ZM378.265 3864.33L25.2844 3862.77C36.3651 3901.3 59.4846 3935.17 91.1896 3959.33C122.895 3983.48 161.484 3996.63 201.194 3996.8C284.561 3997.16 355.393 3941.17 378.265 3864.33V3864.33Z" fill="#4B5265" fill-opacity="0.05"/>
<path d="M143.517 3959.29C124.792 3951.03 108.169 3938.59 94.9019 3922.89C94.3123 3922.19 93.4722 3921.76 92.5664 3921.68C91.6606 3921.61 90.7634 3921.9 90.0721 3922.5C89.3808 3923.1 88.952 3923.94 88.8801 3924.86C88.8083 3925.78 89.0991 3926.68 89.6888 3927.38C103.651 3943.88 121.137 3956.96 140.829 3965.64C141.255 3965.83 141.714 3965.92 142.177 3965.92C142.967 3965.93 143.734 3965.66 144.349 3965.16C144.964 3964.66 145.389 3963.96 145.551 3963.18C145.713 3962.39 145.603 3961.58 145.24 3960.87C144.876 3960.16 144.281 3959.6 143.556 3959.29L143.517 3959.29Z" fill="#4B5265" fill-opacity="0.05"/>
<path d="M33.3726 3620.13C17.3595 3602.89 21.5883 3577.58 21.7784 3576.6C22.0357 3575.13 22.6716 3573.77 23.6215 3572.64C24.5714 3571.5 25.8013 3570.64 27.186 3570.15C28.5707 3569.65 30.0608 3569.54 31.5044 3569.81C32.9481 3570.09 34.2938 3570.74 35.4045 3571.71L71.7656 3603.51L60.9476 3548.04C60.659 3546.56 60.7699 3545.03 61.2688 3543.61C61.7677 3542.19 62.6361 3540.93 63.7829 3539.96C64.9297 3539 66.3125 3538.36 67.7862 3538.12C69.2599 3537.88 70.7701 3538.05 72.1583 3538.6C73.2519 3539.03 99.1335 3549.59 106.232 3574.61C109.487 3586.03 108.299 3598.28 102.726 3611.16C109.854 3610.07 117.135 3610.64 124.011 3612.83C135.994 3616.83 145.147 3626 151.208 3640.05C153.05 3644.45 154.615 3648.96 155.892 3653.56C155.892 3653.66 155.95 3653.77 155.979 3653.87C164.985 3685.47 170.014 3738.42 168.894 3766.25C168.73 3770.82 167.285 3775.26 164.727 3779.03C162.169 3782.81 158.603 3785.78 154.443 3787.6C151.357 3788.96 148.023 3789.67 144.653 3789.66C138.955 3789.63 133.455 3787.55 129.138 3783.79C116.559 3772.92 99.3083 3754.67 84.1028 3736.16C72.3217 3721.8 62.649 3708.39 56.1347 3697.4C53.7095 3693.38 51.5391 3689.21 49.6366 3684.92C43.5659 3670.88 43.1438 3657.87 48.3785 3646.26C50.5916 3641.44 53.6306 3637.05 57.3552 3633.3C47.4964 3631.08 39.4761 3626.7 33.3726 3620.13ZM88.6922 3633.22L88.4374 3633.34L88.1433 3633.49L87.8787 3633.62L87.8004 3633.62L87.6143 3633.69L87.2812 3633.81L87.1048 3633.88C86.7718 3633.99 69.474 3639.79 63.4584 3653.3C60.258 3660.47 60.7112 3668.61 64.8552 3678.19C66.0567 3680.91 67.4 3683.55 68.8793 3686.12L82.7511 3678.72C83.1495 3678.49 83.5891 3678.34 84.0439 3678.29C84.4987 3678.24 84.9595 3678.28 85.399 3678.41C85.8385 3678.54 86.2478 3678.75 86.6026 3679.05C86.9575 3679.34 87.2506 3679.7 87.4648 3680.11C87.6789 3680.52 87.8097 3680.97 87.8494 3681.43C87.8891 3681.89 87.8368 3682.35 87.6958 3682.79C87.5547 3683.23 87.3277 3683.64 87.0281 3683.99C86.7286 3684.34 86.3626 3684.62 85.9519 3684.83L72.4133 3692.05C79.6404 3703.31 87.543 3714.11 96.0769 3724.39L122.743 3712.13C123.57 3711.75 124.512 3711.71 125.363 3712.03C126.213 3712.36 126.903 3713.01 127.279 3713.84C127.655 3714.68 127.688 3715.63 127.37 3716.49C127.051 3717.35 126.408 3718.04 125.581 3718.42L100.63 3729.96C114.251 3746.19 129.03 3761.64 139.923 3771.05C140.992 3771.98 142.298 3772.58 143.691 3772.79C145.084 3773 146.507 3772.81 147.799 3772.24C149.09 3771.68 150.196 3770.75 150.99 3769.57C151.785 3768.4 152.235 3767.02 152.29 3765.6C153.311 3740.32 149.018 3693.32 141.19 3662.94L114.584 3674.87C114.144 3675.07 113.667 3675.17 113.184 3675.17C112.401 3675.16 111.643 3674.89 111.037 3674.39C110.43 3673.89 110.011 3673.19 109.85 3672.42C109.688 3671.65 109.794 3670.84 110.15 3670.14C110.506 3669.43 111.09 3668.87 111.805 3668.55L139.323 3656.21C138.384 3653.03 137.271 3649.9 135.989 3646.84C131.845 3637.26 126.277 3631.39 118.874 3628.88C104.909 3624.11 88.8592 3633.06 88.6924 3633.17L88.6922 3633.22ZM81.0915 3564.49L88.4568 3602.22C91.6034 3593.91 92.2335 3586.28 90.3077 3579.41C88.5876 3573.69 85.4093 3568.53 81.0917 3564.44L81.0915 3564.49ZM39.3408 3597.4C40.4995 3601.61 42.6348 3605.49 45.5702 3608.71C49.464 3612.9 54.906 3615.69 61.8961 3617.09L39.3408 3597.4Z" fill="#4B5265" fill-opacity="0.05"/>
<path d="M252.76 3662.05C265.179 3631.47 293.141 3611.43 321.553 3611.55L322.345 3611.55C322.434 3611.32 322.533 3611.07 322.632 3610.83C328.277 3597.05 345.165 3590.96 360.346 3597.25C367.335 3600.07 373.092 3605.33 376.576 3612.07C378.318 3615.37 379.323 3619.01 379.521 3622.74C379.719 3626.47 379.106 3630.2 377.723 3633.67C376.572 3636.51 374.902 3639.12 372.799 3641.34C384.925 3661.66 386.556 3689.01 376.668 3713.43C364.24 3744.01 336.659 3764.02 308.1 3763.94C303.628 3771.3 295.266 3775.55 286.249 3775.51C282.425 3775.48 278.642 3774.71 275.109 3773.23C261.168 3767.46 254.026 3752.39 259.187 3739.72C259.335 3739.38 259.483 3739.03 259.641 3738.69C244.749 3718 241.943 3688.68 252.76 3662.05ZM276.168 3732.63C277.589 3734.23 278.353 3736.31 278.301 3738.45C278.25 3740.59 277.388 3742.63 275.892 3744.15C275.334 3744.72 274.892 3745.39 274.592 3746.13C272.941 3750.18 276.077 3755.49 281.388 3757.72C286.699 3759.94 292.681 3758.39 294.333 3754.33C294.443 3754.02 294.533 3753.71 294.601 3753.39C295.054 3751.39 296.218 3749.62 297.873 3748.43C299.527 3747.24 301.557 3746.7 303.578 3746.92C327.04 3749.42 350.713 3733.03 361.253 3707.08C370.151 3685.22 367.599 3660.74 354.788 3644.72C353.992 3643.73 353.431 3642.56 353.149 3641.32C352.866 3640.07 352.87 3638.77 353.158 3637.53C353.447 3636.28 354.013 3635.12 354.814 3634.13C355.614 3633.14 356.629 3632.34 357.779 3631.81C359.798 3630.94 361.414 3629.33 362.298 3627.3C362.74 3626.07 362.918 3624.76 362.817 3623.45C362.716 3622.14 362.341 3620.87 361.715 3619.72C360.046 3616.54 357.301 3614.07 353.98 3612.77C347.4 3610.03 340.075 3612.06 337.989 3617.18C337.593 3618.19 337.405 3619.27 337.437 3620.36C337.464 3621.58 337.224 3622.8 336.735 3623.92C336.245 3625.05 335.518 3626.05 334.604 3626.86C333.691 3627.66 332.613 3628.26 331.446 3628.6C330.28 3628.94 329.054 3629.02 327.854 3628.83C325.693 3628.49 323.51 3628.32 321.323 3628.31C299.591 3628.21 277.935 3644.17 268.088 3668.39C258.793 3691.44 261.949 3716.64 276.168 3732.63Z" fill="#4B5265" fill-opacity="0.05"/>
<path d="M286.652 3721.71C287.118 3721.95 287.634 3722.07 288.157 3722.07C288.928 3722.07 289.677 3721.81 290.282 3721.33C290.887 3720.84 291.312 3720.16 291.488 3719.41C291.665 3718.65 291.583 3717.85 291.255 3717.14C290.927 3716.44 290.373 3715.87 289.682 3715.52C285.064 3713.19 281.549 3709.1 279.907 3704.16C278.266 3699.22 278.633 3693.82 280.927 3689.14C281.313 3688.32 281.363 3687.38 281.068 3686.52C280.773 3685.67 280.156 3684.96 279.35 3684.56C278.544 3684.16 277.614 3684.09 276.76 3684.38C275.906 3684.66 275.198 3685.28 274.788 3686.08C273.256 3689.22 272.35 3692.62 272.121 3696.11C271.892 3699.59 272.345 3703.09 273.454 3706.4C274.563 3709.71 276.306 3712.76 278.584 3715.39C280.862 3718.02 283.63 3720.17 286.73 3721.71L286.652 3721.71Z" fill="#4B5265" fill-opacity="0.05"/>
<path d="M210.009 3773.65C209.997 3776.81 209.058 3779.89 207.312 3782.51C205.566 3785.13 203.09 3787.16 200.198 3788.36C197.306 3789.56 194.128 3789.86 191.065 3789.23C188.003 3788.6 185.194 3787.07 182.994 3784.83C180.795 3782.58 179.303 3779.73 178.707 3776.63C178.111 3773.53 178.439 3770.33 179.649 3767.41C180.858 3764.5 182.895 3762.02 185.502 3760.28C188.109 3758.54 191.168 3757.62 194.293 3757.63C198.477 3757.66 202.481 3759.36 205.426 3762.36C208.372 3765.36 210.02 3769.42 210.009 3773.65V3773.65ZM203.163 3773.62C203.17 3771.83 202.653 3770.08 201.676 3768.59C200.698 3767.1 199.305 3765.93 197.672 3765.24C196.04 3764.55 194.241 3764.36 192.503 3764.71C190.765 3765.05 189.167 3765.9 187.91 3767.16C186.653 3768.42 185.794 3770.03 185.443 3771.78C185.091 3773.54 185.261 3775.36 185.933 3777.01C186.604 3778.67 187.747 3780.08 189.215 3781.08C190.684 3782.08 192.413 3782.62 194.183 3782.62C196.555 3782.63 198.833 3781.69 200.517 3780C202.2 3778.31 203.152 3776.02 203.163 3773.62V3773.62Z" fill="#4B5265" fill-opacity="0.05"/>
<path d="M274.718 3570.63C274.735 3566.95 275.832 3563.35 277.871 3560.29C279.911 3557.24 282.801 3554.86 286.176 3553.47C289.552 3552.07 293.261 3551.71 296.836 3552.45C300.41 3553.18 303.689 3554.97 306.258 3557.58C308.827 3560.2 310.571 3563.53 311.269 3567.14C311.967 3570.76 311.588 3574.51 310.18 3577.91C308.772 3581.31 306.398 3584.21 303.358 3586.24C300.318 3588.28 296.749 3589.36 293.102 3589.35C288.208 3589.33 283.523 3587.34 280.076 3583.84C276.629 3580.33 274.702 3575.58 274.718 3570.63V3570.63ZM281.565 3570.66C281.552 3572.98 282.221 3575.25 283.485 3577.18C284.749 3579.12 286.552 3580.63 288.666 3581.53C290.781 3582.42 293.111 3582.67 295.363 3582.23C297.615 3581.79 299.688 3580.69 301.319 3579.06C302.95 3577.43 304.067 3575.35 304.527 3573.07C304.988 3570.8 304.772 3568.45 303.907 3566.3C303.041 3564.15 301.566 3562.32 299.666 3561.02C297.767 3559.72 295.529 3559.02 293.235 3559C290.158 3558.99 287.2 3560.21 285.012 3562.39C282.823 3564.58 281.583 3567.55 281.565 3570.66V3570.66Z" fill="#4B5265" fill-opacity="0.05"/>
<path d="M7.59639 3723.68C7.61194 3719.7 8.79483 3715.82 10.9954 3712.52C13.1959 3709.22 16.3152 3706.66 19.9584 3705.15C23.6016 3703.64 27.605 3703.26 31.4619 3704.06C35.3188 3704.85 38.8559 3706.78 41.6254 3709.61C44.3949 3712.44 46.2725 3716.03 47.0204 3719.93C47.7683 3723.84 47.353 3727.88 45.827 3731.54C44.301 3735.21 41.7329 3738.34 38.4477 3740.53C35.1626 3742.72 31.308 3743.88 27.3719 3743.85C22.1043 3743.82 17.0658 3741.67 13.3594 3737.89C9.65299 3734.11 7.58075 3729 7.59639 3723.68V3723.68ZM14.4426 3723.71C14.4311 3726.31 15.1859 3728.87 16.6113 3731.04C18.0366 3733.22 20.0686 3734.92 22.4499 3735.92C24.8313 3736.93 27.4549 3737.2 29.9888 3736.7C32.5227 3736.2 34.8529 3734.95 36.6845 3733.12C38.5161 3731.28 39.7667 3728.93 40.278 3726.37C40.7894 3723.82 40.5385 3721.16 39.5571 3718.75C38.5757 3716.34 36.9079 3714.27 34.7648 3712.82C32.6218 3711.37 30.0998 3710.59 27.5181 3710.58C24.0637 3710.58 20.748 3711.96 18.2973 3714.42C15.8466 3716.88 14.4605 3720.22 14.4426 3723.71Z" fill="#4B5265" fill-opacity="0.05"/>
<path d="M377.937 3767.52C377.929 3769.73 377.271 3771.9 376.047 3773.74C374.822 3775.57 373.086 3777 371.058 3777.84C369.029 3778.68 366.8 3778.89 364.651 3778.45C362.503 3778.01 360.532 3776.94 358.989 3775.37C357.445 3773.8 356.397 3771.8 355.978 3769.62C355.559 3767.45 355.788 3765.2 356.636 3763.15C357.483 3761.11 358.911 3759.37 360.739 3758.15C362.567 3756.92 364.713 3756.28 366.905 3756.28C369.841 3756.3 372.652 3757.49 374.72 3759.6C376.788 3761.7 377.945 3764.55 377.937 3767.52V3767.52ZM371.091 3767.49C371.094 3766.64 370.85 3765.82 370.387 3765.11C369.925 3764.4 369.266 3763.85 368.494 3763.53C367.721 3763.2 366.87 3763.11 366.048 3763.27C365.226 3763.43 364.469 3763.84 363.874 3764.43C363.279 3765.03 362.873 3765.79 362.706 3766.62C362.539 3767.45 362.619 3768.31 362.936 3769.09C363.253 3769.87 363.793 3770.55 364.487 3771.02C365.182 3771.49 365.999 3771.75 366.837 3771.75C367.96 3771.76 369.039 3771.31 369.837 3770.51C370.635 3769.71 371.086 3768.62 371.091 3767.49Z" fill="#4B5265" fill-opacity="0.05"/>
<path d="M126.66 3544.09C126.669 3541.88 127.329 3539.71 128.555 3537.88C129.781 3536.04 131.519 3534.61 133.548 3533.78C135.577 3532.94 137.807 3532.73 139.955 3533.17C142.103 3533.61 144.072 3534.69 145.615 3536.26C147.157 3537.83 148.203 3539.83 148.62 3542.01C149.037 3544.18 148.806 3546.43 147.957 3548.48C147.108 3550.52 145.678 3552.26 143.849 3553.48C142.02 3554.7 139.874 3555.35 137.682 3555.34C134.746 3555.32 131.936 3554.12 129.87 3552.02C127.804 3549.91 126.649 3547.06 126.66 3544.09ZM133.506 3544.12C133.502 3544.97 133.747 3545.8 134.21 3546.5C134.673 3547.21 135.332 3547.76 136.105 3548.09C136.878 3548.41 137.73 3548.5 138.552 3548.34C139.375 3548.18 140.131 3547.77 140.726 3547.17C141.32 3546.58 141.726 3545.82 141.892 3544.99C142.058 3544.16 141.977 3543.29 141.658 3542.51C141.339 3541.73 140.798 3541.06 140.102 3540.59C139.407 3540.11 138.588 3539.86 137.75 3539.86C136.629 3539.86 135.552 3540.3 134.756 3541.1C133.961 3541.9 133.511 3542.99 133.506 3544.12Z" fill="#4B5265" fill-opacity="0.05"/>
<path d="M192.396 3666.33C177.442 3646.17 161.157 3615.21 168.92 3582.34C175.359 3554.86 197.38 3531.54 234.343 3513.04C235.338 3512.54 236.422 3512.25 237.529 3512.19C238.637 3512.12 239.746 3512.28 240.793 3512.65C241.839 3513.02 242.801 3513.6 243.622 3514.36C244.443 3515.11 245.106 3516.02 245.573 3517.04C256.23 3540.21 265.616 3563.11 262.864 3588.45C259.744 3617.47 240.829 3644.06 205.037 3669.77C204.356 3670.26 203.606 3670.64 202.812 3670.89C203.924 3689.26 207.445 3704.99 213.124 3716.77C213.322 3717.18 213.438 3717.62 213.465 3718.08C213.493 3718.53 213.432 3718.99 213.286 3719.42C213.139 3719.85 212.911 3720.24 212.613 3720.58C212.315 3720.92 211.953 3721.2 211.549 3721.4C211.075 3721.63 210.557 3721.75 210.031 3721.75C209.393 3721.75 208.768 3721.56 208.227 3721.22C207.686 3720.88 207.25 3720.39 206.969 3719.81C200.776 3706.94 196.987 3689.89 195.891 3670.08C195.018 3669.55 194.252 3668.86 193.631 3668.04C193.222 3667.5 192.794 3666.94 192.367 3666.35L192.396 3666.33ZM196.162 3641.72C197.803 3617.73 202.954 3594.03 210.521 3576.82C210.698 3576.4 210.957 3576.02 211.282 3575.69C211.607 3575.37 211.993 3575.12 212.415 3574.95C212.838 3574.78 213.29 3574.7 213.745 3574.71C214.199 3574.72 214.647 3574.82 215.063 3575.01C215.479 3575.19 215.853 3575.46 216.165 3575.79C216.477 3576.13 216.72 3576.52 216.88 3576.95C217.04 3577.38 217.113 3577.84 217.095 3578.3C217.078 3578.76 216.97 3579.21 216.778 3579.63C208.618 3598.21 203.387 3624.69 202.558 3650.71C229.635 3629.73 243.987 3608.72 246.363 3586.61C248.331 3568.26 242.131 3550.29 234.113 3532.1C206.396 3547.46 189.904 3565.64 185.07 3586.24C180.386 3606.12 187.097 3625.82 196.162 3641.72V3641.72Z" fill="#4B5265" fill-opacity="0.05"/>
</g>
<g clip-path="url(#clip4_410:43)">
<path d="M25.9066 1002.47C25.6884 1114.24 115.49 1205.36 226.145 1205.58C252.498 1205.65 278.606 1200.47 302.976 1190.34C327.346 1180.2 349.5 1165.31 368.171 1146.52C386.842 1127.73 401.664 1105.41 411.788 1080.82C421.913 1056.24 427.141 1029.88 427.175 1003.25C427.177 1001.03 426.305 998.89 424.749 997.312C423.194 995.734 421.082 994.845 418.878 994.838L34.2363 994.087C32.0322 994.085 29.9175 994.967 28.3559 996.538C26.7944 998.11 25.9135 1000.24 25.9066 1002.47H25.9066ZM410.346 1011.62C409.763 1024.22 407.913 1036.74 404.826 1048.96L48.0969 1048.27C45.0398 1036.03 43.2323 1023.51 42.7026 1010.9L410.346 1011.62ZM49.9515 1055.19L402.935 1055.88C391.61 1094.33 368.276 1128.06 336.418 1152.01C304.56 1175.97 265.888 1188.86 226.178 1188.78C142.81 1188.62 72.3352 1132.17 49.9515 1055.19V1055.19Z" fill="#4B5265" fill-opacity="0.05"/>
<path d="M284.092 1151.64C302.869 1143.5 319.571 1131.16 332.937 1115.55C333.531 1114.85 334.374 1114.42 335.28 1114.36C336.186 1114.29 337.082 1114.59 337.769 1115.19C338.457 1115.79 338.88 1116.64 338.946 1117.56C339.012 1118.47 338.716 1119.38 338.122 1120.07C324.055 1136.48 306.486 1149.45 286.74 1158.01C286.312 1158.19 285.853 1158.28 285.389 1158.28C284.6 1158.28 283.834 1158.01 283.223 1157.5C282.611 1157 282.191 1156.29 282.033 1155.51C281.876 1154.73 281.991 1153.92 282.359 1153.21C282.727 1152.51 283.325 1151.95 284.053 1151.64L284.092 1151.64Z" fill="#4B5265" fill-opacity="0.05"/>
<path d="M396.386 813.183C412.508 796.05 408.44 770.715 408.256 769.726C408.009 768.263 407.381 766.892 406.439 765.754C405.496 764.616 404.271 763.75 402.89 763.245C401.508 762.74 400.019 762.614 398.574 762.88C397.128 763.146 395.779 763.794 394.662 764.759L358.1 796.319L369.269 740.923C369.567 739.445 369.466 737.914 368.976 736.489C368.486 735.065 367.626 733.8 366.485 732.827C365.345 731.855 363.966 731.21 362.494 730.962C361.022 730.713 359.51 730.87 358.119 731.415C357.022 731.838 331.074 742.232 323.817 767.209C320.489 778.607 321.6 790.862 327.091 803.779C319.97 802.638 312.685 803.161 305.796 805.309C293.788 809.238 284.576 818.351 278.427 832.361C276.557 836.748 274.964 841.251 273.657 845.841C273.657 845.94 273.598 846.048 273.568 846.147C264.362 877.692 258.997 930.609 259.94 958.439C260.076 963.015 261.492 967.458 264.026 971.253C266.56 975.049 270.107 978.04 274.256 979.881C277.333 981.268 280.662 981.992 284.032 982.005C289.73 982.01 295.244 979.964 299.584 976.234C312.232 965.448 329.598 947.309 344.921 928.89C356.793 914.604 366.55 901.262 373.134 890.306C375.585 886.305 377.782 882.15 379.712 877.868C385.871 863.867 386.376 850.864 381.215 839.222C379.032 834.386 376.021 829.978 372.321 826.2C382.193 824.046 390.241 819.713 396.386 813.183ZM340.985 825.922L341.239 826.051L341.532 826.2L341.796 826.329L341.874 826.329L342.06 826.398L342.392 826.527L342.568 826.597C342.9 826.706 360.161 832.62 366.091 846.16C369.246 853.35 368.741 861.492 364.536 871.049C363.317 873.753 361.957 876.389 360.462 878.947L346.637 871.459C346.24 871.228 345.801 871.08 345.347 871.024C344.893 870.968 344.431 871.004 343.991 871.131C343.551 871.258 343.14 871.473 342.783 871.763C342.427 872.053 342.131 872.412 341.915 872.82C341.698 873.227 341.564 873.675 341.522 874.135C341.479 874.596 341.528 875.061 341.667 875.502C341.805 875.943 342.029 876.351 342.327 876.703C342.624 877.055 342.988 877.343 343.398 877.55L356.89 884.859C349.592 896.071 341.621 906.82 333.022 917.048L306.434 904.614C305.609 904.228 304.667 904.189 303.815 904.505C302.962 904.821 302.269 905.467 301.887 906.299C301.506 907.132 301.467 908.084 301.78 908.945C302.093 909.807 302.731 910.507 303.556 910.893L328.434 922.582C314.71 938.732 299.833 954.089 288.88 963.426C287.806 964.347 286.496 964.942 285.102 965.145C283.708 965.347 282.285 965.149 280.997 964.571C279.71 963.994 278.609 963.062 277.822 961.881C277.036 960.701 276.594 959.32 276.548 957.898C275.688 932.608 280.279 885.639 288.299 855.307L314.829 867.405C315.268 867.607 315.745 867.713 316.227 867.714C317.01 867.715 317.77 867.446 318.379 866.95C318.989 866.454 319.413 865.762 319.579 864.989C319.745 864.217 319.644 863.409 319.293 862.703C318.942 861.996 318.361 861.432 317.649 861.105L290.21 848.591C291.169 845.416 292.301 842.297 293.602 839.249C297.807 829.692 303.413 823.852 310.831 821.396C324.826 816.71 340.819 825.763 340.985 825.872L340.985 825.922ZM349.021 757.248L341.417 794.923C338.323 786.596 337.741 778.966 339.711 772.102C341.467 766.395 344.678 761.256 349.021 757.199L349.021 757.248ZM390.562 790.414C389.377 794.623 387.217 798.488 384.261 801.687C380.341 805.849 374.882 808.609 367.883 809.966L390.562 790.414Z" fill="#4B5265" fill-opacity="0.05"/>
<path d="M176.737 853.715C164.513 823.057 136.678 802.834 108.266 802.779L107.474 802.777C107.386 802.54 107.289 802.292 107.192 802.055C101.634 788.239 84.7847 782.04 69.5641 788.236C62.5578 791.011 56.7671 796.23 53.2412 802.948C51.4785 806.233 50.45 809.869 50.2281 813.599C50.0062 817.329 50.5963 821.063 51.957 824.537C53.0899 827.392 54.7436 830.007 56.8321 832.245C44.5769 852.489 42.7728 879.819 52.5054 904.306C64.7396 934.963 92.1929 955.147 120.751 955.252C125.177 962.642 133.512 966.937 142.529 966.955C146.353 966.956 150.141 966.209 153.683 964.753C167.661 959.069 174.898 944.043 169.817 931.344C169.671 930.998 169.525 930.652 169.37 930.306C184.393 909.711 187.385 880.407 176.737 853.715ZM152.882 924.147C151.451 925.729 150.674 927.806 150.712 929.949C150.749 932.092 151.598 934.14 153.085 935.67C153.639 936.236 154.077 936.909 154.372 937.648C155.997 941.713 152.828 947.004 147.503 949.197C142.178 951.39 136.205 949.797 134.58 945.723C134.471 945.416 134.383 945.102 134.318 944.784C133.877 942.779 132.724 941.007 131.077 939.803C129.43 938.6 127.404 938.049 125.381 938.254C101.904 940.609 78.336 924.07 67.9609 898.051C59.2013 876.135 61.9093 851.673 74.8212 835.739C75.6235 834.749 76.1915 833.587 76.4819 832.342C76.7723 831.097 76.7774 829.802 76.4968 828.554C76.2162 827.307 75.6573 826.141 74.8628 825.145C74.0683 824.149 73.0592 823.349 71.9123 822.807C69.8989 821.928 68.2931 820.307 67.4222 818.273C66.9873 817.037 66.8186 815.722 66.9274 814.415C67.0362 813.108 67.42 811.84 68.0532 810.695C69.7419 807.525 72.5032 805.075 75.8323 803.792C82.4295 801.098 89.7412 803.167 91.7949 808.3C92.1848 809.313 92.3657 810.397 92.3266 811.483C92.2919 812.71 92.5238 813.929 93.0061 815.055C93.4883 816.181 94.2091 817.186 95.1177 818C96.0263 818.814 97.1005 819.417 98.2647 819.766C99.4289 820.115 100.655 820.202 101.856 820.02C104.018 819.692 106.203 819.531 108.39 819.539C130.122 819.581 151.676 835.671 161.37 859.96C170.518 883.062 167.202 908.245 152.882 924.147Z" fill="#4B5265" fill-opacity="0.05"/>
<path d="M142.467 913.158C141.999 913.393 141.483 913.514 140.961 913.51C140.189 913.505 139.442 913.237 138.84 912.749C138.238 912.261 137.818 911.582 137.646 910.822C137.474 910.062 137.561 909.266 137.894 908.562C138.226 907.858 138.784 907.289 139.477 906.946C144.11 904.646 147.651 900.584 149.323 895.651C150.996 890.717 150.664 885.314 148.399 880.628C148.019 879.805 147.974 878.864 148.274 878.008C148.575 877.152 149.196 876.449 150.005 876.053C150.814 875.656 151.744 875.596 152.596 875.887C153.448 876.178 154.152 876.795 154.557 877.606C156.069 880.748 156.954 884.159 157.161 887.646C157.368 891.133 156.893 894.627 155.763 897.929C154.633 901.23 152.87 904.274 150.575 906.887C148.281 909.5 145.499 911.631 142.389 913.157L142.467 913.158Z" fill="#4B5265" fill-opacity="0.05"/>
<path d="M218.779 965.582C218.771 968.74 219.69 971.829 221.42 974.458C223.15 977.088 225.613 979.14 228.497 980.354C231.381 981.569 234.558 981.892 237.624 981.283C240.69 980.673 243.508 979.159 245.722 976.93C247.936 974.702 249.447 971.86 250.062 968.765C250.677 965.669 250.37 962.459 249.179 959.54C247.987 956.621 245.966 954.124 243.371 952.366C240.775 950.608 237.721 949.668 234.597 949.663C230.412 949.663 226.398 951.338 223.434 954.322C220.469 957.306 218.795 961.355 218.779 965.582V965.582ZM225.626 965.596C225.629 963.807 226.158 962.059 227.145 960.574C228.131 959.089 229.532 957.933 231.169 957.252C232.806 956.571 234.606 956.396 236.342 956.749C238.078 957.102 239.67 957.967 240.919 959.235C242.168 960.503 243.016 962.117 243.357 963.872C243.698 965.628 243.516 967.446 242.834 969.097C242.152 970.747 241 972.157 239.525 973.146C238.05 974.136 236.318 974.661 234.548 974.655C232.176 974.648 229.904 973.69 228.231 971.991C226.558 970.293 225.621 967.992 225.626 965.596V965.596Z" fill="#4B5265" fill-opacity="0.05"/>
<path d="M155.359 762.157C155.367 758.472 154.292 754.867 152.272 751.799C150.252 748.731 147.377 746.336 144.011 744.918C140.644 743.501 136.937 743.123 133.358 743.834C129.779 744.544 126.489 746.311 123.903 748.91C121.318 751.51 119.553 754.825 118.832 758.438C118.111 762.05 118.466 765.798 119.852 769.206C121.239 772.615 123.594 775.532 126.621 777.588C129.648 779.644 133.21 780.747 136.858 780.759C141.752 780.768 146.449 778.814 149.918 775.326C153.388 771.839 155.345 767.102 155.359 762.157V762.157ZM148.513 762.144C148.511 764.461 147.828 766.726 146.552 768.652C145.275 770.578 143.463 772.078 141.343 772.963C139.223 773.848 136.891 774.078 134.641 773.624C132.392 773.17 130.327 772.053 128.706 770.413C127.085 768.773 125.982 766.684 125.536 764.411C125.089 762.138 125.32 759.782 126.199 757.641C127.078 755.5 128.565 753.671 130.473 752.384C132.381 751.097 134.623 750.411 136.917 750.411C139.994 750.415 142.944 751.652 145.119 753.852C147.293 756.052 148.514 759.035 148.513 762.144V762.144Z" fill="#4B5265" fill-opacity="0.05"/>
<path d="M421.505 916.894C421.515 912.917 420.356 909.027 418.177 905.715C415.997 902.403 412.894 899.82 409.261 898.29C405.627 896.761 401.626 896.356 397.764 897.125C393.903 897.895 390.353 899.804 387.566 902.612C384.778 905.42 382.878 909.001 382.105 912.901C381.333 916.8 381.722 920.844 383.225 924.52C384.728 928.195 387.276 931.338 390.547 933.55C393.818 935.762 397.666 936.943 401.602 936.945C406.869 936.942 411.922 934.831 415.652 931.073C419.382 927.315 421.487 922.216 421.505 916.894V916.894ZM414.659 916.881C414.654 919.489 413.883 922.038 412.444 924.203C411.004 926.369 408.962 928.055 406.574 929.047C404.186 930.039 401.561 930.293 399.03 929.777C396.5 929.261 394.177 927.998 392.358 926.148C390.538 924.298 389.302 921.944 388.807 919.384C388.312 916.824 388.579 914.173 389.576 911.766C390.573 909.36 392.254 907.307 394.406 905.866C396.558 904.425 399.085 903.662 401.667 903.673C405.121 903.69 408.428 905.09 410.863 907.565C413.298 910.041 414.663 913.39 414.659 916.881Z" fill="#4B5265" fill-opacity="0.05"/>
<path d="M50.8935 958.387C50.8872 960.602 51.5312 962.768 52.7441 964.613C53.957 966.458 55.6842 967.898 57.7072 968.751C59.7303 969.604 61.9583 969.832 64.1094 969.405C66.2604 968.978 68.238 967.917 69.7918 966.354C71.3456 964.792 72.4058 962.799 72.8385 960.627C73.2711 958.456 73.0566 956.204 72.2221 954.156C71.3877 952.108 69.9708 950.356 68.1506 949.121C66.3305 947.887 64.1889 947.226 61.9968 947.222C59.0603 947.218 56.2423 948.392 54.1609 950.485C52.0795 952.578 50.9044 955.42 50.8935 958.387V958.387ZM57.7399 958.4C57.7416 957.554 57.9916 956.727 58.4583 956.024C58.925 955.321 59.5875 954.774 60.362 954.452C61.1365 954.129 61.9881 954.046 62.8093 954.213C63.6305 954.38 64.3843 954.789 64.9754 955.388C65.5666 955.988 65.9684 956.751 66.1302 957.582C66.292 958.412 66.2064 959.272 65.8844 960.053C65.5623 960.835 65.0182 961.502 64.3208 961.971C63.6235 962.44 62.8042 962.689 61.9666 962.687C60.8434 962.685 59.7671 962.232 58.9744 961.428C58.1818 960.624 57.7377 959.535 57.7399 958.4Z" fill="#4B5265" fill-opacity="0.05"/>
<path d="M303.584 736.556C303.588 734.341 302.942 732.175 301.727 730.331C300.513 728.487 298.785 727.048 296.761 726.197C294.737 725.346 292.509 725.121 290.358 725.549C288.207 725.978 286.231 727.041 284.678 728.605C283.126 730.169 282.067 732.163 281.637 734.335C281.206 736.506 281.422 738.758 282.259 740.806C283.095 742.853 284.513 744.604 286.335 745.837C288.156 747.069 290.298 747.728 292.49 747.731C295.427 747.731 298.243 746.555 300.323 744.46C302.403 742.365 303.575 739.523 303.584 736.556ZM296.737 736.542C296.735 737.389 296.485 738.216 296.018 738.919C295.551 739.622 294.888 740.169 294.113 740.492C293.338 740.814 292.486 740.896 291.664 740.729C290.843 740.561 290.089 740.151 289.498 739.551C288.907 738.95 288.506 738.186 288.346 737.355C288.185 736.524 288.272 735.663 288.596 734.882C288.919 734.101 289.465 733.435 290.163 732.967C290.862 732.499 291.682 732.252 292.52 732.255C293.642 732.26 294.716 732.714 295.506 733.518C296.297 734.322 296.739 735.409 296.737 736.542Z" fill="#4B5265" fill-opacity="0.05"/>
<path d="M237.073 858.379C252.154 838.308 268.636 807.459 261.081 774.538C254.817 747.014 232.945 723.561 196.099 704.822C195.107 704.32 194.026 704.024 192.919 703.95C191.812 703.876 190.701 704.027 189.653 704.393C188.604 704.759 187.638 705.334 186.813 706.083C185.987 706.831 185.318 707.739 184.844 708.753C174.041 731.856 164.509 754.694 167.1 780.046C170.036 809.085 188.782 835.803 224.41 861.734C225.088 862.226 225.836 862.61 226.628 862.874C225.399 881.233 221.779 896.938 216.025 908.686C215.825 909.093 215.706 909.536 215.676 909.99C215.645 910.443 215.703 910.898 215.847 911.329C215.99 911.759 216.216 912.157 216.512 912.5C216.808 912.842 217.168 913.122 217.571 913.324C218.043 913.556 218.561 913.679 219.086 913.683C219.725 913.683 220.351 913.503 220.894 913.164C221.437 912.825 221.876 912.339 222.161 911.762C228.436 898.927 232.332 881.908 233.554 862.107C234.431 861.579 235.201 860.89 235.827 860.076C236.239 859.543 236.671 858.981 237.102 858.399L237.073 858.379ZM233.463 833.746C231.974 809.74 226.974 786.013 219.516 768.755C219.342 768.33 219.085 767.945 218.762 767.622C218.439 767.299 218.056 767.044 217.634 766.872C217.212 766.7 216.761 766.615 216.306 766.622C215.851 766.628 215.403 766.726 214.986 766.91C214.569 767.093 214.193 767.359 213.878 767.691C213.564 768.024 213.319 768.416 213.157 768.845C212.994 769.274 212.918 769.732 212.933 770.191C212.947 770.65 213.052 771.102 213.241 771.519C221.283 790.153 226.347 816.666 227.01 842.696C200.067 821.536 185.849 800.44 183.613 778.32C181.761 759.955 188.075 742.022 196.209 723.885C223.828 739.424 240.203 757.708 244.907 778.331C249.465 798.242 242.629 817.903 233.463 833.746V833.746Z" fill="#4B5265" fill-opacity="0.05"/>
</g>
<g clip-path="url(#clip5_410:43)">
<path d="M994.907 298.47C994.688 410.244 1084.49 501.363 1195.15 501.579C1221.5 501.649 1247.61 496.469 1271.98 486.335C1296.35 476.202 1318.5 461.314 1337.17 442.522C1355.84 423.731 1370.66 401.405 1380.79 376.822C1390.91 352.238 1396.14 325.88 1396.18 299.253C1396.18 297.027 1395.3 294.89 1393.75 293.312C1392.19 291.734 1390.08 290.845 1387.88 290.838L1003.24 290.087C1001.03 290.085 998.918 290.967 997.356 292.538C995.794 294.11 994.914 296.243 994.907 298.47V298.47ZM1379.35 307.62C1378.76 320.225 1376.91 332.737 1373.83 344.963L1017.1 344.267C1014.04 332.031 1012.23 319.511 1011.7 306.903L1379.35 307.62ZM1018.95 351.188L1371.93 351.877C1360.61 390.334 1337.28 424.057 1305.42 448.011C1273.56 471.965 1234.89 484.863 1195.18 484.78C1111.81 484.617 1041.34 428.172 1018.95 351.188V351.188Z" fill="#4B5265" fill-opacity="0.05"/>
<path d="M1253.09 447.639C1271.87 439.501 1288.57 427.16 1301.94 411.546C1302.53 410.852 1303.37 410.424 1304.28 410.357C1305.19 410.29 1306.08 410.59 1306.77 411.19C1307.46 411.79 1307.88 412.642 1307.95 413.558C1308.01 414.473 1307.72 415.378 1307.12 416.073C1293.05 432.482 1275.49 445.453 1255.74 454.008C1255.31 454.189 1254.85 454.283 1254.39 454.282C1253.6 454.282 1252.83 454.007 1252.22 453.502C1251.61 452.997 1251.19 452.294 1251.03 451.512C1250.88 450.731 1250.99 449.918 1251.36 449.212C1251.73 448.506 1252.33 447.95 1253.05 447.639L1253.09 447.639Z" fill="#4B5265" fill-opacity="0.05"/>
<path d="M1365.39 109.183C1381.51 92.0499 1377.44 66.7145 1377.26 65.726C1377.01 64.2629 1376.38 62.8924 1375.44 61.7539C1374.5 60.6155 1373.27 59.7498 1371.89 59.2449C1370.51 58.7401 1369.02 58.6143 1367.57 58.8801C1366.13 59.146 1364.78 59.7941 1363.66 60.7585L1327.1 92.3192L1338.27 36.9231C1338.57 35.4453 1338.47 33.9138 1337.98 32.4893C1337.49 31.0648 1336.63 29.7998 1335.49 28.8271C1334.34 27.8545 1332.97 27.2101 1331.49 26.9615C1330.02 26.713 1328.51 26.8695 1327.12 27.4146C1326.02 27.8374 1300.07 38.232 1292.82 63.2093C1289.49 74.6065 1290.6 86.8623 1296.09 99.7788C1288.97 98.6374 1281.69 99.1607 1274.8 101.309C1262.79 105.238 1253.58 114.351 1247.43 128.361C1245.56 132.748 1243.96 137.25 1242.66 141.841C1242.66 141.94 1242.6 142.048 1242.57 142.147C1233.36 173.692 1228 226.609 1228.94 254.439C1229.08 259.015 1230.49 263.458 1233.03 267.253C1235.56 271.048 1239.11 274.04 1243.26 275.881C1246.33 277.268 1249.66 277.992 1253.03 278.005C1258.73 278.01 1264.24 275.964 1268.58 272.234C1281.23 261.448 1298.6 243.309 1313.92 224.889C1325.79 210.604 1335.55 197.262 1342.13 186.306C1344.58 182.305 1346.78 178.15 1348.71 173.868C1354.87 159.867 1355.38 146.863 1350.21 135.222C1348.03 130.386 1345.02 125.978 1341.32 122.2C1351.19 120.046 1359.24 115.713 1365.39 109.183ZM1309.98 121.922L1310.24 122.051L1310.53 122.2L1310.8 122.328L1310.87 122.329L1311.06 122.398L1311.39 122.527L1311.57 122.597C1311.9 122.706 1329.16 128.62 1335.09 142.16C1338.25 149.35 1337.74 157.492 1333.54 167.049C1332.32 169.753 1330.96 172.389 1329.46 174.947L1315.64 167.459C1315.24 167.228 1314.8 167.08 1314.35 167.024C1313.89 166.968 1313.43 167.004 1312.99 167.131C1312.55 167.258 1312.14 167.473 1311.78 167.763C1311.43 168.053 1311.13 168.412 1310.91 168.82C1310.7 169.227 1310.56 169.675 1310.52 170.135C1310.48 170.596 1310.53 171.06 1310.67 171.502C1310.8 171.943 1311.03 172.351 1311.33 172.703C1311.62 173.055 1311.99 173.343 1312.4 173.55L1325.89 180.859C1318.59 192.071 1310.62 202.82 1302.02 213.047L1275.43 200.613C1274.61 200.228 1273.67 200.189 1272.81 200.505C1271.96 200.821 1271.27 201.467 1270.89 202.299C1270.51 203.132 1270.47 204.084 1270.78 204.945C1271.09 205.807 1271.73 206.507 1272.56 206.893L1297.43 218.582C1283.71 234.732 1268.83 250.089 1257.88 259.426C1256.81 260.346 1255.5 260.942 1254.1 261.145C1252.71 261.347 1251.29 261.148 1250 260.571C1248.71 259.994 1247.61 259.062 1246.82 257.881C1246.04 256.701 1245.59 255.32 1245.55 253.898C1244.69 228.608 1249.28 181.638 1257.3 151.307L1283.83 163.405C1284.27 163.607 1284.74 163.713 1285.23 163.714C1286.01 163.715 1286.77 163.446 1287.38 162.95C1287.99 162.454 1288.41 161.762 1288.58 160.989C1288.75 160.216 1288.64 159.409 1288.29 158.703C1287.94 157.996 1287.36 157.432 1286.65 157.105L1259.21 144.591C1260.17 141.416 1261.3 138.297 1262.6 135.249C1266.81 125.691 1272.41 119.852 1279.83 117.396C1293.83 112.71 1309.82 121.763 1309.98 121.872L1309.98 121.922ZM1318.02 53.248L1310.42 90.9229C1307.32 82.5963 1306.74 74.9663 1308.71 68.1022C1310.47 62.3953 1313.68 57.2556 1318.02 53.1986L1318.02 53.248ZM1359.56 86.4139C1358.38 90.6234 1356.22 94.4874 1353.26 97.6868C1349.34 101.849 1343.88 104.609 1336.88 105.966L1359.56 86.4139Z" fill="#4B5265" fill-opacity="0.05"/>
<path d="M1145.74 149.715C1133.51 119.057 1105.68 98.8339 1077.27 98.7785L1076.47 98.7769C1076.39 98.5396 1076.29 98.2923 1076.19 98.055C1070.63 84.2391 1053.78 78.0398 1038.56 84.2357C1031.56 87.0111 1025.77 92.2303 1022.24 98.9477C1020.48 102.233 1019.45 105.869 1019.23 109.599C1019.01 113.329 1019.6 117.063 1020.96 120.537C1022.09 123.392 1023.74 126.007 1025.83 128.245C1013.58 148.489 1011.77 175.819 1021.51 200.305C1033.74 230.963 1061.19 251.146 1089.75 251.252C1094.18 258.642 1102.51 262.937 1111.53 262.955C1115.35 262.956 1119.14 262.208 1122.68 260.753C1136.66 255.069 1143.9 240.042 1138.82 227.344C1138.67 226.998 1138.53 226.652 1138.37 226.306C1153.39 205.711 1156.38 176.407 1145.74 149.715ZM1121.88 220.147C1120.45 221.729 1119.67 223.806 1119.71 225.949C1119.75 228.092 1120.6 230.139 1122.08 231.669C1122.64 232.236 1123.08 232.909 1123.37 233.648C1125 237.713 1121.83 243.003 1116.5 245.197C1111.18 247.39 1105.21 245.797 1103.58 241.723C1103.47 241.416 1103.38 241.102 1103.32 240.783C1102.88 238.779 1101.72 237.007 1100.08 235.803C1098.43 234.6 1096.4 234.048 1094.38 234.254C1070.9 236.609 1047.34 220.07 1036.96 194.051C1028.2 172.135 1030.91 147.673 1043.82 131.739C1044.62 130.749 1045.19 129.587 1045.48 128.342C1045.77 127.097 1045.78 125.801 1045.5 124.554C1045.22 123.307 1044.66 122.141 1043.86 121.145C1043.07 120.149 1042.06 119.349 1040.91 118.807C1038.9 117.928 1037.29 116.307 1036.42 114.273C1035.99 113.037 1035.82 111.722 1035.93 110.415C1036.04 109.108 1036.42 107.839 1037.05 106.694C1038.74 103.525 1041.5 101.075 1044.83 99.7923C1051.43 97.0975 1058.74 99.1672 1060.79 104.3C1061.18 105.313 1061.37 106.396 1061.33 107.483C1061.29 108.709 1061.52 109.929 1062.01 111.055C1062.49 112.181 1063.21 113.186 1064.12 114C1065.03 114.814 1066.1 115.417 1067.26 115.766C1068.43 116.115 1069.65 116.201 1070.86 116.02C1073.02 115.692 1075.2 115.531 1077.39 115.538C1099.12 115.581 1120.68 131.671 1130.37 155.96C1139.52 179.062 1136.2 204.245 1121.88 220.147Z" fill="#4B5265" fill-opacity="0.05"/>
<path d="M1111.47 209.158C1111 209.393 1110.48 209.514 1109.96 209.51C1109.19 209.505 1108.44 209.237 1107.84 208.749C1107.24 208.261 1106.82 207.582 1106.65 206.822C1106.47 206.062 1106.56 205.266 1106.89 204.562C1107.23 203.858 1107.78 203.289 1108.48 202.946C1113.11 200.646 1116.65 196.584 1118.32 191.651C1120 186.717 1119.66 181.314 1117.4 176.628C1117.02 175.805 1116.97 174.864 1117.27 174.008C1117.57 173.152 1118.2 172.449 1119.01 172.053C1119.81 171.656 1120.74 171.596 1121.6 171.887C1122.45 172.178 1123.15 172.795 1123.56 173.606C1125.07 176.748 1125.95 180.159 1126.16 183.646C1126.37 187.133 1125.89 190.627 1124.76 193.929C1123.63 197.23 1121.87 200.274 1119.58 202.887C1117.28 205.5 1114.5 207.631 1111.39 209.157L1111.47 209.158Z" fill="#4B5265" fill-opacity="0.05"/>
<path d="M1187.78 261.582C1187.77 264.74 1188.69 267.829 1190.42 270.458C1192.15 273.087 1194.61 275.139 1197.5 276.354C1200.38 277.569 1203.56 277.892 1206.62 277.283C1209.69 276.673 1212.51 275.158 1214.72 272.93C1216.94 270.702 1218.45 267.86 1219.06 264.764C1219.68 261.669 1219.37 258.458 1218.18 255.539C1216.99 252.62 1214.97 250.124 1212.37 248.366C1209.77 246.608 1206.72 245.667 1203.6 245.663C1199.41 245.663 1195.4 247.338 1192.43 250.322C1189.47 253.305 1187.8 257.355 1187.78 261.582V261.582ZM1194.63 261.596C1194.63 259.807 1195.16 258.059 1196.14 256.574C1197.13 255.089 1198.53 253.933 1200.17 253.252C1201.81 252.571 1203.61 252.396 1205.34 252.749C1207.08 253.102 1208.67 253.967 1209.92 255.235C1211.17 256.503 1212.02 258.117 1212.36 259.872C1212.7 261.628 1212.52 263.446 1211.83 265.096C1211.15 266.747 1210 268.156 1208.53 269.146C1207.05 270.135 1205.32 270.661 1203.55 270.655C1201.18 270.648 1198.9 269.69 1197.23 267.991C1195.56 266.292 1194.62 263.992 1194.63 261.596V261.596Z" fill="#4B5265" fill-opacity="0.05"/>
<path d="M1124.36 58.1572C1124.37 54.4719 1123.29 50.8672 1121.27 47.7988C1119.25 44.7304 1116.38 42.336 1113.01 40.9182C1109.64 39.5005 1105.94 39.123 1102.36 39.8335C1098.78 40.5441 1095.49 42.3107 1092.9 44.9102C1090.32 47.5096 1088.55 50.8252 1087.83 54.4378C1087.11 58.0504 1087.47 61.7978 1088.85 65.2064C1090.24 68.6149 1092.59 71.5317 1095.62 73.5878C1098.65 75.644 1102.21 76.7474 1105.86 76.7584C1110.75 76.7679 1115.45 74.8142 1118.92 71.3263C1122.39 67.8385 1124.34 63.1019 1124.36 58.1572V58.1572ZM1117.51 58.1438C1117.51 60.4614 1116.83 62.7261 1115.55 64.6519C1114.28 66.5776 1112.46 68.0778 1110.34 68.9628C1108.22 69.8478 1105.89 70.0779 1103.64 69.624C1101.39 69.1701 1099.33 68.0526 1097.71 66.4127C1096.08 64.7729 1094.98 62.6843 1094.54 60.411C1094.09 58.1377 1094.32 55.7818 1095.2 53.641C1096.08 51.5003 1097.57 49.6708 1099.47 48.3839C1101.38 47.097 1103.62 46.4105 1105.92 46.4111C1108.99 46.4144 1111.94 47.6522 1114.12 49.8522C1116.29 52.0522 1117.51 55.0346 1117.51 58.1438V58.1438Z" fill="#4B5265" fill-opacity="0.05"/>
<path d="M1390.5 212.894C1390.51 208.917 1389.36 205.026 1387.18 201.715C1385 198.403 1381.89 195.819 1378.26 194.29C1374.63 192.761 1370.63 192.356 1366.76 193.125C1362.9 193.894 1359.35 195.804 1356.57 198.612C1353.78 201.42 1351.88 205.001 1351.11 208.9C1350.33 212.8 1350.72 216.844 1352.23 220.519C1353.73 224.195 1356.28 227.338 1359.55 229.55C1362.82 231.762 1366.67 232.943 1370.6 232.945C1375.87 232.942 1380.92 230.831 1384.65 227.073C1388.38 223.315 1390.49 218.216 1390.5 212.894V212.894ZM1383.66 212.881C1383.65 215.489 1382.88 218.037 1381.44 220.203C1380 222.369 1377.96 224.054 1375.57 225.047C1373.19 226.039 1370.56 226.293 1368.03 225.777C1365.5 225.261 1363.18 223.998 1361.36 222.148C1359.54 220.298 1358.3 217.944 1357.81 215.384C1357.31 212.824 1357.58 210.173 1358.58 207.766C1359.57 205.36 1361.25 203.306 1363.41 201.866C1365.56 200.425 1368.09 199.662 1370.67 199.673C1374.12 199.69 1377.43 201.089 1379.86 203.565C1382.3 206.041 1383.66 209.39 1383.66 212.881Z" fill="#4B5265" fill-opacity="0.05"/>
<path d="M1019.89 254.387C1019.89 256.601 1020.53 258.768 1021.74 260.613C1022.96 262.458 1024.68 263.898 1026.71 264.751C1028.73 265.604 1030.96 265.832 1033.11 265.405C1035.26 264.978 1037.24 263.916 1038.79 262.354C1040.35 260.792 1041.41 258.799 1041.84 256.627C1042.27 254.456 1042.06 252.204 1041.22 250.156C1040.39 248.107 1038.97 246.355 1037.15 245.121C1035.33 243.887 1033.19 243.226 1031 243.221C1028.06 243.218 1025.24 244.392 1023.16 246.485C1021.08 248.578 1019.9 251.42 1019.89 254.387V254.387ZM1026.74 254.4C1026.74 253.554 1026.99 252.727 1027.46 252.024C1027.92 251.321 1028.59 250.774 1029.36 250.452C1030.14 250.129 1030.99 250.046 1031.81 250.213C1032.63 250.38 1033.38 250.789 1033.98 251.388C1034.57 251.988 1034.97 252.751 1035.13 253.581C1035.29 254.412 1035.21 255.272 1034.88 256.053C1034.56 256.835 1034.02 257.502 1033.32 257.971C1032.62 258.439 1031.8 258.689 1030.97 258.687C1029.84 258.685 1028.77 258.232 1027.97 257.428C1027.18 256.624 1026.74 255.535 1026.74 254.4Z" fill="#4B5265" fill-opacity="0.05"/>
<path d="M1272.58 32.5557C1272.59 30.3408 1271.94 28.1744 1270.73 26.3306C1269.51 24.4867 1267.78 23.0483 1265.76 22.1972C1263.74 21.3461 1261.51 21.1206 1259.36 21.5492C1257.21 21.9778 1255.23 23.0413 1253.68 24.6051C1252.13 26.169 1251.07 28.1629 1250.64 30.3346C1250.21 32.5063 1250.42 34.7583 1251.26 36.8057C1252.09 38.853 1253.51 40.6038 1255.33 41.8364C1257.16 43.0691 1259.3 43.7283 1261.49 43.7306C1264.43 43.7311 1267.24 42.555 1269.32 40.4601C1271.4 38.3653 1272.58 35.5227 1272.58 32.5557ZM1265.74 32.5423C1265.74 33.3891 1265.49 34.2163 1265.02 34.9192C1264.55 35.6222 1263.89 36.1694 1263.11 36.4914C1262.34 36.8135 1261.49 36.896 1260.66 36.7285C1259.84 36.561 1259.09 36.151 1258.5 35.5504C1257.91 34.9498 1257.51 34.1857 1257.35 33.3547C1257.19 32.5237 1257.27 31.6632 1257.6 30.8821C1257.92 30.101 1258.46 29.4345 1259.16 28.9668C1259.86 28.4992 1260.68 28.2515 1261.52 28.2551C1262.64 28.2599 1263.72 28.714 1264.51 29.5177C1265.3 30.3214 1265.74 31.4092 1265.74 32.5423Z" fill="#4B5265" fill-opacity="0.05"/>
<path d="M1206.07 154.379C1221.15 134.308 1237.64 103.459 1230.08 70.5377C1223.82 43.0141 1201.94 19.5611 1165.1 0.822159C1164.11 0.320106 1163.03 0.0235165 1161.92 -0.050171C1160.81 -0.123858 1159.7 0.0268435 1158.65 0.393074C1157.6 0.759305 1156.64 1.33367 1155.81 2.0824C1154.99 2.83114 1154.32 3.73912 1153.84 4.75297C1143.04 27.8556 1133.51 50.694 1136.1 76.0462C1139.04 105.085 1157.78 131.803 1193.41 157.734C1194.09 158.226 1194.84 158.61 1195.63 158.874C1194.4 177.233 1190.78 192.938 1185.03 204.686C1184.82 205.093 1184.71 205.536 1184.68 205.989C1184.64 206.443 1184.7 206.898 1184.85 207.329C1184.99 207.759 1185.22 208.157 1185.51 208.5C1185.81 208.842 1186.17 209.122 1186.57 209.324C1187.04 209.556 1187.56 209.679 1188.09 209.682C1188.72 209.683 1189.35 209.503 1189.89 209.164C1190.44 208.825 1190.88 208.339 1191.16 207.761C1197.44 194.927 1201.33 177.908 1202.55 158.107C1203.43 157.579 1204.2 156.89 1204.83 156.076C1205.24 155.543 1205.67 154.981 1206.1 154.398L1206.07 154.379ZM1202.46 129.746C1200.97 105.74 1195.97 82.0132 1188.52 64.7547C1188.34 64.3303 1188.09 63.9453 1187.76 63.622C1187.44 63.2988 1187.06 63.0439 1186.63 62.8721C1186.21 62.7004 1185.76 62.6152 1185.31 62.6217C1184.85 62.6281 1184.4 62.726 1183.99 62.9097C1183.57 63.0933 1183.19 63.359 1182.88 63.6913C1182.56 64.0235 1182.32 64.4156 1182.16 64.8448C1181.99 65.2739 1181.92 65.7314 1181.93 66.1906C1181.95 66.6498 1182.05 67.1015 1182.24 67.5192C1190.28 86.1525 1195.35 112.666 1196.01 138.696C1169.07 117.536 1154.85 96.4396 1152.61 74.3195C1150.76 55.9552 1157.08 38.0219 1165.21 19.8846C1192.83 35.4236 1209.2 53.7075 1213.91 74.3304C1218.46 94.2415 1211.63 113.903 1202.46 129.746V129.746Z" fill="#4B5265" fill-opacity="0.05"/>
</g>
<defs>
<clipPath id="clip0_410:43">
<rect width="401.269" height="501.587" fill="white" transform="translate(1395.94 1924.17) rotate(-180)"/>
</clipPath>
<clipPath id="clip1_410:43">
<rect width="401.269" height="501.587" fill="white" transform="matrix(0.99998 0.00634563 0.00634563 -0.99998 985.308 3326.75)"/>
</clipPath>
<clipPath id="clip2_410:43">
<rect width="401.269" height="501.587" fill="white" transform="matrix(0.99998 0.00634563 0.00634563 -0.99998 18 2624.17)"/>
</clipPath>
<clipPath id="clip3_410:43">
<rect width="401.269" height="501.587" fill="white" transform="matrix(0.99998 0.00634563 0.00634563 -0.99998 0 4012.33)"/>
</clipPath>
<clipPath id="clip4_410:43">
<rect width="401.269" height="501.587" fill="white" transform="translate(427.27 1205.59) rotate(180)"/>
</clipPath>
<clipPath id="clip5_410:43">
<rect width="401.269" height="501.587" fill="white" transform="translate(1396.27 501.587) rotate(-180)"/>
</clipPath>
</defs>
</svg>
