<svg width="90" height="245" viewBox="0 0 90 245" fill="none" xmlns="http://www.w3.org/2000/svg">
<path d="M50.308 38.0461C50.308 38.0461 52.3585 47.5062 45.3868 51.208C45.3868 51.208 47.0272 72.1847 57.6898 72.5961C68.3524 73.0074 68.3524 61.4907 68.3524 61.4907L66.712 55.3211C66.712 55.3211 58.9201 50.7967 63.8413 42.1592L50.308 38.0461Z" fill="#CCA1A7"/>
<path d="M59.1251 43.1875C69.7703 43.1875 78.3998 34.5324 78.3998 23.8559C78.3998 13.1794 69.7703 4.52441 59.1251 4.52441C48.48 4.52441 39.8505 13.1794 39.8505 23.8559C39.8505 34.5324 48.48 43.1875 59.1251 43.1875Z" fill="#4B5265"/>
<path d="M38.8254 82.056V105.089L72.8635 103.855L70.4028 81.2335L38.8254 82.056Z" fill="#CCA1A7"/>
<path d="M59.3302 44.627C66.125 44.627 71.6332 39.1025 71.6332 32.2878C71.6332 25.473 66.125 19.9485 59.3302 19.9485C52.5355 19.9485 47.0272 25.473 47.0272 32.2878C47.0272 39.1025 52.5355 44.627 59.3302 44.627Z" fill="#CCA1A7"/>
<path d="M44.1565 51.208C44.1565 51.208 37.1848 49.974 34.7242 51.208C32.2636 52.4419 29.3929 52.0306 26.5222 63.9585L21.1909 88.6371C21.1909 88.6371 20.3707 96.0406 26.5222 95.218C32.6737 94.3954 32.2636 83.7014 32.2636 83.7014L36.3646 74.2413L43.7464 66.0151L44.1565 51.208Z" fill="#CCA1A7"/>
<path d="M67.5322 56.1437C67.5322 56.1437 77.3746 57.3776 78.1948 62.7246C79.015 68.0716 74.5039 89.871 74.5039 89.871L67.5322 82.8788L71.2231 69.3056L67.5322 56.1437Z" fill="#CCA1A7"/>
<path d="M42.3111 51.0023L42.5161 58.6115L36.7747 70.9508L38.005 86.1692L70.9122 86.2687L70.813 79.177C70.813 79.177 75.3241 73.4186 72.8635 68.4829C70.4029 63.5472 68.5575 55.938 68.5575 55.938L65.2767 53.8815C65.2767 53.8815 70.813 66.8377 59.3302 64.7811C47.8474 62.7246 47.2323 49.7684 47.2323 49.7684L42.3111 51.0023Z" fill="#D0CDE1"/>
<path d="M32.6737 133.881L26.9323 166.374L20.3707 213.675L17.5 219.022L19.9606 224.369L26.9323 221.079L29.803 208.328C29.803 208.328 39.6454 196.4 38.005 181.182L55.6393 138.817L32.6737 133.881Z" fill="#CCA1A7"/>
<path d="M60.9706 137.172L65.0716 177.48C65.0716 177.48 64.2514 188.585 66.712 198.457C69.1726 208.328 70.813 225.603 70.813 225.603H79.015L77.3746 175.012L82.7059 133.881L60.9706 137.172Z" fill="#CCA1A7"/>
<path d="M55.2291 100.154C55.2291 100.154 38.0049 98.9198 38.0049 100.976V105.089C38.0049 105.089 34.7241 110.436 35.1342 115.372C35.5443 120.308 19.5504 131.413 29.8029 136.349C40.0554 141.285 53.5887 142.93 55.6392 141.285C57.6897 139.639 58.92 133.058 58.92 133.058C58.92 133.058 58.92 140.462 62.6109 140.873C66.3018 141.285 88.4472 136.76 88.4472 133.058C88.4472 129.357 72.0358 96.2462 72.0358 96.2462C72.0358 96.2462 60.1503 100.565 55.2291 100.154Z" fill="#4B5265"/>
<path d="M19.5505 219.433C19.5505 219.433 17.9101 216.554 16.2697 218.611C14.6293 220.667 8.47783 225.603 8.47783 225.603C8.47783 225.603 -6.69588 229.716 3.55663 235.886C3.55663 235.886 12.5788 235.886 16.2697 233.007C19.9606 230.127 23.6515 231.361 23.6515 231.361C23.6515 231.361 29.3929 230.95 29.803 228.482C30.2132 226.014 27.6547 217.87 27.6547 217.87C27.6547 217.87 24.8818 221.49 19.5505 219.433Z" fill="#4B5265"/>
<path d="M74.0938 221.901C74.0938 221.901 69.1726 220.667 69.1726 221.901C69.1726 223.135 62.2009 230.539 67.9423 233.829C73.6837 237.12 74.5039 236.297 74.914 239.587C75.3241 242.878 85.9867 245.346 87.6271 243.289C89.2675 241.233 90.4978 237.531 88.4473 235.886C86.3968 234.24 79.8352 223.958 79.8352 221.901C79.8352 219.845 74.0938 221.901 74.0938 221.901Z" fill="#4B5265"/>
<path d="M64.1532 62.2422C64.9483 62.2422 65.5929 61.9189 65.5929 61.5202C65.5929 61.1215 64.9483 60.7982 64.1532 60.7982C63.3581 60.7982 62.7135 61.1215 62.7135 61.5202C62.7135 61.9189 63.3581 62.2422 64.1532 62.2422Z" fill="#4B5265"/>
<path d="M64.3168 64.5722C65.9433 64.5722 67.2617 63.8964 67.2617 63.0626C67.2617 62.2289 65.9433 61.553 64.3168 61.553C62.6904 61.553 61.3719 62.2289 61.3719 63.0626C61.3719 63.8964 62.6904 64.5722 64.3168 64.5722Z" fill="#FF0B63"/>
<path d="M67.7853 63.9815H60.7176V69.1666H67.7853V63.9815Z" fill="#F50057"/>
<path d="M72.5952 72.0873H55.8422V97.4879H72.5952V72.0873Z" fill="#FF0B63"/>
<path d="M73.3478 71.792C73.3478 74.2932 69.239 73.4329 64.2514 73.4329C59.2638 73.4329 55.0242 74.2275 55.0242 71.7264C55.0242 69.2252 59.2638 66.6069 64.2514 66.6069C69.2391 66.6069 73.3478 69.2908 73.3478 71.792Z" fill="#FF0B63"/>
<path d="M73.3477 74.483H55.2205V76.4521H73.3477V74.483Z" fill="#4B5265"/>
<path d="M73.4787 93.517H55.3514V95.486H73.4787V93.517Z" fill="#4B5265"/>
<path d="M73.3477 84.9845H55.2205V88.9226H73.3477V84.9845Z" fill="#4B5265"/>
<path d="M73.2169 96.6018C73.2169 97.4355 73.4808 99.8179 64.4478 99.8179C54.2389 99.8179 55.0896 97.3042 55.0896 96.4705C55.0896 95.6368 59.6047 96.7987 64.4478 96.7987C69.2908 96.7987 73.2169 95.7681 73.2169 96.6018Z" fill="#FF0B63"/>
<path d="M68.3743 63.0626H59.9977V65.8849H68.3743V63.0626Z" fill="#4B5265"/>
<path opacity="0.1" d="M57.7399 78.1257H56.6274V84.2954H57.7399V78.1257Z" fill="white"/>
<path opacity="0.1" d="M57.7399 89.8743H56.6274V92.1715H57.7399V89.8743Z" fill="white"/>
<path d="M76.1443 84.9353C76.1443 84.9353 68.3524 74.6526 68.7625 82.0561C69.1726 89.4597 73.6837 93.1615 74.5039 93.1615C75.3241 93.1615 78.6048 92.3388 76.1443 84.9353Z" fill="#CCA1A7"/>
<path opacity="0.1" d="M38.8252 92.8563C39.4403 92.9558 49.2828 89.254 49.2828 89.254L55.4342 88.4314L38.8252 95.3977L38.8252 92.8563Z" fill="black"/>
<path d="M26.1121 85.7579C26.1121 85.7579 29.3929 83.7013 35.9545 84.5239L48.6676 81.2335C48.6676 81.2335 60.5605 74.2412 65.0716 82.8787C69.5827 91.5162 48.2575 88.6371 48.2575 88.6371C48.2575 88.6371 33.904 100.154 25.2919 93.9841L26.1121 85.7579Z" fill="#CCA1A7"/>
<path d="M41.4908 15.6297C44.6617 15.6297 47.2322 13.0516 47.2322 9.87136C47.2322 6.69113 44.6617 4.11304 41.4908 4.11304C38.32 4.11304 35.7495 6.69113 35.7495 9.87136C35.7495 13.0516 38.32 15.6297 41.4908 15.6297Z" fill="#4B5265"/>
<path d="M76.7594 13.9845C79.9303 13.9845 82.5008 11.4064 82.5008 8.22616C82.5008 5.04592 79.9303 2.46783 76.7594 2.46783C73.5885 2.46783 71.018 5.04592 71.018 8.22616C71.018 11.4064 73.5885 13.9845 76.7594 13.9845Z" fill="#4B5265"/>
<path d="M70.608 5.75834C70.6082 4.3381 71.1317 2.96804 72.0779 1.91142C73.0241 0.85481 74.3263 0.186191 75.7342 0.0340502C74.9324 -0.0537913 74.1212 0.0287886 73.3533 0.276411C72.5855 0.524032 71.8783 0.931138 71.2778 1.4712C70.6773 2.01127 70.1969 2.67217 69.8681 3.41084C69.5393 4.14952 69.3694 4.94939 69.3694 5.75834C69.3694 6.56728 69.5393 7.36715 69.8681 8.10583C70.1969 8.8445 70.6773 9.5054 71.2778 10.0455C71.8783 10.5855 72.5855 10.9926 73.3533 11.2403C74.1212 11.4879 74.9324 11.5705 75.7342 11.4826C74.3263 11.3305 73.0241 10.6619 72.0779 9.60524C71.1317 8.54863 70.6082 7.17857 70.608 5.75834Z" fill="#4B5265"/>
<path d="M35.0757 14.5292C34.0848 13.5146 33.5027 12.1686 33.4413 10.7497C33.3798 9.33076 33.8434 7.93914 34.7429 6.84222C34.5814 6.96972 34.4268 7.10574 34.2797 7.2497C33.1927 8.31866 32.5735 9.77686 32.5582 11.3036C32.5429 12.8304 33.1329 14.3008 34.1984 15.3914C35.2638 16.482 36.7175 17.1035 38.2398 17.1194C39.7621 17.1352 41.2283 16.544 42.3161 15.4758C42.4626 15.3313 42.6014 15.179 42.7317 15.0197C41.6199 15.8993 40.2232 16.3357 38.8101 16.2452C37.3969 16.1547 36.0669 15.5435 35.0757 14.5292Z" fill="#4B5265"/>
<path d="M59.1252 14.8071C52.3304 14.8071 46.8221 18.0297 46.8221 22.005C46.8221 23.7838 47.9293 25.4094 49.757 26.6653L52.1254 24.9441L51.4814 27.6405C51.7486 27.7647 52.0215 27.885 52.3061 27.9961L55.8444 23.8559V28.9421C56.9293 29.1164 58.0264 29.2037 59.1252 29.203C65.9199 29.203 71.4281 25.9803 71.4281 22.005C71.4281 18.0298 65.9199 14.8071 59.1252 14.8071Z" fill="#4B5265"/>
<path d="M71.0181 8.2262C71.0181 8.2262 70.1264 12.3393 75.6985 13.9845L71.0181 8.2262Z" fill="#F50057"/>
<path d="M46.8222 8.97473C46.8222 8.97473 48.8727 13.5731 42.7211 15.6297L46.8222 8.97473Z" fill="#F50057"/>
</svg>
