<svg width="1341" height="563" viewBox="0 0 1341 563" fill="none" xmlns="http://www.w3.org/2000/svg">
<path d="M1219 416.325C1219 424.156 1166.39 442 1101.5 442C1036.61 442 984 424.156 984 416.325C984 408.495 1036.61 413.643 1101.5 413.643C1166.39 413.643 1219 408.495 1219 416.325Z" fill="#4B5265"/>
<path opacity="0.1" d="M1219 416.325C1219 424.156 1166.39 442 1101.5 442C1036.61 442 984 424.156 984 416.325C984 408.495 1036.61 413.643 1101.5 413.643C1166.39 413.643 1219 408.495 1219 416.325Z" fill="#4B5265"/>
<path d="M1101.5 430.504C1166.39 430.504 1219 424.156 1219 416.325C1219 408.495 1166.39 402.147 1101.5 402.147C1036.61 402.147 984 408.495 984 416.325C984 424.156 1036.61 430.504 1101.5 430.504Z" fill="#4B5265"/>
<path d="M1104.08 230.846C1104.08 230.846 1098.21 228.732 1094.43 237.189C1090.66 245.645 1084.78 254.948 1084.78 254.948L1088.14 255.793C1088.14 255.793 1088.98 249.874 1091.08 249.028L1090.24 256.639C1090.24 256.639 1115.41 265.519 1126.74 255.793L1126.32 252.834C1126.32 252.834 1128 253.256 1128 255.793L1129.26 254.525C1129.26 254.525 1128 251.988 1124.22 248.605C1121.75 246.385 1120.89 242.161 1120.6 239.52C1120.38 237.315 1119.51 235.228 1118.09 233.533C1115.58 230.602 1111.01 227.487 1104.08 230.846Z" fill="#4B5265"/>
<path d="M1097.89 264.003L1091.8 256.338L1087.24 240.627L1104.73 221.85C1104.73 221.85 1108.53 207.289 1105.11 208.055C1101.69 208.821 1100.93 219.551 1100.93 219.551L1078.87 236.795C1078.87 236.795 1081.16 260.937 1087.62 269.367L1092.56 285.079L1097.89 264.003Z" fill="#CCA1A7"/>
<path d="M1114.62 264.003L1120.7 256.338L1125.27 240.627L1107.77 221.85C1107.77 221.85 1103.97 207.289 1107.39 208.055C1110.82 208.821 1111.58 219.551 1111.58 219.551L1133.63 236.795C1133.63 236.795 1131.35 260.937 1124.89 269.367L1119.94 285.079L1114.62 264.003Z" fill="#CCA1A7"/>
<path d="M1106.25 257.488C1111.71 257.488 1116.14 253.027 1116.14 247.525C1116.14 242.022 1111.71 237.562 1106.25 237.562C1100.79 237.562 1096.37 242.022 1096.37 247.525C1096.37 253.027 1100.79 257.488 1106.25 257.488Z" fill="#CCA1A7"/>
<path d="M1101.69 252.89C1101.69 252.89 1102.07 260.937 1099.79 263.619C1097.51 266.302 1095.23 280.097 1106.25 280.48C1117.28 280.863 1116.14 268.984 1116.14 268.984L1113.86 262.47C1113.86 262.47 1110.44 257.488 1111.58 252.89H1101.69Z" fill="#CCA1A7"/>
<path d="M1091.42 342.176L1099.6 344.667C1099.6 344.667 1106.25 340.643 1106.25 344.475C1106.25 348.307 1103.97 353.289 1104.73 356.737C1105.49 360.186 1107.01 368.617 1104.73 368.617C1102.45 368.617 1097.89 353.672 1097.89 353.672L1090.28 349.457L1091.42 342.176Z" fill="#CCA1A7"/>
<path d="M1101.69 395.824L1098.65 407.704C1098.65 407.704 1095.99 411.152 1098.65 412.685C1099.9 413.404 1100.81 414.883 1101.43 416.25C1101.97 417.481 1102.87 418.515 1104.01 419.212C1105.16 419.908 1106.48 420.234 1107.82 420.143C1109.11 420.035 1110.21 419.518 1110.47 418.174C1110.55 417.752 1110.53 417.32 1110.43 416.904C1110.33 416.488 1110.14 416.098 1109.88 415.759C1107.08 411.939 1106.44 409.428 1106.44 409.428L1107.58 396.016L1101.69 395.824Z" fill="#CCA1A7"/>
<path d="M1094.33 249.294C1094.33 249.294 1097.68 244.643 1100.62 243.797C1103.56 242.952 1103.98 238.723 1103.98 238.723C1103.98 238.723 1111.53 247.18 1116.15 247.603C1120.76 248.026 1116.56 237.455 1116.56 237.455L1108.17 235.341L1100.2 236.186L1093.91 240.415L1094.33 249.294Z" fill="#4B5265"/>
<path d="M1088 313.052L1086.48 316.118C1086.48 316.118 1049.59 327.997 1052.64 339.11C1055.68 350.223 1072.79 347.157 1072.79 347.157L1091.8 350.606L1093.7 342.176L1080.4 338.727L1103.21 330.296L1103.97 369.383L1100.93 397.357L1108.53 398.123C1108.53 398.123 1116.9 372.449 1115.76 361.719C1115.76 361.719 1129.83 318.034 1121.84 311.52C1113.86 305.005 1088 313.052 1088 313.052Z" fill="#4B5265"/>
<path d="M1106.7 268.989L1100.77 261.763L1096.75 263.619L1092.56 277.031C1092.56 277.031 1089.14 283.546 1093.32 290.443C1093.32 290.443 1094.09 295.042 1092.94 296.191C1091.8 297.341 1091.42 304.622 1091.42 304.622L1086.48 314.202C1086.48 314.202 1114.62 319.184 1122.98 312.286C1122.98 312.286 1118.59 295.976 1121.26 290.995C1123.92 286.013 1124.3 278.376 1121.26 274.927C1118.21 271.478 1115 262.47 1115 262.47L1113.16 261.283L1106.7 268.989Z" fill="#FF0B63"/>
<path d="M1128.88 211.776H1125.24V208.101H1124.9V211.776H1121.26V212.11H1124.9V215.785H1125.24V212.11H1128.88V211.776Z" fill="#CFCCE0"/>
<path d="M1094.22 204.092H1090.57V200.417H1090.24V204.092H1086.6V204.426H1090.24V208.101H1090.57V204.426H1094.22V204.092Z" fill="#CFCCE0"/>
<path d="M1110.86 187.675H1107.21V184H1106.88V187.675H1103.23V188.009H1106.88V191.684H1107.21V188.009H1110.86V187.675Z" fill="#CFCCE0"/>
<path d="M192.992 370.746C192.992 370.746 197.469 363.401 203.217 367.743C208.965 372.086 219.61 379.414 219.61 379.414C219.61 379.414 221.79 384.101 216.147 382.34C210.504 380.58 192.083 377.747 192.083 377.747L192.992 370.746Z" fill="#CCA1A7"/>
<path d="M170.999 379.875C166.181 379.875 161.771 379.413 158.268 378.322C154.103 377.025 151.488 374.928 150.494 372.084C150.027 370.877 149.888 369.567 150.09 368.289C150.292 367.01 150.829 365.808 151.645 364.803C157.807 356.775 179.187 354.511 182.056 354.243L187.876 343.223C188.248 340.593 186.486 338.603 189.53 338.553L225.538 338.064C228.528 338.001 227.679 339.852 228.191 342.416L233.677 352.209L210.066 362.174L213.636 370.873L213.403 371.008C206.493 375.017 186.62 379.874 170.999 379.875Z" fill="#4B5265"/>
<path d="M230.408 352.627C230.408 352.627 263.383 348.854 261.232 363.948C259.082 379.042 233.993 389.734 196 363.948L200.301 356.401C200.301 356.401 214.459 355.697 223.061 351.923L230.408 352.627Z" fill="#4B5265"/>
<path d="M183.725 284.245C183.725 284.245 177.458 283.106 175.749 292.791C174.039 302.477 171.302 325.42 171.302 325.42L162.8 354.891C161.798 355.423 160.967 356.23 160.406 357.217C159.844 358.203 159.575 359.329 159.63 360.463C159.685 361.597 160.061 362.692 160.714 363.62C161.368 364.548 162.272 365.271 163.322 365.704C164.371 366.138 165.522 366.264 166.64 366.067C167.758 365.871 168.797 365.361 169.636 364.596C170.475 363.831 171.079 362.843 171.377 361.748C171.676 360.653 171.656 359.495 171.321 358.41L182.696 327.131L184.865 300.2V286.089C184.865 285.706 184.758 285.331 184.557 285.005C184.356 284.679 184.068 284.416 183.725 284.245V284.245Z" fill="#CCA1A7"/>
<path d="M227.839 284.245C227.839 284.245 234.106 283.106 235.815 292.791C237.525 302.477 240.263 325.42 240.263 325.42L248.764 354.891C249.766 355.423 250.597 356.23 251.158 357.217C251.72 358.203 251.989 359.329 251.934 360.463C251.879 361.597 251.503 362.692 250.85 363.62C250.196 364.548 249.292 365.271 248.242 365.704C247.193 366.138 246.042 366.264 244.924 366.067C243.806 365.871 242.767 365.361 241.928 364.596C241.089 363.831 240.485 362.843 240.187 361.748C239.888 360.653 239.908 359.495 240.243 358.41L228.868 327.131L226.699 300.2V286.089C226.699 285.706 226.806 285.331 227.007 285.005C227.209 284.679 227.497 284.416 227.839 284.245V284.245Z" fill="#CCA1A7"/>
<path d="M227.361 276.239L215.507 271.805L192.529 271.509L182.639 276.239L185.417 292.204C185.417 292.204 179.808 301.701 185.983 311.199L187.369 345.043C187.369 345.043 209.522 357.889 228.221 342.463L223.995 310.996C223.995 310.996 231.064 296.397 225.585 290.973L227.361 276.239Z" fill="#FF0B63"/>
<path d="M222.533 281.2L227.361 276.239C227.361 276.239 237.899 281.782 237.682 300.32L224.389 296.224L222.533 281.2Z" fill="#FF0B63"/>
<path d="M188.003 281.2L182.873 276.07C182.873 276.07 173.821 283.072 174.038 301.61L186.146 296.224L188.003 281.2Z" fill="#FF0B63"/>
<path d="M221.443 367.078C221.443 367.078 217.75 359.309 211.584 363.033C205.417 366.758 194.071 372.944 194.071 372.944C194.071 372.944 191.417 377.38 197.212 376.213C203.007 375.046 221.622 374.136 221.622 374.136L221.443 367.078Z" fill="#CCA1A7"/>
<path d="M211.184 228.198C211.236 228.148 211.291 228.103 211.342 228.052C214.642 224.752 215.311 220.071 212.836 217.596C210.497 215.257 206.19 215.729 202.938 218.573C200.15 215.919 196.412 215.179 193.992 217.011C191.202 219.124 191.224 223.852 194.041 227.573C194.234 227.827 194.436 228.068 194.644 228.3C190.895 229.672 187.658 232.163 185.371 235.435C183.085 238.708 181.858 242.604 181.858 246.596V265.139C181.858 265.682 181.965 266.221 182.173 266.723C182.381 267.225 182.686 267.682 183.071 268.066C183.455 268.451 183.912 268.756 184.414 268.964C184.917 269.172 185.455 269.279 185.999 269.279H220.27C221.331 269.279 222.349 268.857 223.099 268.107C223.85 267.357 224.271 266.339 224.271 265.278V246.596C224.271 242.55 223.01 238.605 220.665 235.308C218.32 232.011 215.006 229.526 211.184 228.198Z" fill="#4B5265"/>
<path d="M215.105 262.666C221.456 256.315 221.456 246.018 215.105 239.667C208.755 233.316 198.458 233.316 192.107 239.667C185.756 246.018 185.756 256.315 192.107 262.666C198.458 269.017 208.755 269.017 215.105 262.666Z" fill="#CCA1A7"/>
<path d="M186.518 240.937C190.234 243.499 194.645 244.862 199.158 244.844C197.548 245.96 195.716 246.714 193.786 247.054C199.787 248.341 205.989 248.376 212.004 247.156C213.341 246.942 214.631 246.499 215.818 245.846C216.409 245.516 216.924 245.065 217.33 244.523C217.735 243.98 218.022 243.359 218.172 242.698C218.571 240.415 216.792 238.34 214.943 236.942C212.112 234.834 208.848 233.382 205.387 232.69C201.926 231.999 198.354 232.085 194.931 232.943C192.695 233.521 190.456 234.497 189.004 236.293C187.552 238.088 187.121 240.856 188.505 242.704L186.518 240.937Z" fill="#4B5265"/>
<path d="M648.132 335.232C648.132 335.232 650.182 344.692 643.211 348.394C643.211 348.394 644.851 369.371 655.514 369.782C666.176 370.193 666.176 358.677 666.176 358.677L664.536 352.507C664.536 352.507 656.744 347.983 661.665 339.345L648.132 335.232Z" fill="#CCA1A7"/>
<path d="M656.949 340.373C667.594 340.373 676.224 331.718 676.224 321.042C676.224 310.365 667.594 301.71 656.949 301.71C646.304 301.71 637.674 310.365 637.674 321.042C637.674 331.718 646.304 340.373 656.949 340.373Z" fill="#4B5265"/>
<path d="M636.649 379.242V402.275L670.687 401.041L668.226 378.419L636.649 379.242Z" fill="#CCA1A7"/>
<path d="M657.154 341.813C663.949 341.813 669.457 336.288 669.457 329.474C669.457 322.659 663.949 317.134 657.154 317.134C650.359 317.134 644.851 322.659 644.851 329.474C644.851 336.288 650.359 341.813 657.154 341.813Z" fill="#CCA1A7"/>
<path d="M641.98 348.394C641.98 348.394 635.009 347.16 632.548 348.394C630.087 349.628 627.217 349.216 624.346 361.144L619.015 385.823C619.015 385.823 618.194 393.227 624.346 392.404C630.497 391.581 630.087 380.887 630.087 380.887L634.188 371.427L641.57 363.201L641.98 348.394Z" fill="#CCA1A7"/>
<path d="M665.356 353.33C665.356 353.33 675.198 354.564 676.019 359.911C676.839 365.258 672.328 387.057 672.328 387.057L665.356 380.065L669.047 366.491L665.356 353.33Z" fill="#CCA1A7"/>
<path d="M640.135 348.188L640.34 355.797L634.598 368.137L635.829 383.355L668.736 383.455L668.637 376.363C668.637 376.363 673.148 370.605 670.687 365.669C668.227 360.733 666.381 353.124 666.381 353.124L663.1 351.067C663.1 351.067 668.637 364.024 657.154 361.967C645.671 359.911 645.056 346.954 645.056 346.954L640.135 348.188Z" fill="#D0CDE1"/>
<path d="M630.497 431.067L624.756 463.56L618.194 510.861L615.324 516.208L617.784 521.555L624.756 518.264L627.627 505.514C627.627 505.514 637.469 493.586 635.829 478.367L653.463 436.003L630.497 431.067Z" fill="#CCA1A7"/>
<path d="M658.794 434.357L662.895 474.666C662.895 474.666 662.075 485.771 664.536 495.642C666.996 505.514 668.637 522.789 668.637 522.789H676.839L675.198 472.198L680.53 431.067L658.794 434.357Z" fill="#CCA1A7"/>
<path d="M653.053 397.34C653.053 397.34 635.829 396.106 635.829 398.162V402.275C635.829 402.275 632.548 407.622 632.958 412.558C633.368 417.494 617.374 428.599 627.627 433.535C637.879 438.47 651.412 440.116 653.463 438.471C655.513 436.825 656.744 430.244 656.744 430.244C656.744 430.244 656.744 437.648 660.435 438.059C664.126 438.471 686.271 433.946 686.271 430.244C686.271 426.543 669.86 393.432 669.86 393.432C669.86 393.432 657.974 397.751 653.053 397.34Z" fill="#4B5265"/>
<path d="M617.374 516.619C617.374 516.619 615.734 513.74 614.093 515.797C612.453 517.853 606.302 522.789 606.302 522.789C606.302 522.789 591.128 526.902 601.38 533.072C601.38 533.072 610.403 533.072 614.093 530.192C617.784 527.313 621.475 528.547 621.475 528.547C621.475 528.547 627.217 528.136 627.627 525.668C628.037 523.2 625.478 515.056 625.478 515.056C625.478 515.056 622.706 518.676 617.374 516.619Z" fill="#4B5265"/>
<path d="M671.918 519.087C671.918 519.087 666.996 517.853 666.996 519.087C666.996 520.321 660.025 527.725 665.766 531.015C671.507 534.306 672.328 533.483 672.738 536.773C673.148 540.064 683.81 542.532 685.451 540.475C687.091 538.419 688.322 534.717 686.271 533.072C684.221 531.426 677.659 521.144 677.659 519.087C677.659 517.031 671.918 519.087 671.918 519.087Z" fill="#4B5265"/>
<path d="M661.977 359.428C662.772 359.428 663.417 359.105 663.417 358.706C663.417 358.307 662.772 357.984 661.977 357.984C661.182 357.984 660.537 358.307 660.537 358.706C660.537 359.105 661.182 359.428 661.977 359.428Z" fill="#4B5265"/>
<path d="M662.141 361.758C663.767 361.758 665.085 361.082 665.085 360.249C665.085 359.415 663.767 358.739 662.141 358.739C660.514 358.739 659.196 359.415 659.196 360.249C659.196 361.082 660.514 361.758 662.141 361.758Z" fill="#FF0B63"/>
<path d="M665.609 361.167H658.541V366.353H665.609V361.167Z" fill="#F50057"/>
<path d="M670.419 369.273H653.666V394.674H670.419V369.273Z" fill="#FF0B63"/>
<path d="M671.172 368.978C671.172 371.479 667.063 370.619 662.075 370.619C657.088 370.619 652.848 371.413 652.848 368.912C652.848 366.411 657.088 363.793 662.075 363.793C667.063 363.793 671.172 366.477 671.172 368.978Z" fill="#FF0B63"/>
<path d="M671.171 371.669H653.044V373.638H671.171V371.669Z" fill="#4B5265"/>
<path d="M671.302 390.703H653.175V392.672H671.302V390.703Z" fill="#4B5265"/>
<path d="M671.171 382.17H653.044V386.108H671.171V382.17Z" fill="#4B5265"/>
<path d="M671.041 393.788C671.041 394.621 671.305 397.004 662.271 397.004C652.063 397.004 652.913 394.49 652.913 393.656C652.913 392.823 657.428 393.985 662.271 393.985C667.115 393.985 671.041 392.954 671.041 393.788Z" fill="#FF0B63"/>
<path d="M666.198 360.249H657.821V363.071H666.198V360.249Z" fill="#4B5265"/>
<path opacity="0.1" d="M655.564 375.312H654.451V381.481H655.564V375.312Z" fill="white"/>
<path opacity="0.1" d="M655.564 387.06H654.451V389.357H655.564V387.06Z" fill="white"/>
<path d="M673.968 382.121C673.968 382.121 666.176 371.838 666.586 379.242C666.996 386.646 671.507 390.347 672.328 390.347C673.148 390.347 676.429 389.525 673.968 382.121Z" fill="#CCA1A7"/>
<path opacity="0.1" d="M636.649 390.042C637.264 390.142 647.106 386.44 647.106 386.44L653.258 385.617L636.649 392.584L636.649 390.042Z" fill="black"/>
<path d="M623.936 382.944C623.936 382.944 627.217 380.887 633.778 381.71L646.491 378.419C646.491 378.419 658.384 371.427 662.895 380.065C667.406 388.702 646.081 385.823 646.081 385.823C646.081 385.823 631.728 397.34 623.116 391.17L623.936 382.944Z" fill="#CCA1A7"/>
<path d="M639.315 312.816C642.485 312.816 645.056 310.238 645.056 307.057C645.056 303.877 642.485 301.299 639.315 301.299C636.144 301.299 633.573 303.877 633.573 307.057C633.573 310.238 636.144 312.816 639.315 312.816Z" fill="#4B5265"/>
<path d="M674.583 311.17C677.754 311.17 680.325 308.592 680.325 305.412C680.325 302.232 677.754 299.654 674.583 299.654C671.412 299.654 668.842 302.232 668.842 305.412C668.842 308.592 671.412 311.17 674.583 311.17Z" fill="#4B5265"/>
<path d="M668.432 302.944C668.432 301.524 668.955 300.154 669.902 299.097C670.848 298.041 672.15 297.372 673.558 297.22C672.756 297.132 671.945 297.215 671.177 297.462C670.409 297.71 669.702 298.117 669.101 298.657C668.501 299.197 668.021 299.858 667.692 300.597C667.363 301.335 667.193 302.135 667.193 302.944C667.193 303.753 667.363 304.553 667.692 305.292C668.021 306.03 668.501 306.691 669.101 307.231C669.702 307.771 670.409 308.179 671.177 308.426C671.945 308.674 672.756 308.756 673.558 308.669C672.15 308.516 670.848 307.848 669.902 306.791C668.955 305.735 668.432 304.364 668.432 302.944V302.944Z" fill="#4B5265"/>
<path d="M632.899 311.715C631.909 310.701 631.326 309.354 631.265 307.936C631.204 306.517 631.667 305.125 632.567 304.028C632.405 304.156 632.251 304.292 632.103 304.436C631.016 305.505 630.397 306.963 630.382 308.49C630.367 310.016 630.957 311.487 632.022 312.577C633.088 313.668 634.541 314.289 636.064 314.305C637.586 314.321 639.052 313.73 640.14 312.662C640.286 312.517 640.425 312.365 640.555 312.206C639.444 313.085 638.047 313.522 636.634 313.431C635.221 313.341 633.891 312.729 632.899 311.715V311.715Z" fill="#4B5265"/>
<path d="M656.949 311.993C650.154 311.993 644.646 315.216 644.646 319.191C644.646 320.97 645.753 322.595 647.581 323.851L649.949 322.13L649.305 324.826C649.572 324.951 649.845 325.071 650.13 325.182L653.668 321.042V326.128C654.753 326.302 655.85 326.39 656.949 326.389C663.744 326.389 669.252 323.166 669.252 319.191C669.252 315.216 663.744 311.993 656.949 311.993Z" fill="#4B5265"/>
<path d="M668.842 305.412C668.842 305.412 667.95 309.525 673.522 311.17Z" fill="#F50057"/>
<path d="M644.646 306.161C644.646 306.161 646.696 310.759 640.545 312.816Z" fill="#F50057"/>
<path d="M332.494 20.6138C338.17 20.6138 342.771 15.9993 342.771 10.3069C342.771 4.61456 338.17 0 332.494 0C326.819 0 322.218 4.61456 322.218 10.3069C322.218 15.9993 326.819 20.6138 332.494 20.6138Z" fill="#F50057"/>
<path d="M330.281 18.7341C331.284 17.9201 330.649 15.4669 328.864 13.2547C327.078 11.0425 324.818 9.90911 323.815 10.7231C322.813 11.5371 323.447 13.9903 325.233 16.2025C327.019 18.4147 329.279 19.5481 330.281 18.7341Z" fill="white"/>
<path d="M10.358 192.614C16.0337 192.614 20.6347 187.999 20.6347 182.307C20.6347 176.615 16.0337 172 10.358 172C4.68242 172 0.0814209 176.615 0.0814209 182.307C0.0814209 187.999 4.68242 192.614 10.358 192.614Z" fill="#3F3D56"/>
<path d="M5.84781 181.087C6.5866 178.339 6.17589 175.839 4.93045 175.502C3.68502 175.165 2.07648 177.12 1.33769 179.868C0.598906 182.616 1.00963 185.116 2.25507 185.453C3.5005 185.79 5.10903 183.835 5.84781 181.087Z" fill="white"/>
<path d="M30.455 33.8464C33.992 33.8464 36.8594 30.9707 36.8594 27.4232C36.8594 23.8758 33.992 21 30.455 21C26.918 21 24.0507 23.8758 24.0507 27.4232C24.0507 30.9707 26.918 33.8464 30.455 33.8464Z" fill="#3F3D56"/>
<path d="M27.6443 26.6631C28.1047 24.9506 27.8488 23.3921 27.0726 23.1822C26.2965 22.9723 25.2941 24.1905 24.8336 25.903C24.3732 27.6156 24.6292 29.1741 25.4053 29.384C26.1815 29.5938 27.1839 28.3757 27.6443 26.6631Z" fill="white"/>
<path d="M223.454 118.846C226.991 118.846 229.858 115.971 229.858 112.423C229.858 108.876 226.991 106 223.454 106C219.917 106 217.05 108.876 217.05 112.423C217.05 115.971 219.917 118.846 223.454 118.846Z" fill="#3F3D56"/>
<path d="M220.644 111.664C221.105 109.951 220.849 108.392 220.073 108.183C219.296 107.973 218.294 109.191 217.834 110.903C217.373 112.616 217.629 114.174 218.405 114.384C219.181 114.594 220.184 113.376 220.644 111.664Z" fill="white"/>
<path d="M332.494 20.6138C338.17 20.6138 342.771 15.9993 342.771 10.3069C342.771 4.61456 338.17 0 332.494 0C326.819 0 322.218 4.61456 322.218 10.3069C322.218 15.9993 326.819 20.6138 332.494 20.6138Z" fill="#FF0B63"/>
<path d="M330.281 18.7341C331.284 17.9201 330.649 15.4669 328.864 13.2547C327.078 11.0425 324.818 9.90911 323.815 10.7231C322.813 11.5371 323.447 13.9903 325.233 16.2025C327.019 18.4147 329.279 19.5481 330.281 18.7341Z" fill="white"/>
<path d="M10.358 192.614C16.0337 192.614 20.6347 187.999 20.6347 182.307C20.6347 176.615 16.0337 172 10.358 172C4.68242 172 0.0814209 176.615 0.0814209 182.307C0.0814209 187.999 4.68242 192.614 10.358 192.614Z" fill="#4B5265"/>
<path d="M5.84781 181.087C6.5866 178.339 6.17589 175.839 4.93045 175.502C3.68502 175.165 2.07648 177.12 1.33769 179.868C0.598906 182.616 1.00963 185.116 2.25507 185.453C3.5005 185.79 5.10903 183.835 5.84781 181.087Z" fill="white"/>
<path d="M30.455 33.8464C33.992 33.8464 36.8594 30.9707 36.8594 27.4232C36.8594 23.8758 33.992 21 30.455 21C26.918 21 24.0507 23.8758 24.0507 27.4232C24.0507 30.9707 26.918 33.8464 30.455 33.8464Z" fill="#4B5265"/>
<path d="M27.6443 26.6631C28.1047 24.9506 27.8488 23.3921 27.0726 23.1822C26.2965 22.9723 25.2941 24.1905 24.8336 25.903C24.3732 27.6156 24.6292 29.1741 25.4053 29.384C26.1815 29.5938 27.1839 28.3757 27.6443 26.6631Z" fill="white"/>
<path d="M223.454 118.846C226.991 118.846 229.858 115.971 229.858 112.423C229.858 108.876 226.991 106 223.454 106C219.917 106 217.05 108.876 217.05 112.423C217.05 115.971 219.917 118.846 223.454 118.846Z" fill="#4B5265"/>
<path d="M220.644 111.664C221.105 109.951 220.849 108.392 220.073 108.183C219.296 107.973 218.294 109.191 217.834 110.903C217.373 112.616 217.629 114.174 218.405 114.384C219.181 114.594 220.184 113.376 220.644 111.664Z" fill="white"/>
<path d="M934.906 356.712C940.582 356.712 945.183 352.097 945.183 346.405C945.183 340.712 940.582 336.098 934.906 336.098C929.231 336.098 924.63 340.712 924.63 346.405C924.63 352.097 929.231 356.712 934.906 356.712Z" fill="#F50057"/>
<path d="M932.693 354.832C933.696 354.018 933.061 351.565 931.276 349.352C929.49 347.14 927.23 346.007 926.227 346.821C925.225 347.635 925.859 350.088 927.645 352.3C929.43 354.512 931.691 355.646 932.693 354.832Z" fill="white"/>
<path d="M784.358 234.614C790.034 234.614 794.635 229.999 794.635 224.307C794.635 218.615 790.034 214 784.358 214C778.682 214 774.081 218.615 774.081 224.307C774.081 229.999 778.682 234.614 784.358 234.614Z" fill="#3F3D56"/>
<path d="M779.848 223.087C780.587 220.339 780.176 217.839 778.93 217.502C777.685 217.165 776.076 219.12 775.338 221.868C774.599 224.616 775.01 227.116 776.255 227.453C777.501 227.79 779.109 225.835 779.848 223.087Z" fill="white"/>
<path d="M951.455 155.846C954.992 155.846 957.859 152.971 957.859 149.423C957.859 145.876 954.992 143 951.455 143C947.918 143 945.051 145.876 945.051 149.423C945.051 152.971 947.918 155.846 951.455 155.846Z" fill="#3F3D56"/>
<path d="M948.644 148.663C949.105 146.951 948.849 145.392 948.073 145.182C947.296 144.972 946.294 146.19 945.834 147.903C945.373 149.616 945.629 151.174 946.405 151.384C947.181 151.594 948.184 150.376 948.644 148.663Z" fill="white"/>
<path d="M918.811 420.748C922.348 420.748 925.215 417.872 925.215 414.325C925.215 410.777 922.348 407.902 918.811 407.902C915.274 407.902 912.406 410.777 912.406 414.325C912.406 417.872 915.274 420.748 918.811 420.748Z" fill="#3F3D56"/>
<path d="M916.001 413.565C916.461 411.853 916.205 410.294 915.429 410.084C914.653 409.874 913.651 411.093 913.19 412.805C912.73 414.518 912.986 416.076 913.762 416.286C914.538 416.496 915.541 415.278 916.001 413.565Z" fill="white"/>
<path d="M934.906 356.712C940.582 356.712 945.183 352.097 945.183 346.405C945.183 340.712 940.582 336.098 934.906 336.098C929.231 336.098 924.63 340.712 924.63 346.405C924.63 352.097 929.231 356.712 934.906 356.712Z" fill="#FF0B63"/>
<path d="M932.693 354.832C933.696 354.018 933.061 351.565 931.276 349.352C929.49 347.14 927.23 346.007 926.227 346.821C925.225 347.635 925.859 350.088 927.645 352.3C929.43 354.512 931.691 355.646 932.693 354.832Z" fill="white"/>
<path d="M784.358 234.614C790.034 234.614 794.635 229.999 794.635 224.307C794.635 218.615 790.034 214 784.358 214C778.682 214 774.081 218.615 774.081 224.307C774.081 229.999 778.682 234.614 784.358 234.614Z" fill="#4B5265"/>
<path d="M779.848 223.087C780.587 220.339 780.176 217.839 778.93 217.502C777.685 217.165 776.076 219.12 775.338 221.868C774.599 224.616 775.01 227.116 776.255 227.453C777.501 227.79 779.109 225.835 779.848 223.087Z" fill="white"/>
<path d="M951.455 155.846C954.992 155.846 957.859 152.971 957.859 149.423C957.859 145.876 954.992 143 951.455 143C947.918 143 945.051 145.876 945.051 149.423C945.051 152.971 947.918 155.846 951.455 155.846Z" fill="#4B5265"/>
<path d="M948.644 148.663C949.105 146.951 948.849 145.392 948.073 145.182C947.296 144.972 946.294 146.19 945.834 147.903C945.373 149.616 945.629 151.174 946.405 151.384C947.181 151.594 948.184 150.376 948.644 148.663Z" fill="white"/>
<path d="M918.811 420.748C922.348 420.748 925.215 417.872 925.215 414.325C925.215 410.777 922.348 407.902 918.811 407.902C915.274 407.902 912.406 410.777 912.406 414.325C912.406 417.872 915.274 420.748 918.811 420.748Z" fill="#4B5265"/>
<path d="M916.001 413.565C916.461 411.853 916.205 410.294 915.429 410.084C914.653 409.874 913.651 411.093 913.19 412.805C912.73 414.518 912.986 416.076 913.762 416.286C914.538 416.496 915.541 415.278 916.001 413.565Z" fill="white"/>
<path d="M1042.8 490.246C1042.36 495.904 1046.6 500.85 1052.28 501.292C1057.95 501.734 1062.91 497.506 1063.35 491.847C1063.79 486.189 1059.55 481.243 1053.87 480.801C1048.2 480.359 1043.24 484.587 1042.8 490.246Z" fill="#F50057"/>
<path d="M1044.84 488.185C1045.58 489.248 1048.07 488.806 1050.42 487.198C1052.76 485.589 1054.07 483.424 1053.33 482.361C1052.6 481.298 1050.1 481.741 1047.76 483.349C1045.42 484.957 1044.11 487.123 1044.84 488.185Z" fill="white"/>
<path d="M1243.69 519.298C1249.36 519.298 1253.96 514.683 1253.96 508.991C1253.96 503.299 1249.36 498.684 1243.69 498.684C1238.01 498.684 1233.41 503.299 1233.41 508.991C1233.41 514.683 1238.01 519.298 1243.69 519.298Z" fill="#4B5265"/>
<path d="M1239.18 507.772C1239.92 505.023 1239.5 502.523 1238.26 502.186C1237.01 501.849 1235.41 503.804 1234.67 506.552C1233.93 509.3 1234.34 511.801 1235.58 512.137C1236.83 512.474 1238.44 510.52 1239.18 507.772Z" fill="white"/>
<path d="M1304.46 352.846C1307.99 352.846 1310.86 349.971 1310.86 346.423C1310.86 342.876 1307.99 340 1304.46 340C1300.92 340 1298.05 342.876 1298.05 346.423C1298.05 349.971 1300.92 352.846 1304.46 352.846Z" fill="#3F3D56"/>
<path d="M1301.64 345.663C1302.1 343.951 1301.85 342.392 1301.07 342.182C1300.3 341.972 1299.29 343.19 1298.83 344.903C1298.37 346.616 1298.63 348.174 1299.41 348.384C1300.18 348.594 1301.18 347.376 1301.64 345.663Z" fill="white"/>
<path d="M1045.8 490.246C1045.36 495.904 1049.6 500.85 1055.28 501.292C1060.95 501.734 1065.91 497.506 1066.35 491.847C1066.79 486.189 1062.55 481.243 1056.87 480.801C1051.2 480.359 1046.24 484.587 1045.8 490.246Z" fill="#FF0B63"/>
<path d="M1044.84 488.185C1045.58 489.248 1048.07 488.806 1050.42 487.198C1052.76 485.589 1054.07 483.424 1053.33 482.361C1052.6 481.298 1050.1 481.741 1047.76 483.349C1045.42 484.957 1044.11 487.123 1044.84 488.185Z" fill="white"/>
<path d="M1304.46 352.846C1307.99 352.846 1310.86 349.971 1310.86 346.423C1310.86 342.876 1307.99 340 1304.46 340C1300.92 340 1298.05 342.876 1298.05 346.423C1298.05 349.971 1300.92 352.846 1304.46 352.846Z" fill="#4B5265"/>
<path d="M1301.64 345.663C1302.1 343.951 1301.85 342.392 1301.07 342.182C1300.3 341.972 1299.29 343.19 1298.83 344.903C1298.37 346.616 1298.63 348.174 1299.41 348.384C1300.18 348.594 1301.18 347.376 1301.64 345.663Z" fill="white"/>
<path d="M1206.13 191.214C1205.51 196.856 1209.59 201.936 1215.24 202.562C1220.9 203.187 1225.99 199.121 1226.62 193.48C1227.24 187.839 1223.16 182.758 1217.5 182.133C1211.85 181.507 1206.75 185.573 1206.13 191.214Z" fill="#4B5265"/>
<path d="M1212.02 184.816C1211.88 186.098 1214.06 187.391 1216.89 187.704C1219.72 188.017 1222.12 187.231 1222.27 185.949C1222.41 184.667 1220.23 183.374 1217.4 183.061C1214.57 182.749 1212.16 183.534 1212.02 184.816Z" fill="white"/>
<path d="M1266.58 24.2604C1266.26 29.9271 1270.61 34.7798 1276.29 35.0992C1281.97 35.4186 1286.84 31.0838 1287.16 25.4171C1287.48 19.7504 1283.13 14.8977 1277.44 14.5783C1271.76 14.2589 1266.9 18.5937 1266.58 24.2604Z" fill="#FF0B63"/>
<path d="M1280.94 22.5321C1282.35 24.9999 1284.4 26.4841 1285.52 25.8471C1286.65 25.2101 1286.42 22.6932 1285.01 20.2254C1283.6 17.7576 1281.55 16.2735 1280.43 16.9104C1279.3 17.5474 1279.53 20.0643 1280.94 22.5321Z" fill="white"/>
<path d="M1327.28 92.3638C1326.89 95.8794 1329.43 99.0454 1332.96 99.4353C1336.48 99.8252 1339.66 97.2913 1340.05 93.7757C1340.43 90.2601 1337.89 87.0941 1334.37 86.7042C1330.84 86.3143 1327.67 88.8482 1327.28 92.3638Z" fill="#F50057"/>
<path d="M1336.2 91.6322C1337.08 93.1702 1338.35 94.0951 1339.06 93.6981C1339.76 93.3012 1339.61 91.7326 1338.74 90.1947C1337.86 88.6568 1336.58 87.7319 1335.88 88.1288C1335.18 88.5258 1335.32 90.0943 1336.2 91.6322Z" fill="white"/>
<path d="M400.13 337.214C399.506 342.856 403.587 347.936 409.245 348.562C414.902 349.187 419.995 345.121 420.618 339.48C421.242 333.839 417.161 328.758 411.503 328.133C405.846 327.507 400.753 331.573 400.13 337.214Z" fill="#4B5265"/>
<path d="M406.022 330.816C405.88 332.099 408.058 333.391 410.887 333.704C413.716 334.017 416.124 333.231 416.266 331.949C416.408 330.667 414.23 329.374 411.401 329.061C408.572 328.749 406.164 329.534 406.022 330.816Z" fill="white"/>
<path d="M550.129 437.214C549.506 442.856 553.587 447.936 559.244 448.562C564.902 449.187 569.995 445.121 570.618 439.48C571.242 433.839 567.161 428.758 561.503 428.133C555.846 427.507 550.753 431.573 550.129 437.214Z" fill="#FF0B63"/>
<path d="M564.446 436.041C565.853 438.508 567.905 439.992 569.03 439.355C570.155 438.719 569.926 436.202 568.519 433.734C567.112 431.266 565.059 429.782 563.935 430.419C562.81 431.056 563.039 433.573 564.446 436.041Z" fill="white"/>
<path d="M579.277 260.364C578.888 263.879 581.431 267.045 584.957 267.435C588.483 267.825 591.657 265.291 592.046 261.776C592.434 258.26 589.891 255.094 586.365 254.704C582.839 254.314 579.666 256.848 579.277 260.364Z" fill="#F50057"/>
<path d="M588.199 259.632C589.076 261.17 590.355 262.095 591.055 261.698C591.756 261.301 591.614 259.733 590.737 258.195C589.86 256.657 588.581 255.732 587.88 256.129C587.179 256.526 587.322 258.094 588.199 259.632Z" fill="white"/>
<path d="M444.188 194.366C443.799 197.881 446.342 201.047 449.868 201.437C453.394 201.827 456.568 199.293 456.956 195.777C457.345 192.262 454.802 189.096 451.276 188.706C447.75 188.316 444.576 190.85 444.188 194.366Z" fill="#4B5265"/>
<path d="M453.11 193.634C453.987 195.172 455.266 196.097 455.966 195.7C456.667 195.303 456.524 193.734 455.648 192.197C454.771 190.659 453.492 189.734 452.791 190.131C452.09 190.528 452.233 192.096 453.11 193.634Z" fill="white"/>
<path d="M333.13 511.214C332.506 516.856 336.587 521.936 342.245 522.562C347.902 523.187 352.995 519.121 353.618 513.48C354.242 507.839 350.161 502.758 344.503 502.133C338.846 501.507 333.753 505.573 333.13 511.214Z" fill="#4B5265"/>
<path d="M339.022 504.816C338.88 506.099 341.058 507.391 343.887 507.704C346.716 508.017 349.124 507.231 349.266 505.949C349.408 504.667 347.23 503.374 344.401 503.061C341.572 502.749 339.164 503.534 339.022 504.816Z" fill="white"/>
<path d="M157.947 549.706C157.323 555.348 161.404 560.428 167.062 561.053C172.72 561.679 177.812 557.613 178.436 551.972C179.06 546.331 174.979 541.25 169.321 540.625C163.663 539.999 158.571 544.065 157.947 549.706Z" fill="#FF0B63"/>
<path d="M172.264 548.532C173.671 551 175.723 552.484 176.848 551.847C177.972 551.21 177.743 548.694 176.336 546.226C174.929 543.758 172.877 542.274 171.753 542.911C170.628 543.548 170.857 546.065 172.264 548.532Z" fill="white"/>
<path d="M10.7039 402.366C10.3151 405.881 12.8583 409.047 16.3843 409.437C19.9103 409.827 23.0838 407.293 23.4725 403.777C23.8613 400.262 21.318 397.096 17.7921 396.706C14.2661 396.316 11.0926 398.85 10.7039 402.366Z" fill="#F50057"/>
<path d="M19.6261 401.634C20.5029 403.172 21.7818 404.097 22.4826 403.7C23.1834 403.303 23.0407 401.734 22.1639 400.197C21.2871 398.659 20.0082 397.734 19.3074 398.131C18.6066 398.528 18.7492 400.096 19.6261 401.634Z" fill="white"/>
<path d="M177.704 444.366C177.315 447.881 179.858 451.047 183.384 451.437C186.91 451.827 190.084 449.293 190.473 445.777C190.861 442.262 188.318 439.096 184.792 438.706C181.266 438.316 178.093 440.85 177.704 444.366Z" fill="#4B5265"/>
<path d="M186.626 443.634C187.503 445.172 188.782 446.097 189.483 445.7C190.183 445.303 190.041 443.734 189.164 442.197C188.287 440.659 187.008 439.734 186.307 440.131C185.607 440.528 185.749 442.096 186.626 443.634Z" fill="white"/>
</svg>
