<svg width="142" height="45" viewBox="0 0 142 45" fill="none" xmlns="http://www.w3.org/2000/svg">
<path d="M21.326 42.6477L20.9404 42.3162L20.6154 42.7074C19.3973 44.1737 17.6223 44.5168 15.5162 43.9551C13.3942 43.3892 11.0113 41.9141 8.7649 39.8615C6.52433 37.8143 4.45215 35.2223 2.94254 32.4689C1.43076 29.7116 0.5 26.8237 0.5 24.1791C0.5 18.7639 2.4032 13.6651 5.84161 10.8715C9.23145 8.11734 14.246 7.50195 20.7475 11.3063L21.0113 11.4607L21.269 11.2962C24.2441 9.39706 26.9827 8.60805 29.4059 8.62945C31.8264 8.65083 33.9662 9.48074 35.7511 10.8772C39.3339 13.6803 41.5 18.7851 41.5 24.1791C41.5 29.5188 38.2682 35.772 34.0527 39.8722C31.9497 41.9177 29.6407 43.3883 27.4218 43.9537C25.2227 44.5141 23.1177 44.1883 21.326 42.6477Z" fill="#FF0B63" stroke="#FF0B63"/>
<ellipse cx="11.4589" cy="18.0338" rx="7.24563" ry="7.68633" transform="rotate(-116.355 11.4589 18.0338)" fill="url(#paint0_radial_325:43)" fill-opacity="0.7"/>
<path d="M20.4693 6.5543C19.64 4.50671 20.6277 2.17456 22.6753 1.34529L25.997 -4.1136e-06L26.9501 2.35346C27.7794 4.40105 26.7917 6.7332 24.7442 7.56247L21.4225 8.90776L20.4693 6.5543Z" fill="#FF0B63"/>
<path d="M75.3805 35.352C72.4152 35.352 70.1538 34.6587 68.5965 33.272C67.0605 31.8853 66.2925 29.8587 66.2925 27.192V20.376C66.2925 17.752 67.0392 15.7467 68.5325 14.36C70.0472 12.952 72.2232 12.248 75.0605 12.248C76.9165 12.248 78.5058 12.5467 79.8285 13.144C81.1512 13.72 82.2392 14.6267 83.0925 15.864L81.4605 17.048C80.7138 16.0453 79.8285 15.3093 78.8045 14.84C77.8018 14.3493 76.5858 14.104 75.1565 14.104C73.0232 14.104 71.3912 14.6373 70.2605 15.704C69.1512 16.7707 68.5965 18.328 68.5965 20.376V27.192C68.5965 29.2613 69.1618 30.8293 70.2925 31.896C71.4445 32.9627 73.1298 33.496 75.3485 33.496C76.8205 33.496 78.0685 33.2507 79.0925 32.76C80.1165 32.2693 81.0018 31.5013 81.7485 30.456L83.3805 31.704C82.4205 32.984 81.3112 33.912 80.0525 34.488C78.7938 35.064 77.2365 35.352 75.3805 35.352ZM95.4073 35C92.9113 35 91.0553 34.456 89.8393 33.368C88.6446 32.2587 88.0473 30.5733 88.0473 28.312V19.288C88.0473 17.0267 88.6446 15.352 89.8393 14.264C91.0553 13.1547 92.9113 12.6 95.4073 12.6H103.119V14.456H95.4073C93.6793 14.456 92.3993 14.8507 91.5673 15.64C90.7566 16.4293 90.3513 17.6453 90.3513 19.288V22.872H101.487V24.728H90.3513V28.312C90.3513 29.9547 90.7566 31.1707 91.5673 31.96C92.3993 32.7493 93.6793 33.144 95.4073 33.144H103.311V35H95.4073ZM109.39 12.6H117.358C119.705 12.6 121.561 12.9627 122.926 13.688C124.313 14.4133 125.315 15.5867 125.934 17.208C126.553 18.8293 126.862 21.0267 126.862 23.8C126.862 26.5947 126.553 28.8027 125.934 30.424C125.337 32.024 124.345 33.1867 122.958 33.912C121.593 34.6373 119.726 35 117.358 35H109.39V12.6ZM117.358 33.144C119.129 33.144 120.537 32.8453 121.582 32.248C122.627 31.6293 123.385 30.648 123.854 29.304C124.323 27.9387 124.558 26.1147 124.558 23.832C124.558 21.5493 124.313 19.7253 123.822 18.36C123.353 16.9947 122.595 16.0027 121.55 15.384C120.505 14.7653 119.107 14.456 117.358 14.456H111.694V33.144H117.358Z" fill="#4B5265"/>
<defs>
<radialGradient id="paint0_radial_325:43" cx="0" cy="0" r="1" gradientUnits="userSpaceOnUse" gradientTransform="translate(11.4589 18.0338) rotate(90) scale(7.68633 7.24563)">
<stop stop-color="#FBBDD4"/>
<stop offset="1" stop-color="#FF0B63"/>
</radialGradient>
</defs>
</svg>
